G75*
G70*
%OFA0B0*%
%FSLAX24Y24*%
%IPPOS*%
%LPD*%
%AMOC8*
5,1,8,0,0,1.08239X$1,22.5*
%
%ADD10R,0.0472X0.0472*%
%ADD11R,0.0472X0.0472*%
%ADD12R,0.0591X0.0197*%
%ADD13R,0.0591X0.0110*%
%ADD14R,0.0197X0.0591*%
%ADD15R,0.0110X0.0591*%
%ADD16R,0.0591X0.0098*%
%ADD17OC8,0.0600*%
%ADD18R,0.0551X0.0394*%
%ADD19R,0.0394X0.0433*%
%ADD20R,0.0364X0.0291*%
%ADD21R,0.0630X0.0512*%
%ADD22R,0.0433X0.0394*%
%ADD23R,0.0748X0.0551*%
%ADD24R,0.0291X0.0364*%
%ADD25R,0.0472X0.0984*%
%ADD26C,0.0740*%
%ADD27R,0.0157X0.0551*%
%ADD28R,0.0906X0.0748*%
%ADD29R,0.0689X0.0748*%
%ADD30R,0.0098X0.0433*%
%ADD31R,0.0551X0.0189*%
%ADD32R,0.0551X0.0220*%
%ADD33R,0.1024X0.0472*%
%ADD34R,0.0630X0.1063*%
%ADD35R,0.0276X0.0394*%
%ADD36R,0.0945X0.0945*%
%ADD37R,0.0787X0.0394*%
%ADD38R,0.0787X0.0709*%
%ADD39R,0.0394X0.0394*%
%ADD40R,0.0118X0.0456*%
%ADD41R,0.0456X0.0118*%
%ADD42R,0.0354X0.0276*%
%ADD43R,0.0240X0.0870*%
%ADD44R,0.0512X0.0630*%
%ADD45R,0.0512X0.0591*%
%ADD46C,0.0591*%
%ADD47R,0.0551X0.0472*%
%ADD48R,0.0120X0.0350*%
%ADD49R,0.1772X0.0394*%
%ADD50R,0.1339X0.0591*%
%ADD51R,0.0394X0.0709*%
%ADD52R,0.1575X0.0709*%
%ADD53R,0.0315X0.0709*%
%ADD54C,0.0197*%
%ADD55OC8,0.0315*%
%ADD56C,0.0118*%
%ADD57C,0.0157*%
%ADD58C,0.0079*%
%ADD59C,0.0394*%
%ADD60C,0.0276*%
D10*
X047802Y006047D03*
X047802Y006874D03*
X047802Y018646D03*
X047802Y019472D03*
D11*
G36*
X008087Y021600D02*
X008403Y021950D01*
X008753Y021634D01*
X008437Y021284D01*
X008087Y021600D01*
G37*
G36*
X007473Y022153D02*
X007789Y022503D01*
X008139Y022187D01*
X007823Y021837D01*
X007473Y022153D01*
G37*
G36*
X008403Y003569D02*
X008087Y003919D01*
X008437Y004235D01*
X008753Y003885D01*
X008403Y003569D01*
G37*
G36*
X007789Y003016D02*
X007473Y003366D01*
X007823Y003682D01*
X008139Y003332D01*
X007789Y003016D01*
G37*
D12*
X024092Y015535D03*
X027576Y015535D03*
X027576Y017779D03*
X024092Y017779D03*
D13*
X024092Y017543D03*
X024092Y017346D03*
X024092Y017149D03*
X024092Y016953D03*
X024092Y016756D03*
X024092Y016559D03*
X024092Y016362D03*
X024092Y016165D03*
X024092Y015968D03*
X024092Y015771D03*
D14*
X024712Y014915D03*
X026956Y014915D03*
X026956Y018399D03*
X024712Y018399D03*
D15*
X024948Y018399D03*
X025145Y018399D03*
X025342Y018399D03*
X025538Y018399D03*
X025735Y018399D03*
X025932Y018399D03*
X026129Y018399D03*
X026326Y018399D03*
X026523Y018399D03*
X026720Y018399D03*
X026720Y014915D03*
X026523Y014915D03*
X026326Y014915D03*
X026129Y014915D03*
X025932Y014915D03*
X025735Y014915D03*
X025538Y014915D03*
X025342Y014915D03*
X025145Y014915D03*
X024948Y014915D03*
D16*
X027576Y015771D03*
X027576Y015968D03*
X027576Y016165D03*
X027576Y016362D03*
X027576Y016559D03*
X027576Y016756D03*
X027576Y016953D03*
X027576Y017149D03*
X027576Y017346D03*
X027576Y017543D03*
D17*
X015172Y020760D03*
X014172Y020760D03*
X013172Y020760D03*
X012172Y020760D03*
X011172Y020760D03*
X010172Y020760D03*
X010172Y021760D03*
X011172Y021760D03*
X012172Y021760D03*
X013172Y021760D03*
X014172Y021760D03*
X015172Y021760D03*
X015172Y004760D03*
X014172Y004760D03*
X013172Y004760D03*
X012172Y004760D03*
X011172Y004760D03*
X010172Y004760D03*
X010172Y003760D03*
X011172Y003760D03*
X012172Y003760D03*
X013172Y003760D03*
X014172Y003760D03*
X015172Y003760D03*
D18*
X022527Y007563D03*
X023393Y007937D03*
X023393Y007189D03*
X021346Y008094D03*
X020479Y008468D03*
X021346Y008842D03*
X031385Y006579D03*
X032251Y006205D03*
X032251Y006953D03*
X034338Y021086D03*
X033471Y021460D03*
X034338Y021834D03*
X025519Y021500D03*
X024653Y021874D03*
X024653Y021126D03*
D19*
X022979Y020397D03*
X022310Y020397D03*
X021326Y020831D03*
X020657Y020831D03*
X018609Y019689D03*
X017940Y019689D03*
X017940Y018783D03*
X018609Y018783D03*
X010342Y022996D03*
X009672Y022996D03*
X028649Y019374D03*
X029318Y019374D03*
X030263Y018783D03*
X030932Y018783D03*
X033216Y020397D03*
X033885Y020397D03*
X045302Y020634D03*
X045971Y020634D03*
X047468Y017012D03*
X048137Y017012D03*
X048117Y015161D03*
X047448Y015161D03*
X045971Y004886D03*
X045302Y004886D03*
X026444Y007445D03*
X025775Y007445D03*
X024987Y007445D03*
X024318Y007445D03*
X024318Y008350D03*
X024987Y008350D03*
X025775Y008350D03*
X026444Y008350D03*
X026444Y009177D03*
X025775Y009177D03*
X023570Y008862D03*
X022901Y008862D03*
X021995Y011027D03*
X021326Y011027D03*
X021011Y004020D03*
X021680Y004020D03*
X010369Y002484D03*
X009700Y002484D03*
D20*
X021542Y014846D03*
X022015Y014846D03*
X022054Y015791D03*
X021582Y015791D03*
X025597Y019138D03*
X026070Y019138D03*
X021346Y021579D03*
X020873Y021579D03*
X047527Y010673D03*
X047999Y010673D03*
X049731Y014098D03*
X050204Y014098D03*
X048629Y014610D03*
X048157Y014610D03*
D21*
X028668Y006027D03*
X028668Y005240D03*
X025991Y005909D03*
X025991Y006697D03*
X026306Y009846D03*
X026306Y010634D03*
X023235Y010752D03*
X023235Y009964D03*
X023747Y021067D03*
X023747Y021854D03*
D22*
X021582Y014157D03*
X021582Y013488D03*
X021306Y010338D03*
X021306Y009669D03*
X016109Y004669D03*
X016109Y004000D03*
D23*
X018432Y015083D03*
X020164Y015083D03*
X020164Y016027D03*
X018432Y016027D03*
D24*
X022881Y016106D03*
X022881Y015634D03*
X027251Y010516D03*
X027251Y010043D03*
X022172Y009925D03*
X022172Y010397D03*
X047566Y011106D03*
X047566Y011579D03*
X048826Y011146D03*
X049298Y011342D03*
X049298Y010870D03*
X049771Y010909D03*
X049771Y010437D03*
X048826Y010673D03*
X047487Y014020D03*
X047487Y014492D03*
X049141Y014295D03*
X050204Y014492D03*
X049141Y014768D03*
X050204Y014964D03*
D25*
G36*
X031359Y004812D02*
X030904Y004934D01*
X031159Y005884D01*
X031614Y005762D01*
X031359Y004812D01*
G37*
G36*
X032310Y004557D02*
X031855Y004679D01*
X032110Y005629D01*
X032565Y005507D01*
X032310Y004557D01*
G37*
G36*
X030408Y005067D02*
X029953Y005189D01*
X030208Y006139D01*
X030663Y006017D01*
X030408Y005067D01*
G37*
D26*
X037172Y003760D03*
X038172Y003760D03*
X039172Y003760D03*
X040172Y003760D03*
X041172Y003760D03*
X042172Y003760D03*
X042172Y021760D03*
X041172Y021760D03*
X040172Y021760D03*
X039172Y021760D03*
X038172Y021760D03*
X037172Y021760D03*
D27*
G36*
X031579Y020074D02*
X031729Y020114D01*
X031871Y019584D01*
X031721Y019544D01*
X031579Y020074D01*
G37*
G36*
X031332Y020008D02*
X031482Y020048D01*
X031624Y019518D01*
X031474Y019478D01*
X031332Y020008D01*
G37*
G36*
X031085Y019942D02*
X031235Y019982D01*
X031377Y019452D01*
X031227Y019412D01*
X031085Y019942D01*
G37*
G36*
X030838Y019875D02*
X030988Y019915D01*
X031130Y019385D01*
X030980Y019345D01*
X030838Y019875D01*
G37*
G36*
X030590Y019809D02*
X030740Y019849D01*
X030882Y019319D01*
X030732Y019279D01*
X030590Y019809D01*
G37*
D28*
G36*
X028980Y020642D02*
X029854Y020876D01*
X030048Y020154D01*
X029174Y019920D01*
X028980Y020642D01*
G37*
G36*
X031832Y021407D02*
X032706Y021641D01*
X032900Y020919D01*
X032026Y020685D01*
X031832Y021407D01*
G37*
D29*
G36*
X030958Y021172D02*
X031622Y021350D01*
X031816Y020628D01*
X031152Y020450D01*
X030958Y021172D01*
G37*
G36*
X030064Y020933D02*
X030728Y021111D01*
X030922Y020389D01*
X030258Y020211D01*
X030064Y020933D01*
G37*
D30*
X030164Y017071D03*
X030361Y017071D03*
X030558Y017071D03*
X030755Y017071D03*
X030952Y017071D03*
X030952Y014905D03*
X030755Y014905D03*
X030558Y014905D03*
X030361Y014905D03*
X030164Y014905D03*
D31*
X024101Y010949D03*
X024101Y009768D03*
D32*
X024101Y010358D03*
D33*
X025113Y010358D03*
D34*
X019771Y009689D03*
X018668Y009689D03*
D35*
X022209Y020959D03*
X022583Y020959D03*
X022957Y020959D03*
X022957Y021983D03*
X022583Y021983D03*
X022209Y021983D03*
D36*
X020952Y022838D03*
X019220Y022838D03*
X019220Y002681D03*
X020952Y002681D03*
D37*
G36*
X028488Y007098D02*
X029043Y007653D01*
X029322Y007374D01*
X028767Y006819D01*
X028488Y007098D01*
G37*
G36*
X028091Y007495D02*
X028646Y008050D01*
X028925Y007771D01*
X028370Y007216D01*
X028091Y007495D01*
G37*
G36*
X027694Y007892D02*
X028249Y008447D01*
X028528Y008168D01*
X027973Y007613D01*
X027694Y007892D01*
G37*
G36*
X030715Y009326D02*
X031270Y009881D01*
X031549Y009602D01*
X030994Y009047D01*
X030715Y009326D01*
G37*
G36*
X030318Y009722D02*
X030873Y010277D01*
X031152Y009998D01*
X030597Y009443D01*
X030318Y009722D01*
G37*
G36*
X029921Y010119D02*
X030476Y010674D01*
X030755Y010395D01*
X030200Y009840D01*
X029921Y010119D01*
G37*
D38*
G36*
X027966Y009847D02*
X028521Y010402D01*
X029022Y009901D01*
X028467Y009346D01*
X027966Y009847D01*
G37*
G36*
X030221Y007592D02*
X030776Y008147D01*
X031277Y007646D01*
X030722Y007091D01*
X030221Y007592D01*
G37*
D39*
X048353Y012760D03*
D40*
X048353Y013608D03*
X048157Y013608D03*
X047960Y013608D03*
X048550Y013608D03*
X048747Y013608D03*
X048747Y011912D03*
X048550Y011912D03*
X048353Y011912D03*
X048157Y011912D03*
X047960Y011912D03*
D41*
X047505Y012366D03*
X047505Y012563D03*
X047505Y012760D03*
X047505Y012957D03*
X047505Y013153D03*
X049201Y013153D03*
X049201Y012957D03*
X049201Y012760D03*
X049201Y012563D03*
X049201Y012366D03*
D42*
X049771Y012268D03*
X049771Y011874D03*
X049771Y011362D03*
X049771Y012779D03*
X049771Y013173D03*
X049771Y013685D03*
D43*
X018316Y006467D03*
X017816Y006467D03*
X017316Y006467D03*
X016816Y006467D03*
X016816Y004407D03*
X017316Y004407D03*
X017816Y004407D03*
X018316Y004407D03*
D44*
X048865Y016106D03*
X049653Y016106D03*
D45*
X048216Y016106D03*
X047468Y016106D03*
D46*
X049101Y007681D03*
X012723Y001933D03*
X012645Y023547D03*
D47*
X047645Y010142D03*
X048511Y010142D03*
X048511Y009472D03*
X047645Y009472D03*
D48*
X027645Y007094D03*
X027448Y007094D03*
X027251Y007094D03*
X027054Y007094D03*
X026857Y007094D03*
X026857Y005433D03*
X027054Y005433D03*
X027251Y005433D03*
X027448Y005433D03*
X027645Y005433D03*
D49*
X020361Y011736D03*
X020361Y012523D03*
X020361Y013311D03*
D50*
X017901Y014236D03*
X017901Y010811D03*
D51*
X050932Y014098D03*
D52*
X053452Y014098D03*
D53*
X022605Y022838D03*
X021975Y022838D03*
D54*
X031739Y012878D02*
X031149Y012287D01*
X030597Y012287D01*
X030558Y012327D01*
X030519Y012287D01*
X029180Y012287D01*
X027723Y012012D02*
X024456Y012012D01*
X024259Y012209D01*
X023944Y012209D01*
X023471Y011736D01*
X020361Y011736D01*
X022172Y010476D02*
X022605Y010476D01*
X022881Y010752D01*
X023235Y010752D01*
X023432Y010949D01*
X024101Y010949D01*
X025519Y010949D01*
X025716Y011146D01*
X022172Y010397D02*
X021897Y010397D01*
X021739Y010240D01*
X021739Y010004D01*
X021405Y009669D01*
X021306Y009669D01*
X021286Y009689D01*
X021031Y009689D01*
X018668Y009689D02*
X018668Y008547D01*
X018786Y008547D01*
X018786Y006815D02*
X018865Y006736D01*
X021109Y006736D01*
X021779Y006067D01*
X023944Y006067D01*
X024928Y005083D01*
X025322Y005083D01*
X025519Y004728D02*
X024889Y004728D01*
X024456Y004728D01*
X023747Y004020D01*
X021680Y004020D01*
X021031Y004020D02*
X021011Y004020D01*
X021031Y004020D02*
X021031Y003429D01*
X022094Y003429D01*
X021031Y003429D02*
X020479Y003429D01*
X019731Y002681D01*
X019220Y002681D01*
X020952Y002681D02*
X022802Y002681D01*
X024574Y004453D01*
X025637Y004453D01*
X025991Y004807D01*
X029062Y004807D01*
X029259Y005004D01*
X029849Y005004D01*
X030007Y004846D01*
X030755Y004846D01*
X031257Y005348D01*
X031259Y005348D01*
X031741Y005831D01*
X033157Y005831D01*
X031385Y006579D02*
X031306Y006657D01*
X029653Y006657D01*
X029613Y006618D01*
X028668Y006027D02*
X027802Y006027D01*
X027763Y006027D01*
X027448Y006342D01*
X026975Y006342D01*
X026542Y005909D01*
X025991Y005909D01*
X025991Y005201D01*
X025519Y004728D01*
X024889Y004728D02*
X023826Y005791D01*
X021660Y005791D01*
X021424Y006027D01*
X019131Y006027D01*
X018934Y005831D01*
X017527Y005831D01*
X017316Y006041D01*
X017316Y006467D01*
X017527Y005831D02*
X016464Y005831D01*
X016385Y005909D01*
X025991Y006697D02*
X026031Y006736D01*
X026499Y006736D01*
X026857Y007094D01*
X026857Y007327D01*
X026936Y007405D01*
X027074Y007543D01*
X027212Y007543D01*
X029692Y005634D02*
X030277Y005634D01*
X030308Y005603D01*
X026857Y005433D02*
X026857Y005122D01*
X026818Y005083D01*
X026759Y005083D01*
X026542Y005299D01*
X030732Y007602D02*
X031204Y008075D01*
X031857Y008075D01*
X031739Y012878D02*
X033235Y012878D01*
X036188Y012878D01*
X038275Y012878D01*
X047448Y014531D02*
X047448Y015161D01*
X047448Y014531D02*
X047487Y014492D01*
X049141Y014768D02*
X049141Y015142D01*
X049397Y015397D01*
X049220Y012327D02*
X049220Y011421D01*
X049298Y011342D01*
X049751Y011342D01*
X049771Y011362D01*
X049771Y010909D01*
X049298Y010870D02*
X049298Y010555D01*
X049416Y010437D01*
X049771Y010437D01*
X049298Y010870D02*
X049101Y010673D01*
X048826Y010673D01*
D55*
X050184Y010279D03*
X050184Y009492D03*
X049397Y009492D03*
X049397Y008705D03*
X050184Y008705D03*
X048609Y008705D03*
X047822Y008705D03*
X047034Y008705D03*
X047034Y009492D03*
X047034Y010279D03*
X047015Y011185D03*
X046542Y011579D03*
X047991Y012376D03*
X048716Y012376D03*
X048716Y013144D03*
X047991Y013144D03*
X047015Y013547D03*
X047015Y014334D03*
X047015Y015122D03*
X048550Y015161D03*
X049397Y015397D03*
X050184Y015397D03*
X050184Y016185D03*
X050184Y016972D03*
X049397Y016972D03*
X048609Y016972D03*
X048609Y017760D03*
X047822Y017760D03*
X046542Y016539D03*
X044653Y016697D03*
X043078Y016697D03*
X041818Y017563D03*
X042172Y018271D03*
X041857Y018547D03*
X042448Y018783D03*
X042409Y019649D03*
X040716Y016697D03*
X041172Y015988D03*
X040716Y015122D03*
X041503Y013823D03*
X042448Y013153D03*
X041818Y012878D03*
X040125Y013468D03*
X039172Y013193D03*
X038275Y012878D03*
X036188Y012878D03*
X034810Y011933D03*
X033235Y012878D03*
X035164Y013823D03*
X034810Y014374D03*
X030952Y014413D03*
X030558Y014413D03*
X029771Y014610D03*
X028905Y014610D03*
X028157Y014807D03*
X027369Y015122D03*
X028117Y015476D03*
X029101Y015870D03*
X029692Y016185D03*
X029849Y016736D03*
X029849Y017169D03*
X028905Y016894D03*
X028157Y017051D03*
X027015Y017130D03*
X026818Y017838D03*
X026424Y017838D03*
X026070Y017484D03*
X025401Y017838D03*
X025007Y017838D03*
X025401Y017090D03*
X026070Y016775D03*
X025401Y016500D03*
X024653Y016146D03*
X024653Y015752D03*
X025164Y015476D03*
X025558Y015476D03*
X024259Y014807D03*
X023668Y014334D03*
X024849Y013901D03*
X024849Y013193D03*
X026424Y013350D03*
X027094Y013823D03*
X028629Y013665D03*
X029456Y013508D03*
X028550Y012248D03*
X027723Y012012D03*
X026739Y011460D03*
X026227Y011146D03*
X025716Y011146D03*
X024377Y011303D03*
X023826Y011303D03*
X024101Y011854D03*
X022920Y012917D03*
X023235Y013468D03*
X022527Y013547D03*
X022133Y013547D03*
X020479Y014059D03*
X020794Y014886D03*
X020873Y015831D03*
X020873Y016500D03*
X021346Y016775D03*
X022094Y016775D03*
X022763Y017523D03*
X023275Y017720D03*
X023944Y018114D03*
X024220Y018429D03*
X024298Y019059D03*
X024298Y019453D03*
X025204Y019453D03*
X026975Y019216D03*
X027409Y019138D03*
X027369Y018586D03*
X027684Y018114D03*
X028905Y017917D03*
X028629Y018901D03*
X029810Y018783D03*
X030086Y019728D03*
X031424Y019098D03*
X033432Y019256D03*
X033905Y018705D03*
X034495Y018980D03*
X034849Y019295D03*
X035164Y019649D03*
X031936Y017287D03*
X032330Y016933D03*
X033629Y016697D03*
X035991Y016697D03*
X038353Y016697D03*
X044653Y015122D03*
X044889Y013783D03*
X044180Y013468D03*
X040361Y011775D03*
X041660Y010988D03*
X040125Y009846D03*
X040716Y008823D03*
X038353Y008823D03*
X035991Y008823D03*
X033983Y009846D03*
X033629Y008823D03*
X031857Y008075D03*
X033196Y006933D03*
X034180Y007327D03*
X034495Y006224D03*
X033157Y005831D03*
X029692Y005634D03*
X028078Y005299D03*
X027763Y005988D03*
X027290Y005988D03*
X027763Y006539D03*
X027212Y007543D03*
X026109Y007878D03*
X024653Y007878D03*
X024771Y006894D03*
X025046Y006382D03*
X024377Y006146D03*
X025322Y005673D03*
X025322Y005083D03*
X026542Y005299D03*
X023550Y005279D03*
X022369Y005437D03*
X021346Y004689D03*
X020401Y005673D03*
X019889Y006382D03*
X018786Y006815D03*
X020401Y007405D03*
X022133Y008193D03*
X022290Y008823D03*
X021857Y009531D03*
X020361Y008980D03*
X019889Y008429D03*
X018786Y008547D03*
X015834Y006264D03*
X016385Y005909D03*
X017310Y003646D03*
X016040Y003557D03*
X019889Y003744D03*
X022094Y003429D03*
X023550Y004374D03*
X029613Y006618D03*
X029692Y008035D03*
X029653Y008744D03*
X029101Y008626D03*
X028117Y008783D03*
X027566Y008429D03*
X026975Y009138D03*
X024849Y009138D03*
X024101Y009020D03*
X024849Y009886D03*
X022448Y011303D03*
X019338Y012130D03*
X023196Y015240D03*
X023511Y015516D03*
X023275Y016264D03*
X023353Y017012D03*
X020086Y017799D03*
X019220Y018783D03*
X020519Y019177D03*
X021070Y019649D03*
X022094Y019925D03*
X022487Y019925D03*
X022566Y019531D03*
X021857Y020555D03*
X021306Y020358D03*
X021818Y021342D03*
X022842Y021460D03*
X021306Y022012D03*
X020873Y022012D03*
X019889Y022130D03*
X018629Y020988D03*
X017763Y020279D03*
X016897Y020712D03*
X015952Y021736D03*
X017290Y022642D03*
X017723Y022287D03*
X023157Y022760D03*
X023550Y022366D03*
X026582Y020949D03*
X026188Y020870D03*
X025794Y020712D03*
X025558Y020358D03*
X028038Y020634D03*
X028550Y020791D03*
X028038Y019571D03*
X017763Y017248D03*
X017802Y016303D03*
X016385Y018862D03*
X010912Y022957D03*
X030558Y012327D03*
X029849Y011775D03*
X029692Y011382D03*
X029298Y011775D03*
X031779Y010319D03*
X032251Y011303D03*
X037172Y011303D03*
X043078Y008823D03*
X044653Y008823D03*
X044653Y009610D03*
X044889Y010358D03*
X044141Y011037D03*
X050184Y011067D03*
X050184Y011854D03*
X050184Y012642D03*
X050184Y013429D03*
X048747Y014138D03*
X050184Y017760D03*
X050184Y018547D03*
X050184Y007917D03*
X050184Y007130D03*
X011070Y002287D03*
X008936Y004209D03*
D56*
X006702Y003340D02*
X010451Y006715D01*
X011236Y006689D01*
X011689Y006653D01*
X011689Y006653D01*
X012604Y006707D01*
X013503Y006886D01*
X014369Y007187D01*
X015185Y007605D01*
X015936Y008130D01*
X016607Y008754D01*
X016607Y008754D01*
X016607Y008754D01*
X016864Y009069D01*
X016868Y009070D01*
X016900Y009113D01*
X016933Y009154D01*
X016933Y009158D01*
X017030Y009293D01*
X017195Y009697D01*
X017259Y010130D01*
X017239Y010341D01*
X017239Y010378D01*
X018627Y010378D01*
X018708Y010459D01*
X018708Y011163D01*
X018627Y011244D01*
X017239Y011244D01*
X017239Y012683D01*
X017239Y012683D01*
X017239Y012737D01*
X017239Y012797D01*
X017237Y013803D01*
X018627Y013803D01*
X018708Y013884D01*
X018708Y014588D01*
X018627Y014669D01*
X017236Y014669D01*
X017235Y015175D01*
X017255Y015386D01*
X017191Y015818D01*
X017026Y016223D01*
X016929Y016357D01*
X016929Y016362D01*
X016896Y016402D01*
X016865Y016446D01*
X016860Y016446D01*
X016604Y016761D01*
X015932Y017385D01*
X015181Y017911D01*
X014365Y018328D01*
X013499Y018629D01*
X012600Y018809D01*
X011685Y018862D01*
X011231Y018826D01*
X010452Y018804D01*
X006702Y022179D01*
X007261Y022474D01*
X008769Y023151D01*
X010330Y023696D01*
X011931Y024104D01*
X013562Y024374D01*
X015209Y024503D01*
X016862Y024490D01*
X018508Y024335D01*
X020134Y024040D01*
X021729Y023606D01*
X022531Y023312D01*
X022399Y023312D01*
X022329Y023242D01*
X022329Y022504D01*
X022252Y022504D01*
X022252Y023242D01*
X022182Y023312D01*
X021769Y023312D01*
X021699Y023242D01*
X021699Y023016D01*
X021543Y023016D01*
X021543Y023360D01*
X021474Y023430D01*
X020430Y023430D01*
X020360Y023360D01*
X020360Y022421D01*
X020317Y022464D01*
X020316Y022464D02*
X019811Y022970D01*
X019811Y023360D01*
X019741Y023430D01*
X018698Y023430D01*
X018628Y023360D01*
X018628Y022317D01*
X018698Y022247D01*
X019741Y022247D01*
X019811Y022317D01*
X019811Y022469D01*
X020066Y022214D01*
X020066Y021731D01*
X020066Y021584D01*
X020145Y021505D01*
X020248Y021401D01*
X020572Y021401D01*
X020572Y021384D01*
X020642Y021314D01*
X021058Y021314D01*
X021066Y021306D01*
X021102Y021285D01*
X021142Y021274D01*
X021332Y021274D01*
X021332Y021565D01*
X021359Y021565D01*
X021359Y021274D01*
X021523Y021274D01*
X021523Y021220D01*
X021681Y021062D01*
X021680Y021061D01*
X021680Y020795D01*
X021642Y020757D01*
X021642Y021096D01*
X021572Y021166D01*
X021080Y021166D01*
X021010Y021096D01*
X021010Y021077D01*
X021002Y021108D01*
X020981Y021145D01*
X020951Y021174D01*
X020915Y021195D01*
X020874Y021206D01*
X020696Y021206D01*
X020696Y020870D01*
X020617Y020870D01*
X020617Y020791D01*
X020696Y020791D01*
X020696Y020455D01*
X020874Y020455D01*
X020915Y020466D01*
X020951Y020487D01*
X020981Y020516D01*
X021002Y020553D01*
X021010Y020584D01*
X021010Y020565D01*
X021053Y020522D01*
X021011Y020480D01*
X021011Y020260D01*
X020726Y020260D01*
X020531Y020455D01*
X020617Y020455D01*
X020617Y020791D01*
X020301Y020791D01*
X020301Y020686D01*
X019160Y021826D01*
X019034Y021953D01*
X016153Y021953D01*
X016074Y022031D01*
X015829Y022031D01*
X015657Y021858D01*
X015657Y021614D01*
X015829Y021441D01*
X016074Y021441D01*
X016153Y021520D01*
X018854Y021520D01*
X019209Y021165D01*
X018869Y021165D01*
X018751Y021283D01*
X018584Y021283D01*
X018506Y021362D01*
X018359Y021362D01*
X015367Y021362D01*
X015591Y021586D01*
X015591Y021873D01*
X015790Y022071D01*
X017522Y022071D01*
X017601Y021992D01*
X017846Y021992D01*
X018019Y022165D01*
X018019Y022410D01*
X017846Y022582D01*
X017601Y022582D01*
X017522Y022504D01*
X015790Y022504D01*
X015610Y022504D01*
X015285Y022179D01*
X014999Y022179D01*
X014753Y021933D01*
X014753Y021586D01*
X014977Y021362D01*
X014820Y021362D01*
X014591Y021591D01*
X014591Y021933D01*
X014346Y022179D01*
X013999Y022179D01*
X013753Y021933D01*
X013753Y021586D01*
X013999Y021341D01*
X014341Y021341D01*
X014674Y021008D01*
X014820Y021008D01*
X014828Y021008D01*
X014753Y020933D01*
X014753Y020586D01*
X014883Y020456D01*
X014726Y020456D01*
X014591Y020591D01*
X014591Y020933D01*
X014346Y021179D01*
X013999Y021179D01*
X013804Y020984D01*
X013531Y021258D01*
X013427Y021362D01*
X013424Y021362D01*
X013631Y021570D01*
X013631Y021719D01*
X013213Y021719D01*
X013213Y021801D01*
X013131Y021801D01*
X013131Y022219D01*
X012982Y022219D01*
X012713Y021950D01*
X012713Y021801D01*
X013131Y021801D01*
X013131Y021719D01*
X012713Y021719D01*
X012713Y021570D01*
X012921Y021362D01*
X012820Y021362D01*
X012591Y021591D01*
X012591Y021933D01*
X012346Y022179D01*
X011999Y022179D01*
X011753Y021933D01*
X011753Y021586D01*
X011977Y021362D01*
X011671Y021362D01*
X011524Y021362D01*
X011341Y021179D01*
X010999Y021179D01*
X010893Y021073D01*
X010893Y021143D01*
X010893Y021290D01*
X010591Y021591D01*
X010591Y021933D01*
X010346Y022179D01*
X009999Y022179D01*
X009753Y021933D01*
X009753Y021586D01*
X009999Y021341D01*
X010341Y021341D01*
X010538Y021143D01*
X010538Y020986D01*
X010346Y021179D01*
X009999Y021179D01*
X009753Y020933D01*
X009753Y020586D01*
X009999Y020341D01*
X010346Y020341D01*
X010538Y020533D01*
X010538Y020521D01*
X010834Y020226D01*
X010937Y020122D01*
X012335Y020122D01*
X013117Y019340D01*
X013221Y019236D01*
X014422Y019236D01*
X017532Y016126D01*
X017562Y016126D01*
X017680Y016008D01*
X017924Y016008D01*
X017939Y016022D01*
X017939Y015702D01*
X018009Y015633D01*
X018855Y015633D01*
X018925Y015702D01*
X018925Y016352D01*
X018855Y016422D01*
X018172Y016422D01*
X018348Y016598D01*
X020238Y016598D01*
X020342Y016702D01*
X020750Y017110D01*
X021430Y017110D01*
X021390Y017071D01*
X021223Y017071D01*
X021050Y016898D01*
X021050Y016653D01*
X021223Y016480D01*
X021468Y016480D01*
X021641Y016653D01*
X021641Y016820D01*
X021891Y017071D01*
X022335Y017071D01*
X022275Y017011D01*
X022216Y017071D01*
X021971Y017071D01*
X021798Y016898D01*
X021798Y016653D01*
X021971Y016480D01*
X022216Y016480D01*
X022334Y016598D01*
X022335Y016598D01*
X022138Y016401D01*
X020608Y016401D01*
X020588Y016422D01*
X019741Y016422D01*
X019671Y016352D01*
X019671Y015702D01*
X019681Y015693D01*
X019540Y015693D01*
X019107Y015260D01*
X018925Y015260D01*
X018925Y015407D01*
X018855Y015477D01*
X018009Y015477D01*
X017939Y015407D01*
X017939Y014758D01*
X018009Y014688D01*
X018855Y014688D01*
X018925Y014758D01*
X018925Y014905D01*
X019254Y014905D01*
X019357Y015009D01*
X019671Y015323D01*
X019671Y014758D01*
X019741Y014688D01*
X020588Y014688D01*
X020657Y014758D01*
X020657Y015338D01*
X021430Y015338D01*
X021617Y015151D01*
X021556Y015151D01*
X021556Y014860D01*
X021529Y014860D01*
X021529Y015151D01*
X021339Y015151D01*
X021299Y015140D01*
X021263Y015119D01*
X021233Y015090D01*
X021212Y015053D01*
X021201Y015013D01*
X021201Y014860D01*
X021528Y014860D01*
X021528Y014832D01*
X021201Y014832D01*
X021201Y014680D01*
X021212Y014639D01*
X021233Y014603D01*
X021263Y014573D01*
X021299Y014552D01*
X021339Y014542D01*
X021529Y014542D01*
X021529Y014832D01*
X021556Y014832D01*
X021556Y014542D01*
X021660Y014542D01*
X021591Y014473D01*
X021316Y014473D01*
X021246Y014403D01*
X021246Y014374D01*
X021118Y014374D01*
X021020Y014275D01*
X020680Y014275D01*
X020602Y014354D01*
X020357Y014354D01*
X020184Y014181D01*
X020184Y013937D01*
X020357Y013764D01*
X020602Y013764D01*
X020680Y013842D01*
X021020Y013842D01*
X021199Y013842D01*
X021257Y013900D01*
X021316Y013841D01*
X021848Y013841D01*
X021917Y013911D01*
X021917Y014118D01*
X022301Y014118D01*
X022428Y014245D01*
X023019Y014835D01*
X023019Y015000D01*
X023074Y014945D01*
X023318Y014945D01*
X023491Y015118D01*
X023491Y015220D01*
X023633Y015220D01*
X023739Y015326D01*
X023747Y015318D01*
X024436Y015318D01*
X024506Y015388D01*
X024506Y015481D01*
X024530Y015457D01*
X024775Y015457D01*
X024869Y015551D01*
X024869Y015354D01*
X024894Y015329D01*
X024843Y015329D01*
X024564Y015329D01*
X024494Y015260D01*
X024494Y014989D01*
X024381Y015102D01*
X024137Y015102D01*
X023964Y014929D01*
X023964Y014787D01*
X023398Y014787D01*
X023294Y014683D01*
X022768Y014157D01*
X022414Y014157D01*
X022310Y014054D01*
X022099Y013842D01*
X022011Y013842D01*
X021910Y013742D01*
X021848Y013804D01*
X021316Y013804D01*
X021246Y013734D01*
X021246Y013627D01*
X019426Y013627D01*
X019356Y013557D01*
X019356Y013065D01*
X019426Y012995D01*
X021096Y012995D01*
X021193Y012897D01*
X021340Y012897D01*
X022625Y012897D01*
X022625Y012795D01*
X022798Y012622D01*
X023043Y012622D01*
X023121Y012701D01*
X023382Y012701D01*
X023561Y012701D01*
X023640Y012779D01*
X024484Y012779D01*
X024602Y012661D01*
X024782Y012661D01*
X030018Y012661D01*
X030145Y012788D01*
X030333Y012976D01*
X038971Y012976D01*
X039050Y012897D01*
X039295Y012897D01*
X039468Y013070D01*
X039468Y013291D01*
X039885Y013291D01*
X040003Y013173D01*
X040247Y013173D01*
X040420Y013346D01*
X040420Y013591D01*
X040365Y013646D01*
X041263Y013646D01*
X041381Y013527D01*
X041625Y013527D01*
X041798Y013700D01*
X041798Y013945D01*
X041625Y014118D01*
X041381Y014118D01*
X041263Y014000D01*
X035828Y014000D01*
X035682Y014000D01*
X035460Y013778D01*
X035460Y013945D01*
X035287Y014118D01*
X035042Y014118D01*
X034869Y013945D01*
X034869Y013882D01*
X032639Y013882D01*
X032954Y014197D01*
X034570Y014197D01*
X034688Y014079D01*
X034932Y014079D01*
X035105Y014252D01*
X035105Y014496D01*
X034932Y014669D01*
X034688Y014669D01*
X034570Y014551D01*
X032954Y014551D01*
X032808Y014551D01*
X032296Y014039D01*
X030080Y014039D01*
X029948Y014172D01*
X029844Y014275D01*
X028742Y014275D01*
X028392Y014625D01*
X028452Y014685D01*
X028452Y014929D01*
X028279Y015102D01*
X028034Y015102D01*
X027916Y014984D01*
X027649Y014984D01*
X027664Y015000D01*
X027664Y015244D01*
X027591Y015318D01*
X027858Y015318D01*
X027995Y015181D01*
X028239Y015181D01*
X028412Y015354D01*
X028412Y015594D01*
X028733Y015594D01*
X028806Y015521D01*
X028910Y015417D01*
X029225Y015417D01*
X029372Y015417D01*
X029687Y015732D01*
X029987Y015732D01*
X029987Y015137D01*
X029996Y015128D01*
X029996Y015082D01*
X029126Y015082D01*
X029023Y014979D01*
X028949Y014905D01*
X028782Y014905D01*
X028609Y014732D01*
X028609Y014488D01*
X028782Y014315D01*
X029027Y014315D01*
X029200Y014488D01*
X029200Y014655D01*
X029273Y014728D01*
X029475Y014728D01*
X029475Y014488D01*
X029648Y014315D01*
X029815Y014315D01*
X030170Y014315D01*
X030317Y014315D01*
X030531Y014530D01*
X030558Y014530D01*
X030558Y014905D01*
X030558Y014905D01*
X030558Y014530D01*
X030585Y014530D01*
X030657Y014458D01*
X030657Y014291D01*
X030829Y014118D01*
X031074Y014118D01*
X031247Y014291D01*
X031247Y014536D01*
X031120Y014663D01*
X031120Y014823D01*
X031340Y015043D01*
X031444Y015147D01*
X031444Y015639D01*
X031444Y015786D01*
X031340Y015890D01*
X040877Y015890D01*
X040877Y015866D01*
X041050Y015693D01*
X041295Y015693D01*
X041468Y015866D01*
X041468Y016110D01*
X041295Y016283D01*
X041050Y016283D01*
X041011Y016244D01*
X031168Y016244D01*
X031168Y016756D01*
X032089Y016756D01*
X032207Y016638D01*
X032452Y016638D01*
X032625Y016811D01*
X032625Y017055D01*
X032452Y017228D01*
X032231Y017228D01*
X032231Y017386D01*
X041578Y017386D01*
X041696Y017268D01*
X041940Y017268D01*
X042113Y017441D01*
X042113Y017608D01*
X042206Y017701D01*
X045957Y017701D01*
X046823Y016834D01*
X046970Y016834D01*
X047152Y016834D01*
X047152Y016746D01*
X047161Y016736D01*
X046763Y016736D01*
X046665Y016834D01*
X046420Y016834D01*
X046247Y016661D01*
X046247Y016417D01*
X046420Y016244D01*
X046665Y016244D01*
X046763Y016342D01*
X047093Y016342D01*
X047093Y015949D01*
X046697Y015949D01*
X046582Y015833D01*
X044827Y014079D01*
X044766Y014079D01*
X044594Y013906D01*
X044594Y013661D01*
X044766Y013488D01*
X045011Y013488D01*
X045184Y013661D01*
X045184Y013879D01*
X046860Y015555D01*
X047406Y015555D01*
X047569Y015555D01*
X047608Y015594D01*
X047706Y015692D01*
X047773Y015692D01*
X047842Y015761D01*
X047910Y015692D01*
X048521Y015692D01*
X048531Y015702D01*
X048560Y015672D01*
X048668Y015672D01*
X048668Y015456D01*
X048428Y015456D01*
X048416Y015444D01*
X048363Y015497D01*
X047871Y015497D01*
X047801Y015427D01*
X047801Y015408D01*
X047793Y015439D01*
X047772Y015475D01*
X047742Y015505D01*
X047706Y015526D01*
X047666Y015537D01*
X047487Y015537D01*
X047487Y015201D01*
X047408Y015201D01*
X047408Y015122D01*
X047092Y015122D01*
X047092Y014924D01*
X047103Y014883D01*
X047124Y014847D01*
X047153Y014817D01*
X047190Y014796D01*
X047229Y014786D01*
X047214Y014772D01*
X047193Y014735D01*
X047183Y014695D01*
X047183Y014506D01*
X047473Y014506D01*
X047473Y014478D01*
X047183Y014478D01*
X047183Y014289D01*
X047193Y014248D01*
X047214Y014212D01*
X047223Y014204D01*
X047223Y013788D01*
X047292Y013718D01*
X047682Y013718D01*
X047742Y013778D01*
X047742Y013608D01*
X047959Y013608D01*
X047959Y013607D01*
X047742Y013607D01*
X047742Y013359D01*
X047749Y013331D01*
X047228Y013331D01*
X047227Y013331D01*
X042688Y013331D01*
X042570Y013449D01*
X042326Y013449D01*
X042153Y013276D01*
X042153Y013055D01*
X042058Y013055D01*
X041940Y013173D01*
X041696Y013173D01*
X041523Y013000D01*
X041523Y012755D01*
X041538Y012740D01*
X031705Y012740D01*
X031601Y012636D01*
X031193Y012228D01*
X029500Y012228D01*
X029397Y012124D01*
X029343Y012071D01*
X029176Y012071D01*
X029003Y011898D01*
X029003Y011865D01*
X028845Y012023D01*
X028719Y012149D01*
X028404Y012149D01*
X028097Y012456D01*
X027971Y012582D01*
X024664Y012582D01*
X024633Y012613D01*
X024506Y012740D01*
X023876Y012740D01*
X023697Y012740D01*
X023303Y012346D01*
X021406Y012346D01*
X021406Y012484D01*
X020401Y012484D01*
X020401Y012563D01*
X021406Y012563D01*
X021406Y012741D01*
X021395Y012782D01*
X021374Y012818D01*
X021345Y012848D01*
X021308Y012869D01*
X021268Y012879D01*
X020401Y012879D01*
X020401Y012563D01*
X020322Y012563D01*
X020322Y012879D01*
X019454Y012879D01*
X019414Y012869D01*
X019378Y012848D01*
X019348Y012818D01*
X019327Y012782D01*
X019316Y012741D01*
X019316Y012563D01*
X020322Y012563D01*
X020322Y012484D01*
X019316Y012484D01*
X019316Y012425D01*
X019215Y012425D01*
X019042Y012252D01*
X019042Y012007D01*
X019215Y011834D01*
X019356Y011834D01*
X019356Y011490D01*
X019426Y011420D01*
X021168Y011420D01*
X021168Y011363D01*
X021080Y011363D01*
X021010Y011293D01*
X021010Y010762D01*
X021080Y010692D01*
X021090Y010692D01*
X021090Y010654D01*
X021040Y010654D01*
X020971Y010585D01*
X020971Y010092D01*
X021040Y010023D01*
X021059Y010023D01*
X021028Y010014D01*
X020992Y009993D01*
X020962Y009964D01*
X020941Y009927D01*
X020931Y009887D01*
X020931Y009709D01*
X021266Y009709D01*
X021266Y009630D01*
X020931Y009630D01*
X020931Y009512D01*
X020205Y009512D01*
X020205Y010270D01*
X020135Y010339D01*
X019406Y010339D01*
X019337Y010270D01*
X019337Y009108D01*
X019406Y009038D01*
X020066Y009038D01*
X020066Y008858D01*
X020147Y008777D01*
X020085Y008714D01*
X020085Y008651D01*
X020011Y008724D01*
X019766Y008724D01*
X019594Y008551D01*
X019594Y008307D01*
X019766Y008134D01*
X020011Y008134D01*
X020090Y008212D01*
X020094Y008212D01*
X020154Y008152D01*
X020804Y008152D01*
X020874Y008222D01*
X020874Y008626D01*
X020951Y008626D01*
X020951Y008596D01*
X021021Y008526D01*
X021670Y008526D01*
X021740Y008596D01*
X021740Y008626D01*
X021888Y008626D01*
X021995Y008733D01*
X021995Y008700D01*
X022168Y008527D01*
X022413Y008527D01*
X022491Y008606D01*
X022585Y008606D01*
X022585Y008596D01*
X022654Y008526D01*
X022664Y008526D01*
X022664Y008479D01*
X022664Y008300D01*
X022998Y007966D01*
X022998Y007691D01*
X023068Y007621D01*
X023673Y007621D01*
X023557Y007505D01*
X023068Y007505D01*
X022998Y007435D01*
X022998Y007228D01*
X022128Y007228D01*
X021577Y007778D01*
X021670Y007778D01*
X021740Y007848D01*
X021740Y008340D01*
X021670Y008410D01*
X021021Y008410D01*
X020951Y008340D01*
X020951Y007858D01*
X020159Y007858D01*
X020012Y007858D01*
X019855Y007701D01*
X015474Y007701D01*
X015327Y007701D01*
X013319Y005693D01*
X013002Y005693D01*
X012855Y005693D01*
X012341Y005179D01*
X011999Y005179D01*
X011753Y004933D01*
X011753Y004586D01*
X011999Y004341D01*
X012346Y004341D01*
X012546Y004541D01*
X012546Y004135D01*
X012650Y004031D01*
X012753Y003928D01*
X012753Y003586D01*
X012950Y003390D01*
X012451Y003390D01*
X012631Y003570D01*
X012631Y003719D01*
X012213Y003719D01*
X012213Y003801D01*
X012131Y003801D01*
X012131Y004219D01*
X011982Y004219D01*
X011713Y003950D01*
X011713Y003801D01*
X012131Y003801D01*
X012131Y003719D01*
X011713Y003719D01*
X011713Y003570D01*
X011893Y003390D01*
X011793Y003390D01*
X011591Y003591D01*
X011591Y003933D01*
X011346Y004179D01*
X010999Y004179D01*
X010893Y004073D01*
X010893Y004230D01*
X011004Y004341D01*
X011346Y004341D01*
X011591Y004586D01*
X011591Y004933D01*
X011346Y005179D01*
X010999Y005179D01*
X010753Y004933D01*
X010753Y004591D01*
X010538Y004376D01*
X010538Y004230D01*
X010538Y003986D01*
X010346Y004179D01*
X009999Y004179D01*
X009753Y003933D01*
X009753Y003586D01*
X009999Y003341D01*
X010285Y003341D01*
X010916Y002709D01*
X011043Y002583D01*
X017083Y002583D01*
X017262Y002583D01*
X018032Y003353D01*
X018032Y003488D01*
X019727Y003488D01*
X019766Y003449D01*
X020011Y003449D01*
X020184Y003622D01*
X020184Y003866D01*
X020011Y004039D01*
X019766Y004039D01*
X019648Y003921D01*
X018554Y003921D01*
X018555Y003923D01*
X018555Y004395D01*
X018671Y004512D01*
X021105Y004512D01*
X021223Y004394D01*
X021457Y004394D01*
X021422Y004384D01*
X021386Y004363D01*
X021356Y004334D01*
X021335Y004297D01*
X021327Y004266D01*
X021327Y004285D01*
X021257Y004355D01*
X020765Y004355D01*
X020695Y004285D01*
X020695Y003754D01*
X020765Y003684D01*
X020794Y003684D01*
X020794Y003665D01*
X020577Y003665D01*
X020381Y003665D01*
X019811Y003095D01*
X019811Y003203D01*
X019741Y003272D01*
X018698Y003272D01*
X018628Y003203D01*
X018628Y002159D01*
X018698Y002089D01*
X019741Y002089D01*
X019811Y002159D01*
X019811Y002445D01*
X019829Y002445D01*
X019968Y002583D01*
X020360Y002976D01*
X020360Y002159D01*
X020430Y002089D01*
X021474Y002089D01*
X021543Y002159D01*
X021543Y002445D01*
X022900Y002445D01*
X023038Y002583D01*
X024672Y004216D01*
X025735Y004216D01*
X025873Y004355D01*
X026089Y004571D01*
X026999Y004571D01*
X026888Y004461D01*
X026209Y004009D01*
X024777Y003183D01*
X023280Y002482D01*
X021729Y001913D01*
X020134Y001479D01*
X018508Y001184D01*
X016862Y001029D01*
X015209Y001016D01*
X013562Y001145D01*
X012677Y001291D01*
X012870Y001291D01*
X013134Y001419D01*
X013316Y001647D01*
X013316Y001647D01*
X013381Y001933D01*
X013316Y002218D01*
X013316Y002218D01*
X013134Y002447D01*
X012870Y002574D01*
X012577Y002574D01*
X012313Y002447D01*
X012131Y002218D01*
X012066Y001933D01*
X012131Y001647D01*
X012313Y001419D01*
X012525Y001317D01*
X011931Y001415D01*
X010330Y001824D01*
X008769Y002368D01*
X007261Y003045D01*
X006702Y003340D01*
X006759Y003311D02*
X007363Y003311D01*
X007351Y003324D02*
X007733Y002899D01*
X007831Y002894D01*
X007911Y002966D01*
X007999Y002878D01*
X008162Y002878D01*
X008862Y002878D01*
X009384Y002356D01*
X009384Y002218D01*
X009454Y002149D01*
X009946Y002149D01*
X010016Y002218D01*
X010016Y002750D01*
X009946Y002820D01*
X009477Y002820D01*
X009141Y003156D01*
X009025Y003271D01*
X008250Y003271D01*
X008256Y003276D01*
X008261Y003375D01*
X007879Y003799D01*
X007780Y003804D01*
X007356Y003422D01*
X007351Y003324D01*
X007362Y003427D02*
X006799Y003427D01*
X006929Y003544D02*
X007491Y003544D01*
X007621Y003661D02*
X007058Y003661D01*
X007188Y003777D02*
X007751Y003777D01*
X007899Y003777D02*
X008001Y003777D01*
X007955Y003829D02*
X008087Y003682D01*
X008337Y003907D01*
X008112Y004157D01*
X007965Y004024D01*
X007942Y003989D01*
X007929Y003949D01*
X007927Y003907D01*
X007936Y003866D01*
X007955Y003829D01*
X007930Y003894D02*
X007317Y003894D01*
X007447Y004011D02*
X007956Y004011D01*
X008080Y004127D02*
X007577Y004127D01*
X007706Y004244D02*
X008209Y004244D01*
X008200Y004236D02*
X008425Y003986D01*
X008675Y004211D01*
X008542Y004358D01*
X008507Y004381D01*
X008467Y004394D01*
X008425Y004396D01*
X008384Y004387D01*
X008347Y004368D01*
X008200Y004236D01*
X008139Y004127D02*
X008297Y004127D01*
X008244Y004011D02*
X008402Y004011D01*
X008425Y003986D02*
X008337Y003907D01*
X008416Y003819D01*
X008166Y003594D01*
X008299Y003447D01*
X008334Y003424D01*
X008374Y003411D01*
X008416Y003409D01*
X008456Y003418D01*
X008494Y003437D01*
X008641Y003569D01*
X008416Y003819D01*
X008504Y003898D01*
X008729Y003648D01*
X008876Y003781D01*
X008899Y003816D01*
X008912Y003856D01*
X008914Y003898D01*
X008905Y003938D01*
X008886Y003976D01*
X008754Y004123D01*
X008504Y003898D01*
X008425Y003986D01*
X008452Y004011D02*
X008629Y004011D01*
X008582Y004127D02*
X009947Y004127D01*
X009831Y004011D02*
X008855Y004011D01*
X008914Y003894D02*
X009753Y003894D01*
X009753Y003777D02*
X008872Y003777D01*
X008743Y003661D02*
X009753Y003661D01*
X009795Y003544D02*
X008613Y003544D01*
X008559Y003661D02*
X008717Y003661D01*
X008612Y003777D02*
X008454Y003777D01*
X008370Y003777D02*
X008193Y003777D01*
X008240Y003661D02*
X008004Y003661D01*
X008109Y003544D02*
X008211Y003544D01*
X008214Y003427D02*
X008329Y003427D01*
X008258Y003311D02*
X010315Y003311D01*
X010432Y003194D02*
X009103Y003194D01*
X009219Y003077D02*
X010548Y003077D01*
X010665Y002961D02*
X009336Y002961D01*
X009453Y002844D02*
X010782Y002844D01*
X010685Y002750D02*
X010615Y002820D01*
X010123Y002820D01*
X010053Y002750D01*
X010053Y002218D01*
X010123Y002149D01*
X010615Y002149D01*
X010685Y002218D01*
X010685Y002307D01*
X010775Y002307D01*
X010775Y002165D01*
X010948Y001992D01*
X011192Y001992D01*
X011365Y002165D01*
X011365Y002410D01*
X011192Y002582D01*
X011025Y002582D01*
X010946Y002661D01*
X010800Y002661D01*
X010685Y002661D01*
X010685Y002750D01*
X010685Y002727D02*
X010898Y002727D01*
X010997Y002611D02*
X011015Y002611D01*
X011281Y002494D02*
X012411Y002494D01*
X012313Y002447D02*
X012313Y002447D01*
X012313Y002447D01*
X012258Y002378D02*
X011365Y002378D01*
X011365Y002261D02*
X012165Y002261D01*
X012131Y002218D02*
X012131Y002218D01*
X012114Y002144D02*
X011344Y002144D01*
X011228Y002028D02*
X012087Y002028D01*
X012066Y001933D02*
X012066Y001933D01*
X012071Y001911D02*
X010080Y001911D01*
X009746Y002028D02*
X010912Y002028D01*
X010795Y002144D02*
X009412Y002144D01*
X009384Y002261D02*
X009077Y002261D01*
X009246Y002494D02*
X008489Y002494D01*
X008749Y002378D02*
X009363Y002378D01*
X009534Y002484D02*
X008944Y003075D01*
X008081Y003075D01*
X007806Y003349D01*
X007573Y003077D02*
X007200Y003077D01*
X006979Y003194D02*
X007468Y003194D01*
X007449Y002961D02*
X007678Y002961D01*
X007709Y002844D02*
X008896Y002844D01*
X009013Y002727D02*
X007969Y002727D01*
X007916Y002961D02*
X007905Y002961D01*
X008229Y002611D02*
X009129Y002611D01*
X009534Y002484D02*
X009692Y002484D01*
X010016Y002494D02*
X010053Y002494D01*
X010053Y002378D02*
X010016Y002378D01*
X010016Y002261D02*
X010053Y002261D01*
X010053Y002611D02*
X010016Y002611D01*
X010016Y002727D02*
X010053Y002727D01*
X010685Y002261D02*
X010775Y002261D01*
X010445Y001794D02*
X012097Y001794D01*
X012124Y001678D02*
X010902Y001678D01*
X011359Y001561D02*
X012200Y001561D01*
X012131Y001647D02*
X012131Y001647D01*
X012293Y001444D02*
X011816Y001444D01*
X012313Y001419D02*
X012313Y001419D01*
X012459Y001328D02*
X012502Y001328D01*
X012870Y001291D02*
X012870Y001291D01*
X012945Y001328D02*
X019298Y001328D01*
X018656Y001211D02*
X013164Y001211D01*
X013134Y001419D02*
X013134Y001419D01*
X013134Y001419D01*
X013154Y001444D02*
X019940Y001444D01*
X020433Y001561D02*
X013247Y001561D01*
X013323Y001678D02*
X020862Y001678D01*
X021291Y001794D02*
X013350Y001794D01*
X013376Y001911D02*
X021720Y001911D01*
X021528Y002144D02*
X022358Y002144D01*
X022040Y002028D02*
X013360Y002028D01*
X013381Y001933D02*
X013381Y001933D01*
X013333Y002144D02*
X018643Y002144D01*
X018628Y002261D02*
X013282Y002261D01*
X013189Y002378D02*
X018628Y002378D01*
X018628Y002494D02*
X013036Y002494D01*
X012912Y003427D02*
X012489Y003427D01*
X012606Y003544D02*
X012795Y003544D01*
X012753Y003661D02*
X012631Y003661D01*
X012631Y003801D02*
X012631Y003950D01*
X012362Y004219D01*
X012213Y004219D01*
X012213Y003801D01*
X012631Y003801D01*
X012631Y003894D02*
X012753Y003894D01*
X012753Y003777D02*
X012213Y003777D01*
X012131Y003777D02*
X011591Y003777D01*
X011591Y003661D02*
X011713Y003661D01*
X011739Y003544D02*
X011638Y003544D01*
X011755Y003427D02*
X011855Y003427D01*
X011713Y003894D02*
X011591Y003894D01*
X011514Y004011D02*
X011774Y004011D01*
X011891Y004127D02*
X011397Y004127D01*
X011366Y004361D02*
X011979Y004361D01*
X011862Y004477D02*
X011482Y004477D01*
X011591Y004594D02*
X011753Y004594D01*
X011753Y004711D02*
X011591Y004711D01*
X011591Y004827D02*
X011753Y004827D01*
X011764Y004944D02*
X011581Y004944D01*
X011464Y005061D02*
X011881Y005061D01*
X011997Y005177D02*
X011347Y005177D01*
X010997Y005177D02*
X010347Y005177D01*
X010346Y005179D02*
X009999Y005179D01*
X009753Y004933D01*
X009753Y004586D01*
X009999Y004341D01*
X010346Y004341D01*
X010591Y004586D01*
X010591Y004933D01*
X010346Y005179D01*
X010464Y005061D02*
X010881Y005061D01*
X010764Y004944D02*
X010581Y004944D01*
X010591Y004827D02*
X010753Y004827D01*
X010753Y004711D02*
X010591Y004711D01*
X010591Y004594D02*
X010753Y004594D01*
X010639Y004477D02*
X010482Y004477D01*
X010538Y004361D02*
X010366Y004361D01*
X010538Y004244D02*
X008645Y004244D01*
X008538Y004361D02*
X009979Y004361D01*
X009862Y004477D02*
X007966Y004477D01*
X008095Y004594D02*
X009753Y004594D01*
X009753Y004711D02*
X008225Y004711D01*
X008354Y004827D02*
X009753Y004827D01*
X009764Y004944D02*
X008484Y004944D01*
X008614Y005061D02*
X009881Y005061D01*
X009997Y005177D02*
X008743Y005177D01*
X008873Y005294D02*
X012456Y005294D01*
X012573Y005411D02*
X009002Y005411D01*
X009132Y005527D02*
X012689Y005527D01*
X012806Y005644D02*
X009262Y005644D01*
X009391Y005760D02*
X013387Y005760D01*
X013504Y005877D02*
X009521Y005877D01*
X009651Y005994D02*
X013620Y005994D01*
X013737Y006110D02*
X009780Y006110D01*
X009910Y006227D02*
X013854Y006227D01*
X013970Y006344D02*
X010039Y006344D01*
X010169Y006460D02*
X014087Y006460D01*
X014204Y006577D02*
X010299Y006577D01*
X010428Y006694D02*
X011092Y006694D01*
X012380Y006694D02*
X014320Y006694D01*
X014437Y006810D02*
X013123Y006810D01*
X013503Y006886D02*
X013503Y006886D01*
X013621Y006927D02*
X014554Y006927D01*
X014670Y007044D02*
X013956Y007044D01*
X014291Y007160D02*
X014787Y007160D01*
X014904Y007277D02*
X014544Y007277D01*
X014369Y007187D02*
X014369Y007187D01*
X014772Y007394D02*
X015020Y007394D01*
X015000Y007510D02*
X015137Y007510D01*
X015185Y007605D02*
X015185Y007605D01*
X015217Y007627D02*
X015254Y007627D01*
X015383Y007744D02*
X019898Y007744D01*
X020088Y008210D02*
X020097Y008210D01*
X019690Y008210D02*
X016022Y008210D01*
X015936Y008130D02*
X015936Y008130D01*
X015883Y008094D02*
X020951Y008094D01*
X020951Y008210D02*
X020862Y008210D01*
X020874Y008327D02*
X020951Y008327D01*
X020874Y008444D02*
X021966Y008444D01*
X022011Y008488D02*
X021838Y008315D01*
X021838Y008070D01*
X021916Y007992D01*
X021916Y007867D01*
X022043Y007740D01*
X022043Y007740D01*
X022132Y007651D01*
X022132Y007317D01*
X022202Y007247D01*
X022851Y007247D01*
X022921Y007317D01*
X022921Y007809D01*
X022851Y007879D01*
X022517Y007879D01*
X022377Y008019D01*
X022428Y008070D01*
X022428Y008315D01*
X022255Y008488D01*
X022011Y008488D01*
X022135Y008560D02*
X021704Y008560D01*
X021740Y008327D02*
X021849Y008327D01*
X021838Y008210D02*
X021740Y008210D01*
X021740Y008094D02*
X021838Y008094D01*
X021916Y007977D02*
X021740Y007977D01*
X021740Y007860D02*
X021923Y007860D01*
X022040Y007744D02*
X021612Y007744D01*
X021729Y007627D02*
X022132Y007627D01*
X022132Y007510D02*
X021845Y007510D01*
X021962Y007394D02*
X022132Y007394D01*
X022172Y007277D02*
X022079Y007277D01*
X022882Y007277D02*
X022998Y007277D01*
X022998Y007394D02*
X022921Y007394D01*
X022921Y007510D02*
X023562Y007510D01*
X023062Y007627D02*
X022921Y007627D01*
X022921Y007744D02*
X022998Y007744D01*
X022998Y007860D02*
X022870Y007860D01*
X022987Y007977D02*
X022419Y007977D01*
X022428Y008094D02*
X022871Y008094D01*
X022754Y008210D02*
X022428Y008210D01*
X022416Y008327D02*
X022664Y008327D01*
X022664Y008444D02*
X022300Y008444D01*
X022445Y008560D02*
X022621Y008560D01*
X022019Y008677D02*
X021939Y008677D01*
X020987Y008560D02*
X020874Y008560D01*
X020130Y008793D02*
X018958Y008793D01*
X018909Y008842D02*
X018905Y008842D01*
X018905Y009038D01*
X019033Y009038D01*
X019102Y009108D01*
X019102Y010270D01*
X019033Y010339D01*
X018304Y010339D01*
X018234Y010270D01*
X018234Y009108D01*
X018304Y009038D01*
X018432Y009038D01*
X018432Y008645D01*
X018432Y008449D01*
X018570Y008311D01*
X018605Y008311D01*
X018664Y008252D01*
X018909Y008252D01*
X019082Y008425D01*
X019082Y008669D01*
X018909Y008842D01*
X018905Y008910D02*
X020066Y008910D01*
X020066Y009027D02*
X018905Y009027D01*
X019102Y009143D02*
X019337Y009143D01*
X019337Y009260D02*
X019102Y009260D01*
X019102Y009377D02*
X019337Y009377D01*
X019337Y009493D02*
X019102Y009493D01*
X019102Y009610D02*
X019337Y009610D01*
X019337Y009727D02*
X019102Y009727D01*
X019102Y009843D02*
X019337Y009843D01*
X019337Y009960D02*
X019102Y009960D01*
X019102Y010077D02*
X019337Y010077D01*
X019337Y010193D02*
X019102Y010193D01*
X019062Y010310D02*
X019377Y010310D01*
X018708Y010543D02*
X020971Y010543D01*
X020971Y010427D02*
X018676Y010427D01*
X018708Y010660D02*
X021090Y010660D01*
X021010Y010777D02*
X018708Y010777D01*
X018708Y010893D02*
X021010Y010893D01*
X021010Y011010D02*
X018708Y011010D01*
X018708Y011127D02*
X021010Y011127D01*
X021010Y011243D02*
X018628Y011243D01*
X019370Y011476D02*
X017239Y011476D01*
X017239Y011360D02*
X021077Y011360D01*
X021642Y011244D02*
X021679Y011244D01*
X021679Y010762D01*
X021749Y010692D01*
X021914Y010692D01*
X021899Y010677D01*
X021878Y010641D01*
X021868Y010601D01*
X021868Y010411D01*
X022158Y010411D01*
X022158Y010384D01*
X021868Y010384D01*
X021868Y010194D01*
X021878Y010154D01*
X021899Y010118D01*
X021908Y010109D01*
X021908Y010006D01*
X021897Y009980D01*
X021897Y009877D01*
X021846Y009827D01*
X021735Y009827D01*
X021682Y009773D01*
X021682Y009887D01*
X021671Y009927D01*
X021650Y009964D01*
X021620Y009993D01*
X021584Y010014D01*
X021553Y010023D01*
X021572Y010023D01*
X021642Y010092D01*
X021642Y010585D01*
X021572Y010654D01*
X021523Y010654D01*
X021523Y010692D01*
X021572Y010692D01*
X021642Y010762D01*
X021642Y011244D01*
X021642Y011243D02*
X021679Y011243D01*
X021679Y011127D02*
X021642Y011127D01*
X021642Y011010D02*
X021679Y011010D01*
X021679Y010893D02*
X021642Y010893D01*
X021642Y010777D02*
X021679Y010777D01*
X021523Y010660D02*
X021889Y010660D01*
X021868Y010543D02*
X021642Y010543D01*
X021642Y010427D02*
X021868Y010427D01*
X021868Y010310D02*
X021642Y010310D01*
X021642Y010193D02*
X021868Y010193D01*
X021908Y010077D02*
X021626Y010077D01*
X021652Y009960D02*
X021897Y009960D01*
X021863Y009843D02*
X021682Y009843D01*
X021617Y009709D02*
X021562Y009654D01*
X021562Y009630D01*
X021346Y009630D01*
X021346Y009709D01*
X021617Y009709D01*
X021306Y009669D02*
X021247Y009669D01*
X021188Y009728D01*
X020931Y009727D02*
X020205Y009727D01*
X020205Y009843D02*
X020931Y009843D01*
X020960Y009960D02*
X020205Y009960D01*
X020205Y010077D02*
X020986Y010077D01*
X020971Y010193D02*
X020205Y010193D01*
X020164Y010310D02*
X020971Y010310D01*
X022158Y010411D02*
X022158Y010692D01*
X022186Y010692D01*
X022186Y010411D01*
X022477Y010411D01*
X022477Y010601D01*
X022466Y010641D01*
X022445Y010677D01*
X022430Y010693D01*
X022616Y010693D01*
X022743Y010820D01*
X022761Y010838D01*
X022761Y010811D01*
X023176Y010811D01*
X023176Y010693D01*
X022761Y010693D01*
X022761Y010475D01*
X022772Y010434D01*
X022793Y010398D01*
X022823Y010369D01*
X022859Y010348D01*
X022890Y010339D01*
X022871Y010339D01*
X022801Y010270D01*
X022801Y010201D01*
X022477Y010201D01*
X022477Y010384D01*
X022186Y010384D01*
X022186Y010411D01*
X022158Y010411D01*
X022158Y010427D02*
X022186Y010427D01*
X022186Y010543D02*
X022158Y010543D01*
X022158Y010660D02*
X022186Y010660D01*
X022455Y010660D02*
X022761Y010660D01*
X022761Y010543D02*
X022477Y010543D01*
X022477Y010427D02*
X022777Y010427D01*
X022842Y010310D02*
X022477Y010310D01*
X023294Y010693D02*
X023294Y010811D01*
X023673Y010811D01*
X023678Y010793D01*
X023699Y010756D01*
X023728Y010727D01*
X023764Y010706D01*
X023805Y010695D01*
X024101Y010695D01*
X024101Y010948D01*
X024102Y010948D01*
X024102Y010949D01*
X024536Y010949D01*
X024536Y011044D01*
X024672Y011181D01*
X024672Y011244D01*
X025932Y011244D01*
X025932Y011038D01*
X025930Y011038D01*
X025894Y011017D01*
X025864Y010987D01*
X025843Y010951D01*
X025832Y010911D01*
X025832Y010693D01*
X026247Y010693D01*
X026247Y010575D01*
X025832Y010575D01*
X025832Y010357D01*
X025843Y010316D01*
X025864Y010280D01*
X025894Y010251D01*
X025930Y010230D01*
X025961Y010221D01*
X025942Y010221D01*
X025872Y010151D01*
X025872Y010063D01*
X025734Y010063D01*
X025744Y010073D01*
X025744Y010644D01*
X025674Y010713D01*
X024552Y010713D01*
X024531Y010693D01*
X024168Y010693D01*
X023971Y010693D01*
X023838Y010693D01*
X023715Y010642D01*
X023709Y010636D01*
X023709Y010693D01*
X023294Y010693D01*
X023294Y010777D02*
X023687Y010777D01*
X023709Y010660D02*
X023759Y010660D01*
X024102Y010695D02*
X024102Y010948D01*
X024536Y010948D01*
X024536Y010833D01*
X024525Y010793D01*
X024504Y010756D01*
X024475Y010727D01*
X024438Y010706D01*
X024398Y010695D01*
X024102Y010695D01*
X024101Y010777D02*
X024102Y010777D01*
X024101Y010893D02*
X024102Y010893D01*
X024516Y010777D02*
X025832Y010777D01*
X025832Y010893D02*
X024536Y010893D01*
X024536Y011010D02*
X025887Y011010D01*
X025932Y011127D02*
X024618Y011127D01*
X024672Y011243D02*
X025932Y011243D01*
X025728Y010660D02*
X026247Y010660D01*
X026365Y010660D02*
X026946Y010660D01*
X026946Y010719D02*
X026946Y010529D01*
X027237Y010529D01*
X027237Y010502D01*
X026946Y010502D01*
X026946Y010313D01*
X026957Y010272D01*
X026964Y010260D01*
X026728Y010260D01*
X026748Y010280D01*
X026769Y010316D01*
X026780Y010357D01*
X026780Y010575D01*
X026365Y010575D01*
X026365Y010693D01*
X026780Y010693D01*
X026780Y010850D01*
X027060Y010850D01*
X027044Y010846D01*
X027008Y010825D01*
X026978Y010795D01*
X026957Y010759D01*
X026946Y010719D01*
X026967Y010777D02*
X026780Y010777D01*
X026780Y010543D02*
X026946Y010543D01*
X026946Y010427D02*
X026780Y010427D01*
X026766Y010310D02*
X026947Y010310D01*
X027265Y010502D02*
X027265Y010529D01*
X027556Y010529D01*
X027556Y010719D01*
X027545Y010759D01*
X027524Y010795D01*
X027494Y010825D01*
X027458Y010846D01*
X027442Y010850D01*
X028122Y010850D01*
X028436Y010537D01*
X028424Y010530D01*
X028173Y010279D01*
X028494Y009958D01*
X028411Y009874D01*
X028494Y009791D01*
X028145Y009442D01*
X028369Y009218D01*
X028405Y009197D01*
X028445Y009186D01*
X028487Y009186D01*
X028528Y009197D01*
X028564Y009218D01*
X028789Y009443D01*
X028748Y009344D01*
X028748Y009207D01*
X028801Y009081D01*
X028897Y008984D01*
X029024Y008931D01*
X029161Y008931D01*
X029288Y008984D01*
X029385Y009081D01*
X029437Y009207D01*
X029437Y009344D01*
X029385Y009471D01*
X029288Y009568D01*
X029161Y009620D01*
X029024Y009620D01*
X028925Y009579D01*
X029150Y009804D01*
X029157Y009816D01*
X029894Y009079D01*
X030041Y009079D01*
X030792Y009079D01*
X030930Y008941D01*
X029873Y008941D01*
X029775Y009039D01*
X029530Y009039D01*
X029357Y008866D01*
X029357Y008787D01*
X029224Y008921D01*
X028979Y008921D01*
X028806Y008748D01*
X028806Y008504D01*
X028924Y008385D01*
X028924Y007994D01*
X028564Y007633D01*
X028508Y007689D01*
X028871Y008052D01*
X028745Y008178D01*
X028709Y008199D01*
X028668Y008210D01*
X028648Y008210D01*
X028924Y008210D01*
X028924Y008094D02*
X028829Y008094D01*
X028796Y007977D02*
X028907Y007977D01*
X028791Y007860D02*
X028679Y007860D01*
X028674Y007744D02*
X028563Y007744D01*
X028452Y007633D02*
X028508Y007577D01*
X028145Y007214D01*
X028271Y007088D01*
X028307Y007067D01*
X028348Y007057D01*
X028368Y007057D01*
X028368Y007048D01*
X028716Y006700D01*
X028815Y006700D01*
X029441Y007326D01*
X029441Y007425D01*
X029279Y007588D01*
X029279Y008385D01*
X029397Y008504D01*
X029397Y008582D01*
X029530Y008449D01*
X029775Y008449D01*
X029873Y008547D01*
X032057Y008547D01*
X032172Y008662D01*
X033671Y010161D01*
X044668Y010161D01*
X044766Y010063D01*
X045011Y010063D01*
X045184Y010236D01*
X045184Y010480D01*
X045011Y010653D01*
X044766Y010653D01*
X044668Y010555D01*
X033671Y010555D01*
X033508Y010555D01*
X031894Y008941D01*
X031056Y008941D01*
X031668Y009553D01*
X031668Y009652D01*
X031320Y010000D01*
X031272Y010000D01*
X031272Y010049D01*
X030924Y010397D01*
X030875Y010397D01*
X030875Y010445D01*
X030628Y010693D01*
X031154Y010693D01*
X031483Y010363D01*
X031483Y010196D01*
X031656Y010023D01*
X031901Y010023D01*
X032074Y010196D01*
X032074Y010441D01*
X031901Y010614D01*
X031734Y010614D01*
X031301Y011047D01*
X031154Y011047D01*
X030215Y011047D01*
X030254Y011086D01*
X032050Y011086D01*
X032129Y011008D01*
X032373Y011008D01*
X032452Y011086D01*
X036971Y011086D01*
X037050Y011008D01*
X037295Y011008D01*
X037468Y011181D01*
X037468Y011425D01*
X037295Y011598D01*
X037050Y011598D01*
X036971Y011519D01*
X032452Y011519D01*
X032373Y011598D01*
X032129Y011598D01*
X032050Y011519D01*
X030316Y011519D01*
X030356Y011559D01*
X031498Y011559D01*
X031601Y011663D01*
X031970Y012031D01*
X034515Y012031D01*
X034515Y011811D01*
X034688Y011638D01*
X034932Y011638D01*
X035105Y011811D01*
X035105Y011874D01*
X042689Y011874D01*
X042836Y011874D01*
X042994Y012031D01*
X046902Y012031D01*
X046916Y012017D01*
X047020Y011913D01*
X047782Y011913D01*
X047782Y011859D01*
X047761Y011880D01*
X047371Y011880D01*
X047301Y011810D01*
X047301Y011775D01*
X046763Y011775D01*
X046665Y011874D01*
X046420Y011874D01*
X046247Y011701D01*
X046247Y011456D01*
X046420Y011283D01*
X046665Y011283D01*
X046763Y011382D01*
X047291Y011382D01*
X047272Y011350D01*
X047261Y011309D01*
X047261Y011120D01*
X047552Y011120D01*
X047552Y011092D01*
X047261Y011092D01*
X047261Y010954D01*
X047247Y010946D01*
X047217Y010916D01*
X047196Y010880D01*
X047185Y010840D01*
X047185Y010687D01*
X047513Y010687D01*
X047513Y010659D01*
X047185Y010659D01*
X047185Y010506D01*
X047196Y010466D01*
X047217Y010430D01*
X047247Y010400D01*
X047250Y010398D01*
X047250Y009856D01*
X047299Y009807D01*
X047250Y009758D01*
X047250Y009187D01*
X047320Y009117D01*
X047970Y009117D01*
X048039Y009187D01*
X048039Y009360D01*
X048116Y009437D01*
X048116Y009187D01*
X048186Y009117D01*
X048836Y009117D01*
X048905Y009187D01*
X048905Y009758D01*
X048856Y009807D01*
X048905Y009856D01*
X048905Y010332D01*
X048992Y010332D01*
X049033Y010343D01*
X049069Y010364D01*
X049099Y010393D01*
X049120Y010430D01*
X049131Y010470D01*
X049131Y010529D01*
X049132Y010529D01*
X049284Y010529D01*
X049284Y010856D01*
X049312Y010856D01*
X049312Y010529D01*
X049465Y010529D01*
X049466Y010529D01*
X049466Y010451D01*
X049757Y010451D01*
X049757Y010423D01*
X049784Y010423D01*
X049784Y010096D01*
X049937Y010096D01*
X049978Y010107D01*
X050014Y010127D01*
X050044Y010157D01*
X050065Y010193D01*
X050283Y010193D01*
X050283Y010077D02*
X048905Y010077D01*
X048905Y010193D02*
X049477Y010193D01*
X049498Y010157D01*
X049527Y010127D01*
X049564Y010107D01*
X049604Y010096D01*
X049757Y010096D01*
X049757Y010423D01*
X049466Y010423D01*
X049466Y010234D01*
X049477Y010193D01*
X049466Y010310D02*
X048905Y010310D01*
X049118Y010427D02*
X049757Y010427D01*
X049785Y010427D02*
X050283Y010427D01*
X050283Y010543D02*
X050075Y010543D01*
X050075Y010451D02*
X050075Y010640D01*
X050065Y010680D01*
X050044Y010717D01*
X050035Y010725D01*
X050035Y011141D01*
X050034Y011142D01*
X050067Y011175D01*
X050067Y011549D01*
X049998Y011618D01*
X050067Y011687D01*
X050067Y012061D01*
X050057Y012071D01*
X050067Y012080D01*
X050067Y012455D01*
X049998Y012523D01*
X050067Y012592D01*
X050067Y012966D01*
X050057Y012976D01*
X050067Y012986D01*
X050067Y013360D01*
X049998Y013429D01*
X050067Y013498D01*
X050067Y013834D01*
X050123Y013834D01*
X050149Y013823D01*
X050259Y013823D01*
X050283Y013823D01*
X050283Y006900D01*
X049181Y006119D01*
X047715Y005260D01*
X046181Y004531D01*
X044590Y003937D01*
X042954Y003482D01*
X042502Y003398D01*
X042587Y003483D01*
X042661Y003662D01*
X042661Y003857D01*
X042587Y004037D01*
X042449Y004174D01*
X042270Y004249D01*
X042075Y004249D01*
X041895Y004174D01*
X041758Y004037D01*
X041683Y003857D01*
X041683Y003662D01*
X041758Y003483D01*
X041895Y003345D01*
X041996Y003304D01*
X041284Y003171D01*
X039594Y003004D01*
X038797Y002978D01*
X038795Y002979D01*
X038741Y002976D01*
X038688Y002976D01*
X038687Y002974D01*
X037831Y002936D01*
X036015Y002955D01*
X034205Y003108D01*
X034205Y003108D01*
X032412Y003394D01*
X030644Y003810D01*
X028912Y004355D01*
X028339Y004571D01*
X029160Y004571D01*
X029298Y004709D01*
X029357Y004768D01*
X029394Y004768D01*
X029371Y004711D01*
X029371Y004586D01*
X029419Y004470D01*
X029507Y004381D01*
X029623Y004334D01*
X029748Y004334D01*
X029864Y004381D01*
X029953Y004470D01*
X030001Y004586D01*
X030001Y004610D01*
X030105Y004610D01*
X030657Y004610D01*
X030853Y004610D01*
X031021Y004779D01*
X031376Y004684D01*
X031462Y004733D01*
X031639Y005394D01*
X031839Y005594D01*
X031976Y005594D01*
X031726Y004662D01*
X031776Y004577D01*
X032327Y004429D01*
X032413Y004478D01*
X032693Y005524D01*
X032652Y005594D01*
X032975Y005594D01*
X033034Y005535D01*
X033279Y005535D01*
X033452Y005708D01*
X033452Y005953D01*
X033397Y006008D01*
X034294Y006008D01*
X034373Y005929D01*
X034617Y005929D01*
X034790Y006102D01*
X034790Y006347D01*
X034617Y006519D01*
X034373Y006519D01*
X034294Y006441D01*
X032646Y006441D01*
X032646Y006451D01*
X032576Y006520D01*
X031926Y006520D01*
X031856Y006451D01*
X031856Y006421D01*
X031779Y006421D01*
X031779Y006825D01*
X031710Y006894D01*
X031060Y006894D01*
X031059Y006894D01*
X029755Y006894D01*
X029736Y006913D01*
X029491Y006913D01*
X029318Y006740D01*
X029318Y006496D01*
X029491Y006323D01*
X029524Y006323D01*
X029142Y005941D01*
X029142Y005968D01*
X028728Y005968D01*
X028728Y006086D01*
X029142Y006086D01*
X029142Y006304D01*
X029131Y006345D01*
X029111Y006381D01*
X029081Y006411D01*
X029045Y006431D01*
X029004Y006442D01*
X028727Y006442D01*
X028727Y006087D01*
X028609Y006087D01*
X028609Y006442D01*
X028332Y006442D01*
X028292Y006431D01*
X028256Y006411D01*
X028226Y006381D01*
X028205Y006345D01*
X028194Y006304D01*
X028194Y006086D01*
X028609Y006086D01*
X028609Y005968D01*
X028194Y005968D01*
X028194Y005751D01*
X028205Y005710D01*
X028226Y005674D01*
X028256Y005644D01*
X028292Y005623D01*
X028323Y005615D01*
X028304Y005615D01*
X028242Y005553D01*
X028200Y005594D01*
X027955Y005594D01*
X027864Y005503D01*
X027864Y005629D01*
X027853Y005669D01*
X027832Y005706D01*
X027802Y005735D01*
X027766Y005756D01*
X027726Y005767D01*
X027645Y005767D01*
X027645Y005434D01*
X027644Y005434D01*
X027644Y005767D01*
X027564Y005767D01*
X027523Y005756D01*
X027487Y005735D01*
X027479Y005727D01*
X027447Y005727D01*
X027586Y005866D01*
X027586Y006110D01*
X027413Y006283D01*
X027168Y006283D01*
X026995Y006110D01*
X026995Y005866D01*
X027074Y005787D01*
X027074Y005727D01*
X026967Y005727D01*
X026748Y005727D01*
X026678Y005657D01*
X026678Y005588D01*
X026675Y005584D01*
X026665Y005594D01*
X026455Y005594D01*
X026465Y005632D01*
X026465Y005850D01*
X026050Y005850D01*
X026050Y005494D01*
X026320Y005494D01*
X026247Y005421D01*
X026247Y005177D01*
X025617Y005177D01*
X025617Y005205D02*
X025444Y005378D01*
X025587Y005521D01*
X025615Y005505D01*
X025655Y005494D01*
X025932Y005494D01*
X025932Y005850D01*
X026050Y005850D01*
X026050Y005968D01*
X026465Y005968D01*
X026465Y006126D01*
X026537Y006126D01*
X026891Y006480D01*
X026981Y006480D01*
X027128Y006480D01*
X027428Y006781D01*
X027428Y006800D01*
X027535Y006800D01*
X027754Y006800D01*
X027824Y006870D01*
X027824Y007318D01*
X027822Y007320D01*
X027822Y007594D01*
X027923Y007493D01*
X027931Y007493D01*
X027931Y007473D01*
X027942Y007433D01*
X027963Y007396D01*
X028089Y007270D01*
X028452Y007633D01*
X028446Y007627D02*
X028458Y007627D01*
X028441Y007510D02*
X028329Y007510D01*
X028324Y007394D02*
X028213Y007394D01*
X028208Y007277D02*
X028096Y007277D01*
X028083Y007277D02*
X027824Y007277D01*
X027822Y007394D02*
X027966Y007394D01*
X027906Y007510D02*
X027822Y007510D01*
X027824Y007160D02*
X028199Y007160D01*
X028372Y007044D02*
X027824Y007044D01*
X027824Y006927D02*
X028489Y006927D01*
X028606Y006810D02*
X027764Y006810D01*
X027341Y006694D02*
X029318Y006694D01*
X029318Y006577D02*
X027224Y006577D01*
X027112Y006227D02*
X026638Y006227D01*
X026755Y006344D02*
X028205Y006344D01*
X028194Y006227D02*
X027469Y006227D01*
X027586Y006110D02*
X028194Y006110D01*
X028194Y005877D02*
X027586Y005877D01*
X027645Y005870D02*
X027802Y006027D01*
X027586Y005994D02*
X028609Y005994D01*
X028609Y006110D02*
X028727Y006110D01*
X028728Y005994D02*
X029195Y005994D01*
X029142Y006110D02*
X029311Y006110D01*
X029428Y006227D02*
X029142Y006227D01*
X029132Y006344D02*
X029470Y006344D01*
X029353Y006460D02*
X026872Y006460D01*
X026995Y006110D02*
X026465Y006110D01*
X026465Y005994D02*
X026995Y005994D01*
X026995Y005877D02*
X026050Y005877D01*
X026050Y005760D02*
X025932Y005760D01*
X025932Y005850D02*
X025562Y005850D01*
X025444Y005968D01*
X025277Y005968D01*
X025159Y006086D01*
X025169Y006086D01*
X025342Y006259D01*
X025342Y006504D01*
X025169Y006677D01*
X024972Y006677D01*
X025066Y006771D01*
X025066Y007016D01*
X024973Y007109D01*
X025072Y007109D01*
X025381Y006800D01*
X025381Y006308D01*
X025485Y006205D01*
X025517Y006172D01*
X025517Y005968D01*
X025932Y005968D01*
X025932Y005850D01*
X025932Y005877D02*
X025535Y005877D01*
X025517Y005994D02*
X025252Y005994D01*
X025193Y006110D02*
X025517Y006110D01*
X025462Y006227D02*
X025309Y006227D01*
X025342Y006344D02*
X025381Y006344D01*
X025381Y006460D02*
X025342Y006460D01*
X025381Y006577D02*
X025269Y006577D01*
X025381Y006694D02*
X024988Y006694D01*
X025066Y006810D02*
X025371Y006810D01*
X025254Y006927D02*
X025066Y006927D01*
X025038Y007044D02*
X025138Y007044D01*
X026091Y007691D02*
X026091Y007711D01*
X026021Y007780D01*
X025690Y007780D01*
X025415Y008055D01*
X025322Y008055D01*
X025332Y008072D01*
X025343Y008113D01*
X025343Y008311D01*
X025027Y008311D01*
X025027Y008390D01*
X025343Y008390D01*
X025343Y008588D01*
X025332Y008628D01*
X025322Y008646D01*
X025440Y008646D01*
X025430Y008628D01*
X025419Y008588D01*
X025419Y008390D01*
X025735Y008390D01*
X025735Y008311D01*
X025419Y008311D01*
X025419Y008113D01*
X025430Y008072D01*
X025451Y008036D01*
X025480Y008006D01*
X025516Y007985D01*
X025557Y007975D01*
X025735Y007975D01*
X025735Y008311D01*
X025814Y008311D01*
X025814Y007975D01*
X025992Y007975D01*
X026033Y007985D01*
X026069Y008006D01*
X026099Y008036D01*
X026120Y008072D01*
X026128Y008104D01*
X026128Y008084D01*
X026198Y008015D01*
X026690Y008015D01*
X026760Y008084D01*
X026760Y008173D01*
X026784Y008173D01*
X027119Y007838D01*
X027089Y007838D01*
X027030Y007779D01*
X026976Y007779D01*
X026838Y007641D01*
X026800Y007603D01*
X026800Y007682D01*
X026789Y007723D01*
X026768Y007759D01*
X026738Y007789D01*
X026702Y007809D01*
X026662Y007820D01*
X026483Y007820D01*
X026483Y007484D01*
X026404Y007484D01*
X026404Y007820D01*
X026226Y007820D01*
X026186Y007809D01*
X026149Y007789D01*
X026120Y007759D01*
X026099Y007723D01*
X026091Y007691D01*
X026111Y007744D02*
X026057Y007744D01*
X026001Y007977D02*
X026980Y007977D01*
X026863Y008094D02*
X026760Y008094D01*
X026777Y007744D02*
X026940Y007744D01*
X026824Y007627D02*
X026800Y007627D01*
X026936Y007405D02*
X027054Y007287D01*
X027054Y007094D01*
X026857Y007094D02*
X026857Y007189D01*
X026483Y007160D02*
X026404Y007160D01*
X026404Y007069D02*
X026404Y007405D01*
X026483Y007405D01*
X026483Y007069D01*
X026498Y007069D01*
X026425Y006996D01*
X026425Y007002D01*
X026358Y007069D01*
X026404Y007069D01*
X026383Y007044D02*
X026473Y007044D01*
X026483Y007277D02*
X026404Y007277D01*
X026404Y007394D02*
X026483Y007394D01*
X026483Y007510D02*
X026404Y007510D01*
X026404Y007627D02*
X026483Y007627D01*
X026483Y007744D02*
X026404Y007744D01*
X026128Y008094D02*
X026125Y008094D01*
X025814Y008094D02*
X025735Y008094D01*
X025735Y008210D02*
X025814Y008210D01*
X025735Y008327D02*
X025027Y008327D01*
X025343Y008444D02*
X025419Y008444D01*
X025419Y008560D02*
X025343Y008560D01*
X025343Y008210D02*
X025419Y008210D01*
X025424Y008094D02*
X025338Y008094D01*
X025493Y007977D02*
X025548Y007977D01*
X025610Y007860D02*
X027097Y007860D01*
X027365Y008094D02*
X027728Y008094D01*
X027688Y008134D02*
X027861Y008307D01*
X027861Y008551D01*
X027782Y008630D01*
X027782Y009424D01*
X027656Y009551D01*
X027468Y009739D01*
X027468Y009764D01*
X027516Y009812D01*
X027516Y010228D01*
X027524Y010236D01*
X027545Y010272D01*
X027556Y010313D01*
X027556Y010502D01*
X027265Y010502D01*
X027556Y010543D02*
X028429Y010543D01*
X028321Y010427D02*
X027556Y010427D01*
X027555Y010310D02*
X028204Y010310D01*
X028258Y010193D02*
X028092Y010193D01*
X028089Y010195D02*
X027838Y009944D01*
X027817Y009908D01*
X027806Y009867D01*
X027806Y009825D01*
X027817Y009785D01*
X027838Y009749D01*
X028062Y009525D01*
X028411Y009874D01*
X028089Y010195D01*
X028087Y010193D02*
X027516Y010193D01*
X027516Y010077D02*
X027971Y010077D01*
X027854Y009960D02*
X027516Y009960D01*
X027516Y009843D02*
X027806Y009843D01*
X027860Y009727D02*
X027480Y009727D01*
X027597Y009610D02*
X027977Y009610D01*
X028146Y009610D02*
X028313Y009610D01*
X028263Y009727D02*
X028430Y009727D01*
X028441Y009843D02*
X028380Y009843D01*
X028325Y009960D02*
X028492Y009960D01*
X028375Y010077D02*
X028208Y010077D01*
X028197Y009493D02*
X027713Y009493D01*
X027782Y009377D02*
X028210Y009377D01*
X028326Y009260D02*
X027782Y009260D01*
X027782Y009143D02*
X028775Y009143D01*
X028748Y009260D02*
X028606Y009260D01*
X028723Y009377D02*
X028762Y009377D01*
X028956Y009610D02*
X029000Y009610D01*
X029073Y009727D02*
X029246Y009727D01*
X029186Y009610D02*
X029363Y009610D01*
X029362Y009493D02*
X029479Y009493D01*
X029424Y009377D02*
X029596Y009377D01*
X029713Y009260D02*
X029437Y009260D01*
X029411Y009143D02*
X029829Y009143D01*
X029787Y009027D02*
X030844Y009027D01*
X031142Y009027D02*
X031980Y009027D01*
X032097Y009143D02*
X031258Y009143D01*
X031375Y009260D02*
X032213Y009260D01*
X032330Y009377D02*
X031492Y009377D01*
X031608Y009493D02*
X032446Y009493D01*
X032563Y009610D02*
X031668Y009610D01*
X031594Y009727D02*
X032680Y009727D01*
X032796Y009843D02*
X031477Y009843D01*
X031360Y009960D02*
X032913Y009960D01*
X033030Y010077D02*
X031954Y010077D01*
X032071Y010193D02*
X033146Y010193D01*
X033263Y010310D02*
X032074Y010310D01*
X032074Y010427D02*
X033380Y010427D01*
X033496Y010543D02*
X031972Y010543D01*
X031688Y010660D02*
X047513Y010660D01*
X047185Y010777D02*
X031571Y010777D01*
X031455Y010893D02*
X047204Y010893D01*
X047261Y011010D02*
X037297Y011010D01*
X037413Y011127D02*
X047261Y011127D01*
X047261Y011243D02*
X037468Y011243D01*
X037468Y011360D02*
X046344Y011360D01*
X046247Y011476D02*
X037416Y011476D01*
X037300Y011593D02*
X046247Y011593D01*
X046256Y011710D02*
X035005Y011710D01*
X035105Y011826D02*
X046373Y011826D01*
X046542Y011579D02*
X047566Y011579D01*
X047645Y011500D02*
X048038Y011500D01*
X048157Y011618D01*
X048157Y011912D01*
X048353Y011912D02*
X048353Y011993D01*
X048353Y012299D01*
X048273Y012299D01*
X048233Y012288D01*
X048197Y012267D01*
X048188Y012259D01*
X048068Y012259D01*
X048003Y012259D01*
X047994Y012268D01*
X047852Y012268D01*
X047852Y012454D01*
X047852Y012651D01*
X047852Y012848D01*
X047852Y013045D01*
X047852Y013228D01*
X047880Y013221D01*
X047959Y013221D01*
X047959Y013607D01*
X047960Y013607D01*
X047960Y013221D01*
X048040Y013221D01*
X048080Y013232D01*
X048116Y013252D01*
X048125Y013261D01*
X048265Y013261D01*
X048385Y013261D01*
X048394Y013252D01*
X048430Y013232D01*
X048470Y013221D01*
X048550Y013221D01*
X048550Y013526D01*
X048550Y013526D01*
X048550Y013607D01*
X048550Y013607D01*
X048550Y013221D01*
X048630Y013221D01*
X048671Y013232D01*
X048707Y013252D01*
X048715Y013261D01*
X048854Y013261D01*
X048854Y013121D01*
X048846Y013113D01*
X048825Y013077D01*
X048814Y013037D01*
X048814Y012957D01*
X049201Y012957D01*
X049201Y012956D01*
X049120Y012956D01*
X048814Y012956D01*
X048814Y012876D01*
X048709Y012876D01*
X048709Y012799D02*
X048709Y012977D01*
X048698Y013018D01*
X048677Y013054D01*
X048648Y013084D01*
X048612Y013105D01*
X048571Y013116D01*
X048393Y013116D01*
X048393Y012799D01*
X048709Y012799D01*
X048709Y012720D02*
X048393Y012720D01*
X048393Y012799D01*
X048314Y012799D01*
X048314Y012720D01*
X048393Y012720D01*
X048393Y012404D01*
X048571Y012404D01*
X048612Y012415D01*
X048648Y012436D01*
X048677Y012465D01*
X048698Y012501D01*
X048709Y012542D01*
X048709Y012720D01*
X048709Y012643D02*
X048854Y012643D01*
X048854Y012671D02*
X048854Y012474D01*
X048854Y012259D01*
X048659Y012259D01*
X048518Y012259D01*
X048510Y012267D01*
X048474Y012288D01*
X048433Y012299D01*
X048354Y012299D01*
X048354Y011912D01*
X048353Y011912D01*
X048353Y012344D01*
X048322Y012376D02*
X048716Y012376D01*
X048716Y013144D01*
X048903Y012957D01*
X049201Y012957D01*
X049120Y012956D02*
X049120Y012956D01*
X049201Y012760D02*
X049751Y012760D01*
X049771Y012779D01*
X050067Y012760D02*
X050283Y012760D01*
X050283Y012876D02*
X050067Y012876D01*
X050067Y012993D02*
X050283Y012993D01*
X050283Y013110D02*
X050067Y013110D01*
X050067Y013226D02*
X050283Y013226D01*
X050283Y013343D02*
X050067Y013343D01*
X050029Y013460D02*
X050283Y013460D01*
X050283Y013576D02*
X050067Y013576D01*
X050067Y013693D02*
X050283Y013693D01*
X050283Y013810D02*
X050067Y013810D01*
X049430Y013969D02*
X049371Y014029D01*
X049405Y014064D01*
X049405Y014480D01*
X049414Y014488D01*
X049435Y014524D01*
X049445Y014564D01*
X049445Y014754D01*
X049155Y014754D01*
X049155Y014781D01*
X049445Y014781D01*
X049445Y014971D01*
X049435Y015011D01*
X049414Y015047D01*
X049384Y015077D01*
X049348Y015098D01*
X049307Y015109D01*
X049155Y015109D01*
X049155Y014782D01*
X049127Y014782D01*
X049127Y015109D01*
X049062Y015109D01*
X049062Y015672D01*
X049170Y015672D01*
X049240Y015742D01*
X049240Y015761D01*
X049248Y015730D01*
X049269Y015694D01*
X049299Y015664D01*
X049335Y015643D01*
X049376Y015632D01*
X049594Y015632D01*
X049594Y016047D01*
X049712Y016047D01*
X049712Y016165D01*
X050068Y016165D01*
X050068Y016442D01*
X050057Y016482D01*
X050036Y016519D01*
X050006Y016548D01*
X049970Y016569D01*
X049929Y016580D01*
X049712Y016580D01*
X049712Y016165D01*
X049594Y016165D01*
X049594Y016580D01*
X049376Y016580D01*
X049335Y016569D01*
X049299Y016548D01*
X049269Y016519D01*
X049248Y016482D01*
X049240Y016451D01*
X049240Y016470D01*
X049170Y016540D01*
X048560Y016540D01*
X048531Y016511D01*
X048521Y016520D01*
X048432Y016520D01*
X048432Y016725D01*
X048453Y016746D01*
X048453Y017277D01*
X048383Y017347D01*
X047891Y017347D01*
X047821Y017277D01*
X047821Y016746D01*
X047831Y016736D01*
X047774Y016736D01*
X047783Y016746D01*
X047783Y017277D01*
X047714Y017347D01*
X047221Y017347D01*
X047152Y017277D01*
X047152Y017189D01*
X046970Y017189D01*
X046208Y017951D01*
X046104Y018055D01*
X042373Y018055D01*
X042468Y018149D01*
X042468Y018394D01*
X042373Y018488D01*
X042570Y018488D01*
X042743Y018661D01*
X042743Y018906D01*
X042570Y019079D01*
X042326Y019079D01*
X042286Y019039D01*
X041666Y019039D01*
X041562Y018935D01*
X041390Y018764D01*
X034696Y018764D01*
X034790Y018858D01*
X034790Y019000D01*
X034972Y019000D01*
X035090Y019118D01*
X043437Y019118D01*
X043584Y019118D01*
X044923Y020457D01*
X044986Y020457D01*
X044986Y020368D01*
X045056Y020298D01*
X045548Y020298D01*
X045618Y020368D01*
X045618Y020900D01*
X045548Y020969D01*
X045056Y020969D01*
X044986Y020900D01*
X044986Y020811D01*
X044776Y020811D01*
X044672Y020707D01*
X043437Y019472D01*
X035405Y019472D01*
X035460Y019527D01*
X035460Y019772D01*
X035342Y019890D01*
X035342Y020696D01*
X035445Y020653D01*
X035750Y020653D01*
X036032Y020770D01*
X036248Y020986D01*
X036365Y021268D01*
X036365Y021574D01*
X036248Y021856D01*
X036032Y022072D01*
X035750Y022189D01*
X035445Y022189D01*
X035163Y022072D01*
X034947Y021856D01*
X034830Y021574D01*
X034830Y021283D01*
X034737Y021283D01*
X034732Y021283D01*
X034732Y021333D01*
X034663Y021402D01*
X034013Y021402D01*
X033943Y021333D01*
X033943Y020840D01*
X034013Y020771D01*
X034663Y020771D01*
X034732Y020840D01*
X034732Y020929D01*
X034737Y020929D01*
X034987Y020678D01*
X034987Y019890D01*
X034869Y019772D01*
X034869Y019590D01*
X034727Y019590D01*
X034554Y019417D01*
X034554Y019345D01*
X033854Y020046D01*
X033675Y020046D01*
X031872Y020046D01*
X031846Y020142D01*
X032900Y020142D01*
X032900Y020132D01*
X032969Y020062D01*
X033462Y020062D01*
X033531Y020132D01*
X033531Y020500D01*
X033569Y020463D01*
X033569Y020132D01*
X033639Y020062D01*
X034131Y020062D01*
X034201Y020132D01*
X034201Y020663D01*
X034131Y020733D01*
X033800Y020733D01*
X033649Y020884D01*
X033649Y021145D01*
X033796Y021145D01*
X033866Y021214D01*
X033866Y021638D01*
X033943Y021638D01*
X033943Y021588D01*
X034013Y021519D01*
X034663Y021519D01*
X034732Y021588D01*
X034732Y022081D01*
X034663Y022150D01*
X034013Y022150D01*
X033943Y022081D01*
X033943Y021992D01*
X032574Y021992D01*
X032552Y022005D01*
X032503Y021992D01*
X032453Y021992D01*
X032435Y021974D01*
X028960Y021047D01*
X028910Y021047D01*
X028892Y021029D01*
X028867Y021022D01*
X028842Y020979D01*
X028811Y020948D01*
X028681Y021077D01*
X028912Y021164D01*
X030644Y021709D01*
X032412Y022126D01*
X034205Y022411D01*
X036015Y022564D01*
X037831Y022584D01*
X038687Y022546D01*
X038688Y022544D01*
X038741Y022543D01*
X038795Y022540D01*
X038797Y022541D01*
X039594Y022515D01*
X041284Y022349D01*
X041284Y022349D01*
X041996Y022216D01*
X041895Y022174D01*
X041758Y022037D01*
X041683Y021857D01*
X041683Y021662D01*
X041758Y021483D01*
X041895Y021345D01*
X042075Y021271D01*
X042270Y021271D01*
X042449Y021345D01*
X042587Y021483D01*
X042661Y021662D01*
X042661Y021857D01*
X042587Y022037D01*
X042502Y022121D01*
X042954Y022037D01*
X044590Y021582D01*
X046181Y020988D01*
X047715Y020259D01*
X049181Y019401D01*
X050283Y018620D01*
X050283Y015306D01*
X050218Y015306D01*
X050218Y014978D01*
X050190Y014978D01*
X050190Y014951D01*
X049899Y014951D01*
X049899Y014761D01*
X049910Y014721D01*
X049931Y014685D01*
X049939Y014676D01*
X049939Y014573D01*
X049928Y014547D01*
X049928Y014363D01*
X049812Y014363D01*
X049786Y014374D01*
X049676Y014374D01*
X049650Y014363D01*
X049500Y014363D01*
X049430Y014293D01*
X049430Y013969D01*
X049430Y014043D02*
X049385Y014043D01*
X049405Y014160D02*
X049430Y014160D01*
X049430Y014276D02*
X049405Y014276D01*
X049405Y014393D02*
X049928Y014393D01*
X049928Y014509D02*
X049426Y014509D01*
X049445Y014626D02*
X049939Y014626D01*
X049904Y014743D02*
X049445Y014743D01*
X049445Y014859D02*
X049899Y014859D01*
X049899Y014978D02*
X050190Y014978D01*
X050190Y015306D01*
X050037Y015306D01*
X049997Y015295D01*
X049960Y015274D01*
X049931Y015244D01*
X049910Y015208D01*
X049899Y015167D01*
X049899Y014978D01*
X049899Y015093D02*
X049357Y015093D01*
X049444Y014976D02*
X050190Y014976D01*
X050190Y015093D02*
X050218Y015093D01*
X050218Y015209D02*
X050190Y015209D01*
X050283Y015326D02*
X049062Y015326D01*
X049062Y015209D02*
X049911Y015209D01*
X049929Y015632D02*
X049970Y015643D01*
X050006Y015664D01*
X050036Y015694D01*
X050057Y015730D01*
X050068Y015770D01*
X050068Y016047D01*
X049712Y016047D01*
X049712Y015632D01*
X049929Y015632D01*
X050018Y015676D02*
X050283Y015676D01*
X050283Y015559D02*
X049062Y015559D01*
X049062Y015443D02*
X050283Y015443D01*
X050283Y015793D02*
X050068Y015793D01*
X050068Y015909D02*
X050283Y015909D01*
X050283Y016026D02*
X050068Y016026D01*
X050068Y016259D02*
X050283Y016259D01*
X050283Y016143D02*
X049712Y016143D01*
X049712Y016259D02*
X049594Y016259D01*
X049594Y016376D02*
X049712Y016376D01*
X049712Y016493D02*
X049594Y016493D01*
X049254Y016493D02*
X049218Y016493D01*
X048865Y016106D02*
X048865Y015043D01*
X048629Y014807D01*
X048629Y014610D01*
X048629Y014531D02*
X048353Y014256D01*
X048353Y013608D01*
X048550Y013608D02*
X048550Y013309D01*
X048716Y013144D01*
X048005Y013144D01*
X047991Y013144D02*
X047991Y012376D01*
X048002Y012376D02*
X048322Y012376D01*
X048314Y012404D02*
X048136Y012404D01*
X048095Y012415D01*
X048059Y012436D01*
X048029Y012465D01*
X048008Y012501D01*
X047997Y012542D01*
X047997Y012720D01*
X048314Y012720D01*
X048314Y012404D01*
X048314Y012410D02*
X048393Y012410D01*
X048393Y012526D02*
X048314Y012526D01*
X048314Y012643D02*
X048393Y012643D01*
X048393Y012760D02*
X048854Y012760D01*
X048854Y012792D02*
X048854Y012671D01*
X048854Y012792D02*
X048846Y012800D01*
X048825Y012836D01*
X048814Y012876D01*
X048814Y012993D02*
X048705Y012993D01*
X048593Y013110D02*
X048844Y013110D01*
X048854Y013226D02*
X048651Y013226D01*
X048550Y013226D02*
X048550Y013226D01*
X048449Y013226D02*
X048061Y013226D01*
X047960Y013226D02*
X047959Y013226D01*
X047955Y013179D02*
X047955Y013608D01*
X047960Y013608D02*
X047820Y013468D01*
X047742Y013460D02*
X040420Y013460D01*
X040420Y013576D02*
X041332Y013576D01*
X041674Y013576D02*
X044678Y013576D01*
X044594Y013693D02*
X041791Y013693D01*
X041798Y013810D02*
X044594Y013810D01*
X044614Y013926D02*
X041798Y013926D01*
X041700Y014043D02*
X044731Y014043D01*
X044908Y014160D02*
X035013Y014160D01*
X034967Y014043D02*
X032800Y014043D01*
X032684Y013926D02*
X034869Y013926D01*
X034607Y014160D02*
X032917Y014160D01*
X032649Y014393D02*
X031247Y014393D01*
X031247Y014509D02*
X032766Y014509D01*
X032533Y014276D02*
X031232Y014276D01*
X031116Y014160D02*
X032416Y014160D01*
X032299Y014043D02*
X030077Y014043D01*
X029960Y014160D02*
X030788Y014160D01*
X030671Y014276D02*
X028741Y014276D01*
X028704Y014393D02*
X028624Y014393D01*
X028609Y014509D02*
X028508Y014509D01*
X028609Y014626D02*
X028393Y014626D01*
X028452Y014743D02*
X028620Y014743D01*
X028736Y014859D02*
X028452Y014859D01*
X028405Y014976D02*
X029020Y014976D01*
X029200Y014626D02*
X029475Y014626D01*
X029475Y014509D02*
X029200Y014509D01*
X029105Y014393D02*
X029570Y014393D01*
X030395Y014393D02*
X030657Y014393D01*
X030605Y014509D02*
X030511Y014509D01*
X030558Y014626D02*
X030558Y014626D01*
X030558Y014743D02*
X030558Y014743D01*
X030558Y014859D02*
X030558Y014859D01*
X031120Y014743D02*
X045491Y014743D01*
X045375Y014626D02*
X034975Y014626D01*
X035092Y014509D02*
X045258Y014509D01*
X045141Y014393D02*
X035105Y014393D01*
X035105Y014276D02*
X045025Y014276D01*
X045348Y014043D02*
X047223Y014043D01*
X047223Y014160D02*
X045465Y014160D01*
X045581Y014276D02*
X047186Y014276D01*
X047183Y014393D02*
X045698Y014393D01*
X045815Y014509D02*
X047183Y014509D01*
X047183Y014626D02*
X045931Y014626D01*
X046048Y014743D02*
X047198Y014743D01*
X047117Y014859D02*
X046165Y014859D01*
X046281Y014976D02*
X047092Y014976D01*
X047092Y015093D02*
X046398Y015093D01*
X046515Y015209D02*
X047092Y015209D01*
X047092Y015201D02*
X047408Y015201D01*
X047408Y015537D01*
X047230Y015537D01*
X047190Y015526D01*
X047153Y015505D01*
X047124Y015475D01*
X047103Y015439D01*
X047092Y015399D01*
X047092Y015201D01*
X047092Y015326D02*
X046631Y015326D01*
X046748Y015443D02*
X047105Y015443D01*
X047408Y015443D02*
X047487Y015443D01*
X047487Y015326D02*
X047408Y015326D01*
X047408Y015209D02*
X047487Y015209D01*
X047487Y015122D02*
X047487Y014786D01*
X047501Y014786D01*
X047501Y014506D01*
X047473Y014506D01*
X047473Y014833D01*
X047408Y014833D01*
X047408Y015122D01*
X047487Y015122D01*
X047487Y015093D02*
X047408Y015093D01*
X047408Y014976D02*
X047487Y014976D01*
X047487Y014859D02*
X047408Y014859D01*
X047473Y014743D02*
X047501Y014743D01*
X047501Y014626D02*
X047473Y014626D01*
X047473Y014509D02*
X047501Y014509D01*
X047501Y014506D02*
X047792Y014506D01*
X047792Y014695D01*
X047781Y014735D01*
X047760Y014772D01*
X047731Y014801D01*
X047722Y014806D01*
X047742Y014817D01*
X047772Y014847D01*
X047793Y014883D01*
X047801Y014915D01*
X047801Y014895D01*
X047846Y014851D01*
X047826Y014817D01*
X047815Y014777D01*
X047815Y014624D01*
X048142Y014624D01*
X048142Y014596D01*
X047815Y014596D01*
X047815Y014443D01*
X047826Y014403D01*
X047847Y014367D01*
X047877Y014337D01*
X047913Y014316D01*
X047953Y014305D01*
X048143Y014305D01*
X048143Y014596D01*
X048170Y014596D01*
X048170Y014351D01*
X048157Y014337D01*
X048157Y014170D01*
X048130Y014197D01*
X047752Y014197D01*
X047752Y014204D01*
X047760Y014212D01*
X047781Y014248D01*
X047792Y014289D01*
X047792Y014478D01*
X047501Y014478D01*
X047501Y014506D01*
X047792Y014509D02*
X047815Y014509D01*
X047815Y014626D02*
X047792Y014626D01*
X047777Y014743D02*
X047815Y014743D01*
X047837Y014859D02*
X047779Y014859D01*
X047792Y014393D02*
X047832Y014393D01*
X047789Y014276D02*
X048157Y014276D01*
X048143Y014393D02*
X048170Y014393D01*
X048170Y014509D02*
X048143Y014509D01*
X048747Y014610D02*
X048983Y014374D01*
X049141Y014295D02*
X049141Y013980D01*
X049259Y013862D01*
X049259Y013211D01*
X048550Y013343D02*
X048550Y013343D01*
X048550Y013460D02*
X048550Y013460D01*
X048550Y013576D02*
X048550Y013576D01*
X048393Y013110D02*
X048314Y013110D01*
X048314Y013116D02*
X048136Y013116D01*
X048095Y013105D01*
X048059Y013084D01*
X048029Y013054D01*
X048008Y013018D01*
X047997Y012977D01*
X047997Y012799D01*
X048314Y012799D01*
X048314Y013116D01*
X048314Y012993D02*
X048393Y012993D01*
X048393Y012876D02*
X048314Y012876D01*
X048314Y012760D02*
X047852Y012760D01*
X047852Y012876D02*
X047997Y012876D01*
X048002Y012993D02*
X047852Y012993D01*
X047852Y013110D02*
X048114Y013110D01*
X047959Y013343D02*
X047960Y013343D01*
X047959Y013460D02*
X047960Y013460D01*
X047959Y013576D02*
X047960Y013576D01*
X047742Y013576D02*
X045099Y013576D01*
X045184Y013693D02*
X047742Y013693D01*
X047746Y013343D02*
X042676Y013343D01*
X042220Y013343D02*
X040417Y013343D01*
X040301Y013226D02*
X042153Y013226D01*
X042153Y013110D02*
X042004Y013110D01*
X041632Y013110D02*
X039468Y013110D01*
X039468Y013226D02*
X039949Y013226D01*
X039390Y012993D02*
X041523Y012993D01*
X041523Y012876D02*
X030233Y012876D01*
X030145Y012788D02*
X030145Y012788D01*
X030116Y012760D02*
X041523Y012760D01*
X042905Y011943D02*
X046990Y011943D01*
X046712Y011826D02*
X047318Y011826D01*
X047852Y012293D02*
X048253Y012293D01*
X048353Y012293D02*
X048354Y012293D01*
X048454Y012293D02*
X048854Y012293D01*
X048854Y012410D02*
X048593Y012410D01*
X048705Y012526D02*
X048854Y012526D01*
X049201Y012563D02*
X049475Y012563D01*
X049771Y012268D01*
X050067Y012293D02*
X050283Y012293D01*
X050283Y012176D02*
X050067Y012176D01*
X050067Y012060D02*
X050283Y012060D01*
X050283Y011943D02*
X050067Y011943D01*
X050067Y011826D02*
X050283Y011826D01*
X050283Y011710D02*
X050067Y011710D01*
X050023Y011593D02*
X050283Y011593D01*
X050283Y011476D02*
X050067Y011476D01*
X050067Y011360D02*
X050283Y011360D01*
X050283Y011243D02*
X050067Y011243D01*
X050035Y011127D02*
X050283Y011127D01*
X050283Y011010D02*
X050035Y011010D01*
X050035Y010893D02*
X050283Y010893D01*
X050283Y010777D02*
X050035Y010777D01*
X050070Y010660D02*
X050283Y010660D01*
X050075Y010451D02*
X049785Y010451D01*
X049785Y010423D01*
X050075Y010423D01*
X050075Y010234D01*
X050065Y010193D01*
X050075Y010310D02*
X050283Y010310D01*
X050283Y009960D02*
X048905Y009960D01*
X048893Y009843D02*
X050283Y009843D01*
X050283Y009727D02*
X048905Y009727D01*
X048905Y009610D02*
X050283Y009610D01*
X050283Y009493D02*
X048905Y009493D01*
X048905Y009377D02*
X050283Y009377D01*
X050283Y009260D02*
X048905Y009260D01*
X048862Y009143D02*
X050283Y009143D01*
X050283Y009027D02*
X032537Y009027D01*
X032653Y009143D02*
X047293Y009143D01*
X047250Y009260D02*
X032770Y009260D01*
X032887Y009377D02*
X047250Y009377D01*
X047250Y009493D02*
X033003Y009493D01*
X033120Y009610D02*
X033802Y009610D01*
X033861Y009551D02*
X034106Y009551D01*
X034224Y009669D01*
X039885Y009669D01*
X040003Y009551D01*
X040247Y009551D01*
X040420Y009724D01*
X040420Y009969D01*
X040247Y010142D01*
X040003Y010142D01*
X039885Y010023D01*
X034224Y010023D01*
X034106Y010142D01*
X033861Y010142D01*
X033688Y009969D01*
X033688Y009724D01*
X033861Y009551D01*
X033688Y009727D02*
X033237Y009727D01*
X033353Y009843D02*
X033688Y009843D01*
X033688Y009960D02*
X033470Y009960D01*
X033587Y010077D02*
X033796Y010077D01*
X033590Y010358D02*
X031975Y008744D01*
X029653Y008744D01*
X029419Y008560D02*
X029397Y008560D01*
X029337Y008444D02*
X029973Y008444D01*
X029989Y008460D02*
X029909Y008379D01*
X029865Y008275D01*
X029865Y008161D01*
X029909Y008056D01*
X029989Y007976D01*
X030094Y007932D01*
X030207Y007932D01*
X030312Y007976D01*
X030392Y008056D01*
X030436Y008161D01*
X030436Y008275D01*
X030392Y008379D01*
X030312Y008460D01*
X030207Y008503D01*
X030094Y008503D01*
X029989Y008460D01*
X029887Y008327D02*
X029279Y008327D01*
X029279Y008210D02*
X029865Y008210D01*
X029893Y008094D02*
X029279Y008094D01*
X029279Y007977D02*
X029988Y007977D01*
X030147Y007744D02*
X029279Y007744D01*
X029279Y007860D02*
X030264Y007860D01*
X030344Y007941D02*
X030093Y007689D01*
X030072Y007653D01*
X030061Y007612D01*
X030061Y007570D01*
X030072Y007530D01*
X030093Y007494D01*
X030316Y007270D01*
X030665Y007619D01*
X030749Y007536D01*
X030400Y007187D01*
X030624Y006963D01*
X030660Y006942D01*
X030700Y006931D01*
X030742Y006931D01*
X030783Y006942D01*
X030819Y006963D01*
X031070Y007215D01*
X030749Y007536D01*
X030833Y007619D01*
X031154Y007298D01*
X031405Y007549D01*
X031426Y007586D01*
X031437Y007626D01*
X031437Y007668D01*
X031426Y007709D01*
X031405Y007745D01*
X031182Y007968D01*
X030833Y007619D01*
X030749Y007703D01*
X030665Y007619D01*
X030344Y007941D01*
X030313Y007977D02*
X030475Y007977D01*
X030428Y008024D02*
X030749Y007703D01*
X031098Y008052D01*
X030875Y008275D01*
X030838Y008296D01*
X030798Y008307D01*
X030756Y008307D01*
X030715Y008296D01*
X030679Y008275D01*
X030428Y008024D01*
X030408Y008094D02*
X030497Y008094D01*
X030436Y008210D02*
X030614Y008210D01*
X030414Y008327D02*
X048946Y008327D01*
X048953Y008330D02*
X048686Y008202D01*
X048686Y008202D01*
X048686Y008202D01*
X048501Y007970D01*
X048435Y007681D01*
X048501Y007392D01*
X048501Y007392D01*
X048686Y007160D01*
X048953Y007031D01*
X048953Y007031D01*
X049250Y007031D01*
X049517Y007160D01*
X049702Y007392D01*
X049768Y007681D01*
X049702Y007970D01*
X049517Y008202D01*
X049517Y008202D01*
X049250Y008330D01*
X048953Y008330D01*
X048953Y008330D01*
X048704Y008210D02*
X030940Y008210D01*
X031056Y008094D02*
X048600Y008094D01*
X048507Y007977D02*
X031023Y007977D01*
X031073Y007860D02*
X030907Y007860D01*
X030957Y007744D02*
X030790Y007744D01*
X030708Y007744D02*
X030541Y007744D01*
X030591Y007860D02*
X030425Y007860D01*
X030658Y007627D02*
X030673Y007627D01*
X030716Y007602D02*
X030732Y007602D01*
X030749Y007619D01*
X030825Y007627D02*
X030840Y007627D01*
X030775Y007510D02*
X030941Y007510D01*
X030891Y007394D02*
X031058Y007394D01*
X031008Y007277D02*
X033885Y007277D01*
X033885Y007204D02*
X034058Y007031D01*
X034302Y007031D01*
X034421Y007149D01*
X044028Y007149D01*
X044318Y006859D01*
X044318Y005274D01*
X044318Y005127D01*
X044633Y004812D01*
X044737Y004709D01*
X044986Y004709D01*
X044986Y004620D01*
X045056Y004550D01*
X045548Y004550D01*
X045618Y004620D01*
X045618Y005151D01*
X045548Y005221D01*
X045056Y005221D01*
X044986Y005151D01*
X044986Y005063D01*
X044883Y005063D01*
X044672Y005274D01*
X044672Y007006D01*
X044569Y007110D01*
X044175Y007504D01*
X044028Y007504D01*
X034421Y007504D01*
X034302Y007622D01*
X034058Y007622D01*
X033885Y007449D01*
X033885Y007204D01*
X033929Y007160D02*
X033386Y007160D01*
X033318Y007228D02*
X033074Y007228D01*
X032995Y007149D01*
X032646Y007149D01*
X032646Y007199D01*
X032576Y007268D01*
X031926Y007268D01*
X031856Y007199D01*
X031856Y006706D01*
X031926Y006637D01*
X032576Y006637D01*
X032646Y006706D01*
X032646Y006716D01*
X032995Y006716D01*
X033074Y006638D01*
X033318Y006638D01*
X033491Y006811D01*
X033491Y007055D01*
X033318Y007228D01*
X033491Y007044D02*
X034046Y007044D01*
X034315Y007044D02*
X044134Y007044D01*
X044250Y006927D02*
X033491Y006927D01*
X033491Y006810D02*
X044318Y006810D01*
X044318Y006694D02*
X033374Y006694D01*
X033018Y006694D02*
X032633Y006694D01*
X032636Y006460D02*
X034314Y006460D01*
X034676Y006460D02*
X044318Y006460D01*
X044318Y006344D02*
X034790Y006344D01*
X034790Y006227D02*
X044318Y006227D01*
X044318Y006110D02*
X034790Y006110D01*
X034682Y005994D02*
X044318Y005994D01*
X044318Y005877D02*
X033452Y005877D01*
X033452Y005760D02*
X044318Y005760D01*
X044318Y005644D02*
X033387Y005644D01*
X033411Y005994D02*
X034308Y005994D01*
X032691Y005527D02*
X044318Y005527D01*
X044318Y005411D02*
X032662Y005411D01*
X032631Y005294D02*
X044318Y005294D01*
X044318Y005177D02*
X032600Y005177D01*
X032569Y005061D02*
X044385Y005061D01*
X044501Y004944D02*
X032537Y004944D01*
X032506Y004827D02*
X035351Y004827D01*
X035445Y004866D02*
X035163Y004749D01*
X034947Y004533D01*
X034830Y004251D01*
X034830Y003946D01*
X034947Y003663D01*
X035163Y003447D01*
X035445Y003331D01*
X035750Y003331D01*
X036032Y003447D01*
X036248Y003663D01*
X036365Y003946D01*
X036365Y004251D01*
X036248Y004533D01*
X036032Y004749D01*
X035750Y004866D01*
X035445Y004866D01*
X035124Y004711D02*
X032475Y004711D01*
X032444Y004594D02*
X035007Y004594D01*
X034924Y004477D02*
X032411Y004477D01*
X032334Y004271D02*
X032209Y004271D01*
X032093Y004223D01*
X032005Y004134D01*
X031957Y004018D01*
X031957Y003893D01*
X032005Y003777D01*
X032093Y003689D01*
X032209Y003641D01*
X032334Y003641D01*
X032450Y003689D01*
X032539Y003777D01*
X032586Y003893D01*
X032586Y004018D01*
X032539Y004134D01*
X032450Y004223D01*
X032334Y004271D01*
X032398Y004244D02*
X034830Y004244D01*
X034830Y004127D02*
X032541Y004127D01*
X032586Y004011D02*
X034830Y004011D01*
X034851Y003894D02*
X032586Y003894D01*
X032539Y003777D02*
X034899Y003777D01*
X034949Y003661D02*
X032383Y003661D01*
X032161Y003661D02*
X031279Y003661D01*
X031774Y003544D02*
X035066Y003544D01*
X035211Y003427D02*
X032269Y003427D01*
X032004Y003777D02*
X030783Y003777D01*
X030378Y003894D02*
X031957Y003894D01*
X031957Y004011D02*
X030007Y004011D01*
X029636Y004127D02*
X032002Y004127D01*
X032145Y004244D02*
X029265Y004244D01*
X029416Y004477D02*
X028587Y004477D01*
X028897Y004361D02*
X029558Y004361D01*
X029814Y004361D02*
X034875Y004361D01*
X035844Y004827D02*
X044618Y004827D01*
X044735Y004711D02*
X036071Y004711D01*
X036187Y004594D02*
X045012Y004594D01*
X045100Y004127D02*
X042496Y004127D01*
X042598Y004011D02*
X044788Y004011D01*
X044436Y003894D02*
X042646Y003894D01*
X042661Y003777D02*
X044016Y003777D01*
X043596Y003661D02*
X042661Y003661D01*
X042612Y003544D02*
X043176Y003544D01*
X042659Y003427D02*
X042532Y003427D01*
X041978Y003311D02*
X041366Y003311D01*
X041449Y003345D02*
X041587Y003483D01*
X041661Y003662D01*
X041661Y003857D01*
X041587Y004037D01*
X041449Y004174D01*
X041270Y004249D01*
X041075Y004249D01*
X040895Y004174D01*
X040758Y004037D01*
X040683Y003857D01*
X040683Y003662D01*
X040758Y003483D01*
X040895Y003345D01*
X041075Y003271D01*
X041270Y003271D01*
X041449Y003345D01*
X041532Y003427D02*
X041813Y003427D01*
X041732Y003544D02*
X041612Y003544D01*
X041661Y003661D02*
X041684Y003661D01*
X041683Y003777D02*
X041661Y003777D01*
X041646Y003894D02*
X041699Y003894D01*
X041747Y004011D02*
X041598Y004011D01*
X041496Y004127D02*
X041848Y004127D01*
X042064Y004244D02*
X041281Y004244D01*
X041064Y004244D02*
X040281Y004244D01*
X040270Y004249D02*
X040075Y004249D01*
X039895Y004174D01*
X039758Y004037D01*
X039683Y003857D01*
X039683Y003662D01*
X039758Y003483D01*
X039895Y003345D01*
X040075Y003271D01*
X040270Y003271D01*
X040449Y003345D01*
X040587Y003483D01*
X040661Y003662D01*
X040661Y003857D01*
X040587Y004037D01*
X040449Y004174D01*
X040270Y004249D01*
X040064Y004244D02*
X039281Y004244D01*
X039270Y004249D02*
X039075Y004249D01*
X038895Y004174D01*
X038758Y004037D01*
X038690Y003873D01*
X038688Y003884D01*
X038663Y003963D01*
X038625Y004037D01*
X038576Y004104D01*
X038517Y004163D01*
X038450Y004212D01*
X038375Y004250D01*
X038296Y004276D01*
X038214Y004289D01*
X038213Y004289D01*
X038213Y003801D01*
X038131Y003801D01*
X038131Y004289D01*
X038131Y004289D01*
X038048Y004276D01*
X037969Y004250D01*
X037895Y004212D01*
X037828Y004163D01*
X037769Y004104D01*
X037720Y004037D01*
X037682Y003963D01*
X037656Y003884D01*
X037655Y003873D01*
X037587Y004037D01*
X037449Y004174D01*
X037270Y004249D01*
X037075Y004249D01*
X036895Y004174D01*
X036758Y004037D01*
X036683Y003857D01*
X036683Y003662D01*
X036758Y003483D01*
X036895Y003345D01*
X037075Y003271D01*
X037270Y003271D01*
X037449Y003345D01*
X037587Y003483D01*
X037655Y003646D01*
X037656Y003636D01*
X037682Y003557D01*
X037720Y003482D01*
X037769Y003415D01*
X037828Y003356D01*
X037895Y003307D01*
X037969Y003269D01*
X038048Y003244D01*
X038131Y003231D01*
X038131Y003718D01*
X038213Y003718D01*
X038213Y003231D01*
X038214Y003231D01*
X038296Y003244D01*
X038375Y003269D01*
X038450Y003307D01*
X038517Y003356D01*
X038576Y003415D01*
X038625Y003482D01*
X038663Y003557D01*
X038688Y003636D01*
X038690Y003646D01*
X038758Y003483D01*
X038895Y003345D01*
X039075Y003271D01*
X039270Y003271D01*
X039449Y003345D01*
X039587Y003483D01*
X039661Y003662D01*
X039661Y003857D01*
X039587Y004037D01*
X039449Y004174D01*
X039270Y004249D01*
X039064Y004244D02*
X038387Y004244D01*
X038213Y004244D02*
X038131Y004244D01*
X038131Y004127D02*
X038213Y004127D01*
X038213Y004011D02*
X038131Y004011D01*
X038131Y003894D02*
X038213Y003894D01*
X038213Y003661D02*
X038131Y003661D01*
X038131Y003544D02*
X038213Y003544D01*
X038213Y003427D02*
X038131Y003427D01*
X038131Y003311D02*
X038213Y003311D01*
X038131Y003231D02*
X038131Y003231D01*
X037890Y003311D02*
X037366Y003311D01*
X037532Y003427D02*
X037760Y003427D01*
X037688Y003544D02*
X037612Y003544D01*
X036978Y003311D02*
X032934Y003311D01*
X033667Y003194D02*
X041409Y003194D01*
X040978Y003311D02*
X040366Y003311D01*
X040532Y003427D02*
X040813Y003427D01*
X040732Y003544D02*
X040612Y003544D01*
X040661Y003661D02*
X040684Y003661D01*
X040683Y003777D02*
X040661Y003777D01*
X040646Y003894D02*
X040699Y003894D01*
X040747Y004011D02*
X040598Y004011D01*
X040496Y004127D02*
X040848Y004127D01*
X039848Y004127D02*
X039496Y004127D01*
X039598Y004011D02*
X039747Y004011D01*
X039699Y003894D02*
X039646Y003894D01*
X039661Y003777D02*
X039683Y003777D01*
X039684Y003661D02*
X039661Y003661D01*
X039612Y003544D02*
X039732Y003544D01*
X039813Y003427D02*
X039532Y003427D01*
X039366Y003311D02*
X039978Y003311D01*
X040336Y003077D02*
X034571Y003077D01*
X035951Y002961D02*
X038398Y002961D01*
X038454Y003311D02*
X038978Y003311D01*
X038813Y003427D02*
X038585Y003427D01*
X038656Y003544D02*
X038732Y003544D01*
X038699Y003894D02*
X038685Y003894D01*
X038638Y004011D02*
X038747Y004011D01*
X038848Y004127D02*
X038553Y004127D01*
X037957Y004244D02*
X037281Y004244D01*
X037064Y004244D02*
X036365Y004244D01*
X036365Y004127D02*
X036848Y004127D01*
X036747Y004011D02*
X036365Y004011D01*
X036344Y003894D02*
X036699Y003894D01*
X036683Y003777D02*
X036295Y003777D01*
X036246Y003661D02*
X036684Y003661D01*
X036732Y003544D02*
X036129Y003544D01*
X035984Y003427D02*
X036813Y003427D01*
X037646Y003894D02*
X037660Y003894D01*
X037706Y004011D02*
X037598Y004011D01*
X037496Y004127D02*
X037792Y004127D01*
X036320Y004361D02*
X045725Y004361D01*
X045725Y004550D02*
X046218Y004550D01*
X046287Y004620D01*
X046287Y005151D01*
X046218Y005221D01*
X046168Y005221D01*
X046168Y005245D01*
X046813Y005890D01*
X047447Y005890D01*
X047447Y005762D01*
X047517Y005692D01*
X048088Y005692D01*
X048157Y005762D01*
X048157Y006333D01*
X048088Y006402D01*
X047517Y006402D01*
X047447Y006333D01*
X047447Y006244D01*
X046813Y006244D01*
X046666Y006244D01*
X045918Y005496D01*
X045814Y005392D01*
X045814Y005221D01*
X045725Y005221D01*
X045656Y005151D01*
X045656Y004620D01*
X045725Y004550D01*
X045681Y004594D02*
X045592Y004594D01*
X045618Y004711D02*
X045656Y004711D01*
X045656Y004827D02*
X045618Y004827D01*
X045618Y004944D02*
X045656Y004944D01*
X045656Y005061D02*
X045618Y005061D01*
X045592Y005177D02*
X045681Y005177D01*
X045814Y005294D02*
X044672Y005294D01*
X044672Y005411D02*
X045832Y005411D01*
X045949Y005527D02*
X044672Y005527D01*
X044672Y005644D02*
X046066Y005644D01*
X046182Y005760D02*
X044672Y005760D01*
X044672Y005877D02*
X046299Y005877D01*
X046416Y005994D02*
X044672Y005994D01*
X044672Y006110D02*
X046532Y006110D01*
X046649Y006227D02*
X044672Y006227D01*
X044672Y006344D02*
X047458Y006344D01*
X047505Y006489D02*
X047545Y006479D01*
X047743Y006479D01*
X047743Y006815D01*
X047407Y006815D01*
X047407Y006617D01*
X047418Y006576D01*
X047439Y006540D01*
X047468Y006510D01*
X047505Y006489D01*
X047418Y006577D02*
X044672Y006577D01*
X044672Y006460D02*
X049663Y006460D01*
X049498Y006344D02*
X048146Y006344D01*
X048157Y006227D02*
X049334Y006227D01*
X049166Y006110D02*
X048157Y006110D01*
X048157Y005994D02*
X048967Y005994D01*
X048768Y005877D02*
X048157Y005877D01*
X048156Y005760D02*
X048569Y005760D01*
X048370Y005644D02*
X046567Y005644D01*
X046683Y005760D02*
X047448Y005760D01*
X047447Y005877D02*
X046800Y005877D01*
X046450Y005527D02*
X048171Y005527D01*
X047972Y005411D02*
X046334Y005411D01*
X046217Y005294D02*
X047773Y005294D01*
X047541Y005177D02*
X046262Y005177D01*
X046287Y005061D02*
X047296Y005061D01*
X047050Y004944D02*
X046287Y004944D01*
X046287Y004827D02*
X046805Y004827D01*
X046559Y004711D02*
X046287Y004711D01*
X046261Y004594D02*
X046314Y004594D01*
X046038Y004477D02*
X036271Y004477D01*
X032146Y004477D02*
X029956Y004477D01*
X030001Y004594D02*
X031766Y004594D01*
X031739Y004711D02*
X031423Y004711D01*
X031487Y004827D02*
X031771Y004827D01*
X031802Y004944D02*
X031518Y004944D01*
X031550Y005061D02*
X031833Y005061D01*
X031864Y005177D02*
X031581Y005177D01*
X031612Y005294D02*
X031896Y005294D01*
X031927Y005411D02*
X031655Y005411D01*
X031772Y005527D02*
X031958Y005527D01*
X031866Y006460D02*
X031779Y006460D01*
X031779Y006577D02*
X044318Y006577D01*
X044672Y006694D02*
X047407Y006694D01*
X047407Y006810D02*
X044672Y006810D01*
X044672Y006927D02*
X047743Y006927D01*
X047743Y006933D02*
X047743Y006815D01*
X047861Y006815D01*
X047861Y006479D01*
X048059Y006479D01*
X048100Y006489D01*
X048136Y006510D01*
X048166Y006540D01*
X048187Y006576D01*
X048197Y006617D01*
X048197Y006815D01*
X047861Y006815D01*
X047861Y006933D01*
X047743Y006933D01*
X047407Y006933D01*
X047407Y007131D01*
X047418Y007171D01*
X047439Y007208D01*
X047468Y007237D01*
X047505Y007258D01*
X047545Y007269D01*
X047743Y007269D01*
X047743Y006933D01*
X047743Y007044D02*
X047861Y007044D01*
X047861Y006933D02*
X047861Y007269D01*
X048059Y007269D01*
X048100Y007258D01*
X048136Y007237D01*
X048166Y007208D01*
X048187Y007171D01*
X048197Y007131D01*
X048197Y006933D01*
X047861Y006933D01*
X047861Y006927D02*
X050283Y006927D01*
X050283Y007044D02*
X049275Y007044D01*
X049250Y007031D02*
X049250Y007031D01*
X049517Y007160D02*
X049517Y007160D01*
X049517Y007160D01*
X050283Y007160D01*
X050283Y007277D02*
X049610Y007277D01*
X049702Y007392D02*
X049702Y007392D01*
X049702Y007394D02*
X050283Y007394D01*
X050283Y007510D02*
X049729Y007510D01*
X049755Y007627D02*
X050283Y007627D01*
X050283Y007744D02*
X049753Y007744D01*
X049727Y007860D02*
X050283Y007860D01*
X050283Y007977D02*
X049696Y007977D01*
X049702Y007970D02*
X049702Y007970D01*
X049603Y008094D02*
X050283Y008094D01*
X050283Y008210D02*
X049499Y008210D01*
X049257Y008327D02*
X050283Y008327D01*
X050283Y008444D02*
X030328Y008444D01*
X029518Y009027D02*
X029331Y009027D01*
X029401Y008910D02*
X029235Y008910D01*
X029351Y008793D02*
X029357Y008793D01*
X028968Y008910D02*
X028408Y008910D01*
X028412Y008906D02*
X028239Y009079D01*
X027995Y009079D01*
X027822Y008906D01*
X027822Y008661D01*
X027940Y008543D01*
X027940Y008305D01*
X027575Y007940D01*
X027575Y007883D01*
X026931Y008527D01*
X026784Y008527D01*
X026760Y008527D01*
X026760Y008616D01*
X026690Y008686D01*
X026262Y008686D01*
X026418Y008841D01*
X026690Y008841D01*
X026760Y008911D01*
X026760Y008936D01*
X026853Y008842D01*
X027098Y008842D01*
X027271Y009015D01*
X027271Y009260D01*
X027098Y009433D01*
X026853Y009433D01*
X026760Y009340D01*
X026760Y009443D01*
X026701Y009502D01*
X026740Y009541D01*
X026740Y009738D01*
X026759Y009757D01*
X026759Y009827D01*
X026986Y009827D01*
X026986Y009812D01*
X027034Y009764D01*
X027034Y009739D01*
X027034Y009560D01*
X027349Y009245D01*
X027349Y008630D01*
X027271Y008551D01*
X027271Y008307D01*
X027444Y008134D01*
X027688Y008134D01*
X027765Y008210D02*
X027845Y008210D01*
X027861Y008327D02*
X027940Y008327D01*
X027940Y008444D02*
X027861Y008444D01*
X027852Y008560D02*
X027923Y008560D01*
X027822Y008677D02*
X027782Y008677D01*
X027782Y008793D02*
X027822Y008793D01*
X027826Y008910D02*
X027782Y008910D01*
X027782Y009027D02*
X027943Y009027D01*
X028291Y009027D02*
X028854Y009027D01*
X028851Y008793D02*
X028412Y008793D01*
X028412Y008906D02*
X028412Y008661D01*
X028309Y008557D01*
X028648Y008218D01*
X028648Y008210D01*
X028539Y008327D02*
X028924Y008327D01*
X028866Y008444D02*
X028423Y008444D01*
X028312Y008560D02*
X028806Y008560D01*
X028806Y008677D02*
X028412Y008677D01*
X027349Y008677D02*
X026699Y008677D01*
X026760Y008560D02*
X027280Y008560D01*
X027271Y008444D02*
X027015Y008444D01*
X027131Y008327D02*
X027271Y008327D01*
X027248Y008210D02*
X027367Y008210D01*
X027481Y007977D02*
X027612Y007977D01*
X027349Y008793D02*
X026370Y008793D01*
X026759Y008910D02*
X026785Y008910D01*
X027165Y008910D02*
X027349Y008910D01*
X027349Y009027D02*
X027271Y009027D01*
X027271Y009143D02*
X027349Y009143D01*
X027334Y009260D02*
X027271Y009260D01*
X027217Y009377D02*
X027154Y009377D01*
X027101Y009493D02*
X026709Y009493D01*
X026740Y009610D02*
X027034Y009610D01*
X027034Y009727D02*
X026740Y009727D01*
X026760Y009377D02*
X026797Y009377D01*
X025872Y010077D02*
X025744Y010077D01*
X025744Y010193D02*
X025914Y010193D01*
X025847Y010310D02*
X025744Y010310D01*
X025744Y010427D02*
X025832Y010427D01*
X025832Y010543D02*
X025744Y010543D01*
X027535Y010777D02*
X028196Y010777D01*
X028313Y010660D02*
X027556Y010660D01*
X028845Y012023D02*
X028845Y012023D01*
X028808Y012060D02*
X029165Y012060D01*
X029048Y011943D02*
X028925Y011943D01*
X029449Y012176D02*
X028377Y012176D01*
X028260Y012293D02*
X031258Y012293D01*
X031375Y012410D02*
X028143Y012410D01*
X028027Y012526D02*
X031492Y012526D01*
X031608Y012643D02*
X024603Y012643D01*
X024504Y012760D02*
X023620Y012760D01*
X023600Y012643D02*
X023064Y012643D01*
X022777Y012643D02*
X021406Y012643D01*
X021401Y012760D02*
X022660Y012760D01*
X022625Y012876D02*
X021279Y012876D01*
X021098Y012993D02*
X017239Y012993D01*
X017239Y013110D02*
X019356Y013110D01*
X019356Y013226D02*
X017238Y013226D01*
X017238Y013343D02*
X019356Y013343D01*
X019356Y013460D02*
X017238Y013460D01*
X017238Y013576D02*
X019376Y013576D01*
X018708Y013926D02*
X020194Y013926D01*
X020184Y014043D02*
X018708Y014043D01*
X018708Y014160D02*
X020184Y014160D01*
X020279Y014276D02*
X018708Y014276D01*
X018708Y014393D02*
X021246Y014393D01*
X021220Y014626D02*
X018670Y014626D01*
X018708Y014509D02*
X021628Y014509D01*
X021556Y014626D02*
X021529Y014626D01*
X021529Y014743D02*
X021556Y014743D01*
X021528Y014859D02*
X020657Y014859D01*
X020657Y014976D02*
X021201Y014976D01*
X021236Y015093D02*
X020657Y015093D01*
X020657Y015209D02*
X021559Y015209D01*
X021556Y015093D02*
X021529Y015093D01*
X021529Y014976D02*
X021556Y014976D01*
X021442Y015326D02*
X020657Y015326D01*
X020648Y015693D02*
X020657Y015702D01*
X020657Y016047D01*
X021285Y016047D01*
X021272Y016034D01*
X021251Y015998D01*
X021241Y015958D01*
X021241Y015805D01*
X021568Y015805D01*
X021568Y015777D01*
X021241Y015777D01*
X021241Y015693D01*
X020648Y015693D01*
X020657Y015793D02*
X021568Y015793D01*
X021241Y015909D02*
X020657Y015909D01*
X020657Y016026D02*
X021267Y016026D01*
X021211Y016493D02*
X018242Y016493D01*
X018901Y016376D02*
X019695Y016376D01*
X019671Y016259D02*
X018925Y016259D01*
X018925Y016143D02*
X019671Y016143D01*
X019671Y016026D02*
X018925Y016026D01*
X018925Y015909D02*
X019671Y015909D01*
X019671Y015793D02*
X018925Y015793D01*
X018899Y015676D02*
X019523Y015676D01*
X019406Y015559D02*
X017229Y015559D01*
X017247Y015443D02*
X017974Y015443D01*
X017939Y015326D02*
X017249Y015326D01*
X017255Y015386D02*
X017255Y015386D01*
X017238Y015209D02*
X017939Y015209D01*
X017939Y015093D02*
X017235Y015093D01*
X017236Y014976D02*
X017939Y014976D01*
X017939Y014859D02*
X017236Y014859D01*
X017236Y014743D02*
X017954Y014743D01*
X018910Y014743D02*
X019686Y014743D01*
X019671Y014859D02*
X018925Y014859D01*
X019324Y014976D02*
X019671Y014976D01*
X019671Y015093D02*
X019441Y015093D01*
X019558Y015209D02*
X019671Y015209D01*
X019290Y015443D02*
X018890Y015443D01*
X018925Y015326D02*
X019173Y015326D01*
X017966Y015676D02*
X017212Y015676D01*
X017195Y015793D02*
X017939Y015793D01*
X017939Y015909D02*
X017154Y015909D01*
X017191Y015818D02*
X017191Y015818D01*
X017106Y016026D02*
X017662Y016026D01*
X017515Y016143D02*
X017059Y016143D01*
X017026Y016223D02*
X017026Y016223D01*
X017000Y016259D02*
X017398Y016259D01*
X017282Y016376D02*
X016918Y016376D01*
X016822Y016493D02*
X017165Y016493D01*
X017049Y016609D02*
X016727Y016609D01*
X016632Y016726D02*
X016932Y016726D01*
X016815Y016843D02*
X016516Y016843D01*
X016604Y016761D02*
X016604Y016761D01*
X016699Y016959D02*
X016390Y016959D01*
X016265Y017076D02*
X016582Y017076D01*
X016465Y017193D02*
X016139Y017193D01*
X016014Y017309D02*
X016349Y017309D01*
X016232Y017426D02*
X015874Y017426D01*
X015932Y017385D02*
X015932Y017385D01*
X016115Y017542D02*
X015707Y017542D01*
X015541Y017659D02*
X015999Y017659D01*
X015882Y017776D02*
X015374Y017776D01*
X015207Y017892D02*
X015765Y017892D01*
X015649Y018009D02*
X014989Y018009D01*
X015181Y017911D02*
X015181Y017911D01*
X015415Y018242D02*
X014533Y018242D01*
X014365Y018328D02*
X014365Y018328D01*
X014276Y018359D02*
X015299Y018359D01*
X015182Y018476D02*
X013941Y018476D01*
X013605Y018592D02*
X015065Y018592D01*
X014949Y018709D02*
X013099Y018709D01*
X013499Y018629D02*
X013499Y018629D01*
X012600Y018809D02*
X012600Y018809D01*
X012309Y018826D02*
X014832Y018826D01*
X014715Y018942D02*
X010299Y018942D01*
X010428Y018826D02*
X011206Y018826D01*
X011685Y018862D02*
X011685Y018862D01*
X010169Y019059D02*
X014599Y019059D01*
X014482Y019176D02*
X010039Y019176D01*
X009910Y019292D02*
X013165Y019292D01*
X013048Y019409D02*
X009780Y019409D01*
X009651Y019526D02*
X012931Y019526D01*
X012815Y019642D02*
X009521Y019642D01*
X009391Y019759D02*
X012698Y019759D01*
X012581Y019876D02*
X009262Y019876D01*
X009132Y019992D02*
X012465Y019992D01*
X012348Y020109D02*
X009002Y020109D01*
X008873Y020226D02*
X010834Y020226D01*
X010717Y020342D02*
X010347Y020342D01*
X010464Y020459D02*
X010601Y020459D01*
X010538Y021042D02*
X010482Y021042D01*
X010523Y021159D02*
X010366Y021159D01*
X010406Y021275D02*
X008645Y021275D01*
X008675Y021309D02*
X008542Y021161D01*
X008507Y021139D01*
X008467Y021126D01*
X008425Y021123D01*
X008384Y021132D01*
X008347Y021151D01*
X008200Y021284D01*
X008425Y021533D01*
X008504Y021621D01*
X008754Y021396D01*
X008886Y021544D01*
X008905Y021581D01*
X008914Y021622D01*
X008912Y021664D01*
X008899Y021703D01*
X008876Y021739D01*
X008729Y021871D01*
X008504Y021621D01*
X008416Y021700D01*
X008337Y021613D01*
X008087Y021838D01*
X007955Y021690D01*
X007936Y021653D01*
X007927Y021612D01*
X007929Y021570D01*
X007942Y021530D01*
X007965Y021495D01*
X008112Y021363D01*
X008337Y021612D01*
X008425Y021533D01*
X008675Y021309D01*
X008582Y021392D02*
X009947Y021392D01*
X009831Y021509D02*
X008855Y021509D01*
X008914Y021625D02*
X009753Y021625D01*
X009753Y021742D02*
X008872Y021742D01*
X008743Y021859D02*
X009753Y021859D01*
X009795Y021975D02*
X008613Y021975D01*
X008641Y021950D02*
X008494Y022083D01*
X008456Y022102D01*
X008416Y022110D01*
X008374Y022108D01*
X008334Y022095D01*
X008299Y022072D01*
X008166Y021925D01*
X008416Y021700D01*
X008641Y021950D01*
X008717Y021859D02*
X008559Y021859D01*
X008612Y021742D02*
X008454Y021742D01*
X008370Y021742D02*
X008193Y021742D01*
X008240Y021859D02*
X008004Y021859D01*
X008001Y021742D02*
X007899Y021742D01*
X007879Y021720D02*
X008261Y022145D01*
X008256Y022243D01*
X008189Y022303D01*
X008233Y022346D01*
X009273Y022346D01*
X009377Y022450D01*
X009587Y022660D01*
X009918Y022660D01*
X009988Y022730D01*
X009988Y023262D01*
X009918Y023331D01*
X009426Y023331D01*
X009356Y023262D01*
X009356Y022931D01*
X009126Y022701D01*
X008233Y022701D01*
X008086Y022701D01*
X007926Y022540D01*
X007831Y022625D01*
X007733Y022620D01*
X007351Y022196D01*
X007356Y022097D01*
X007780Y021715D01*
X007879Y021720D01*
X007930Y021625D02*
X007317Y021625D01*
X007188Y021742D02*
X007751Y021742D01*
X007621Y021859D02*
X007058Y021859D01*
X006929Y021975D02*
X007491Y021975D01*
X007362Y022092D02*
X006799Y022092D01*
X006759Y022209D02*
X007363Y022209D01*
X007468Y022325D02*
X006979Y022325D01*
X007200Y022442D02*
X007573Y022442D01*
X007678Y022559D02*
X007449Y022559D01*
X007709Y022675D02*
X008061Y022675D01*
X007969Y022792D02*
X009218Y022792D01*
X009334Y022909D02*
X008229Y022909D01*
X008489Y023025D02*
X009356Y023025D01*
X009356Y023142D02*
X008749Y023142D01*
X009077Y023259D02*
X009356Y023259D01*
X009412Y023375D02*
X012018Y023375D01*
X012044Y023259D02*
X010657Y023259D01*
X010657Y023262D02*
X010588Y023331D01*
X010095Y023331D01*
X010026Y023262D01*
X010026Y022730D01*
X010095Y022660D01*
X010588Y022660D01*
X010657Y022730D01*
X010657Y022794D01*
X010790Y022661D01*
X011035Y022661D01*
X011208Y022834D01*
X011208Y023079D01*
X011035Y023252D01*
X010790Y023252D01*
X010711Y023173D01*
X010657Y023173D01*
X010657Y023262D01*
X011145Y023142D02*
X012137Y023142D01*
X012044Y023258D02*
X012229Y023026D01*
X012496Y022898D01*
X012496Y022898D01*
X012793Y022898D01*
X013060Y023026D01*
X013060Y023026D01*
X013060Y023026D01*
X013245Y023258D01*
X013311Y023547D01*
X013245Y023836D01*
X013245Y023836D01*
X013060Y024068D01*
X012793Y024197D01*
X012496Y024197D01*
X012229Y024068D01*
X012044Y023836D01*
X011979Y023547D01*
X012044Y023258D01*
X012044Y023258D01*
X011991Y023492D02*
X009746Y023492D01*
X009988Y023259D02*
X010026Y023259D01*
X010026Y023142D02*
X009988Y023142D01*
X009988Y023025D02*
X010026Y023025D01*
X010026Y022909D02*
X009988Y022909D01*
X009988Y022792D02*
X010026Y022792D01*
X010080Y022675D02*
X009933Y022675D01*
X009485Y022559D02*
X017577Y022559D01*
X017870Y022559D02*
X018628Y022559D01*
X018628Y022675D02*
X011049Y022675D01*
X011165Y022792D02*
X018628Y022792D01*
X018628Y022909D02*
X012816Y022909D01*
X012793Y022898D02*
X012793Y022898D01*
X013058Y023025D02*
X018628Y023025D01*
X018628Y023142D02*
X013152Y023142D01*
X013245Y023258D02*
X013245Y023258D01*
X013245Y023259D02*
X018628Y023259D01*
X018643Y023375D02*
X013272Y023375D01*
X013298Y023492D02*
X022040Y023492D01*
X022235Y023259D02*
X022345Y023259D01*
X022358Y023375D02*
X021528Y023375D01*
X021543Y023259D02*
X021715Y023259D01*
X021699Y023142D02*
X021543Y023142D01*
X021543Y023025D02*
X021699Y023025D01*
X022252Y023025D02*
X022329Y023025D01*
X022329Y022909D02*
X022252Y022909D01*
X022252Y022792D02*
X022329Y022792D01*
X022329Y022675D02*
X022252Y022675D01*
X022252Y022559D02*
X022329Y022559D01*
X023313Y022499D02*
X023318Y022504D01*
X023634Y022504D01*
X023869Y022269D01*
X023806Y022269D01*
X023806Y021913D01*
X024221Y021913D01*
X024221Y021917D01*
X024258Y021880D01*
X024258Y021631D01*
X024221Y021594D01*
X024221Y021795D01*
X023806Y021795D01*
X023806Y021913D01*
X023688Y021913D01*
X023452Y021913D01*
X023452Y021795D01*
X023688Y021795D01*
X023688Y021913D01*
X023688Y022269D01*
X023452Y022269D01*
X023452Y022361D01*
X023348Y022464D01*
X023313Y022499D01*
X023370Y022442D02*
X023696Y022442D01*
X023813Y022325D02*
X023452Y022325D01*
X023688Y022209D02*
X023806Y022209D01*
X023806Y022092D02*
X023688Y022092D01*
X023688Y021975D02*
X023806Y021975D01*
X023806Y021859D02*
X024258Y021859D01*
X024258Y021742D02*
X024221Y021742D01*
X024221Y021625D02*
X024252Y021625D01*
X023688Y021859D02*
X023452Y021859D01*
X023097Y021667D02*
X023097Y021275D01*
X022770Y021275D01*
X022727Y021275D01*
X022625Y021376D01*
X022521Y021480D01*
X022098Y021480D01*
X021940Y021638D01*
X021696Y021638D01*
X021687Y021629D01*
X021687Y021745D01*
X021676Y021786D01*
X021655Y021822D01*
X021642Y021834D01*
X021952Y021834D01*
X021952Y021736D01*
X022022Y021667D01*
X022339Y021667D01*
X022347Y021658D01*
X022384Y021637D01*
X022424Y021627D01*
X022573Y021627D01*
X022573Y021972D01*
X022593Y021972D01*
X022593Y021627D01*
X022742Y021627D01*
X022782Y021637D01*
X022818Y021658D01*
X022827Y021667D01*
X023097Y021667D01*
X023097Y021625D02*
X021952Y021625D01*
X021952Y021742D02*
X021687Y021742D01*
X021359Y021509D02*
X021332Y021509D01*
X021332Y021392D02*
X021359Y021392D01*
X021359Y021275D02*
X021332Y021275D01*
X021137Y021275D02*
X019711Y021275D01*
X019827Y021159D02*
X020346Y021159D01*
X020332Y021145D02*
X020311Y021108D01*
X020301Y021068D01*
X020301Y020870D01*
X020617Y020870D01*
X020617Y021206D01*
X020439Y021206D01*
X020398Y021195D01*
X020362Y021174D01*
X020332Y021145D01*
X020301Y021042D02*
X019944Y021042D01*
X020061Y020925D02*
X020301Y020925D01*
X020177Y020809D02*
X020617Y020809D01*
X020617Y020925D02*
X020696Y020925D01*
X020696Y021042D02*
X020617Y021042D01*
X020617Y021159D02*
X020696Y021159D01*
X020572Y021392D02*
X019594Y021392D01*
X019477Y021509D02*
X020141Y021509D01*
X020066Y021625D02*
X019361Y021625D01*
X019244Y021742D02*
X020066Y021742D01*
X020066Y021859D02*
X019128Y021859D01*
X019160Y021826D02*
X019160Y021826D01*
X018865Y021509D02*
X016142Y021509D01*
X015762Y021509D02*
X015514Y021509D01*
X015591Y021625D02*
X015657Y021625D01*
X015657Y021742D02*
X015591Y021742D01*
X015591Y021859D02*
X015657Y021859D01*
X015694Y021975D02*
X015774Y021975D01*
X016130Y021975D02*
X020066Y021975D01*
X020066Y022092D02*
X017946Y022092D01*
X018019Y022209D02*
X020066Y022209D01*
X019955Y022325D02*
X019811Y022325D01*
X019811Y022442D02*
X019838Y022442D01*
X020106Y022675D02*
X020360Y022675D01*
X020360Y022559D02*
X020222Y022559D01*
X020316Y022464D02*
X020317Y022464D01*
X020339Y022442D02*
X020360Y022442D01*
X020360Y022792D02*
X019989Y022792D01*
X019872Y022909D02*
X020360Y022909D01*
X020360Y023025D02*
X019811Y023025D01*
X019811Y023142D02*
X020360Y023142D01*
X020360Y023259D02*
X019811Y023259D01*
X019796Y023375D02*
X020375Y023375D01*
X020862Y023842D02*
X013240Y023842D01*
X013270Y023725D02*
X021291Y023725D01*
X021720Y023608D02*
X013297Y023608D01*
X013147Y023958D02*
X020433Y023958D01*
X019940Y024075D02*
X013045Y024075D01*
X013060Y024068D02*
X013060Y024068D01*
X013164Y024308D02*
X018656Y024308D01*
X019298Y024192D02*
X012803Y024192D01*
X012793Y024197D02*
X012793Y024197D01*
X012496Y024197D02*
X012496Y024197D01*
X012486Y024192D02*
X012459Y024192D01*
X012244Y024075D02*
X011816Y024075D01*
X012049Y023842D02*
X010902Y023842D01*
X010445Y023725D02*
X012019Y023725D01*
X012044Y023836D02*
X012044Y023836D01*
X012142Y023958D02*
X011359Y023958D01*
X012229Y024068D02*
X012229Y024068D01*
X012229Y024068D01*
X011993Y023608D02*
X010080Y023608D01*
X011208Y023025D02*
X012231Y023025D01*
X012229Y023026D02*
X012229Y023026D01*
X012474Y022909D02*
X011208Y022909D01*
X010776Y022675D02*
X010603Y022675D01*
X010657Y022792D02*
X010659Y022792D01*
X010999Y022179D02*
X010753Y021933D01*
X010753Y021586D01*
X010999Y021341D01*
X011346Y021341D01*
X011591Y021586D01*
X011591Y021933D01*
X011346Y022179D01*
X010999Y022179D01*
X010912Y022092D02*
X010433Y022092D01*
X010549Y021975D02*
X010795Y021975D01*
X010753Y021859D02*
X010591Y021859D01*
X010591Y021742D02*
X010753Y021742D01*
X010753Y021625D02*
X010591Y021625D01*
X010674Y021509D02*
X010831Y021509D01*
X010790Y021392D02*
X010947Y021392D01*
X010893Y021275D02*
X011437Y021275D01*
X011397Y021392D02*
X011947Y021392D01*
X011831Y021509D02*
X011514Y021509D01*
X011591Y021625D02*
X011753Y021625D01*
X011753Y021742D02*
X011591Y021742D01*
X011591Y021859D02*
X011753Y021859D01*
X011795Y021975D02*
X011549Y021975D01*
X011433Y022092D02*
X011912Y022092D01*
X012433Y022092D02*
X012855Y022092D01*
X012739Y021975D02*
X012549Y021975D01*
X012591Y021859D02*
X012713Y021859D01*
X012591Y021742D02*
X013131Y021742D01*
X013213Y021742D02*
X013753Y021742D01*
X013753Y021859D02*
X013631Y021859D01*
X013631Y021801D02*
X013631Y021950D01*
X013362Y022219D01*
X013213Y022219D01*
X013213Y021801D01*
X013631Y021801D01*
X013631Y021625D02*
X013753Y021625D01*
X013831Y021509D02*
X013570Y021509D01*
X013454Y021392D02*
X013947Y021392D01*
X013979Y021159D02*
X013630Y021159D01*
X013531Y021258D02*
X013531Y021258D01*
X013513Y021275D02*
X014406Y021275D01*
X014366Y021159D02*
X014523Y021159D01*
X014482Y021042D02*
X014639Y021042D01*
X014591Y020925D02*
X014753Y020925D01*
X014753Y020809D02*
X014591Y020809D01*
X014591Y020692D02*
X014753Y020692D01*
X014764Y020575D02*
X014607Y020575D01*
X014724Y020459D02*
X014881Y020459D01*
X013862Y021042D02*
X013747Y021042D01*
X012891Y021392D02*
X012790Y021392D01*
X012774Y021509D02*
X012674Y021509D01*
X012713Y021625D02*
X012591Y021625D01*
X013131Y021859D02*
X013213Y021859D01*
X013213Y021975D02*
X013131Y021975D01*
X013131Y022092D02*
X013213Y022092D01*
X013213Y022209D02*
X013131Y022209D01*
X012972Y022209D02*
X008258Y022209D01*
X008212Y022325D02*
X015432Y022325D01*
X015548Y022442D02*
X009369Y022442D01*
X009912Y022092D02*
X008476Y022092D01*
X008329Y022092D02*
X008214Y022092D01*
X008211Y021975D02*
X008109Y021975D01*
X008323Y021625D02*
X008348Y021625D01*
X008402Y021509D02*
X008244Y021509D01*
X008297Y021392D02*
X008139Y021392D01*
X008079Y021392D02*
X007577Y021392D01*
X007706Y021275D02*
X008209Y021275D01*
X008339Y021159D02*
X007836Y021159D01*
X007966Y021042D02*
X009862Y021042D01*
X009753Y020925D02*
X008095Y020925D01*
X008225Y020809D02*
X009753Y020809D01*
X009753Y020692D02*
X008354Y020692D01*
X008484Y020575D02*
X009764Y020575D01*
X009881Y020459D02*
X008614Y020459D01*
X008743Y020342D02*
X009997Y020342D01*
X009979Y021159D02*
X008538Y021159D01*
X008452Y021509D02*
X008629Y021509D01*
X008507Y021625D02*
X008499Y021625D01*
X007956Y021509D02*
X007447Y021509D01*
X007905Y022559D02*
X007944Y022559D01*
X010893Y021159D02*
X010979Y021159D01*
X013372Y022209D02*
X015315Y022209D01*
X014912Y022092D02*
X014433Y022092D01*
X014549Y021975D02*
X014795Y021975D01*
X014753Y021859D02*
X014591Y021859D01*
X014591Y021742D02*
X014753Y021742D01*
X014753Y021625D02*
X014591Y021625D01*
X014674Y021509D02*
X014831Y021509D01*
X014790Y021392D02*
X014947Y021392D01*
X015397Y021392D02*
X018982Y021392D01*
X019098Y021275D02*
X018759Y021275D01*
X020294Y020692D02*
X020301Y020692D01*
X020617Y020692D02*
X020696Y020692D01*
X020696Y020575D02*
X020617Y020575D01*
X020617Y020459D02*
X020696Y020459D01*
X020644Y020342D02*
X021011Y020342D01*
X021011Y020459D02*
X020889Y020459D01*
X021008Y020575D02*
X021010Y020575D01*
X021642Y020809D02*
X021680Y020809D01*
X021680Y020925D02*
X021642Y020925D01*
X021642Y021042D02*
X021680Y021042D01*
X021584Y021159D02*
X021579Y021159D01*
X021072Y021159D02*
X020967Y021159D01*
X022069Y021509D02*
X023097Y021509D01*
X023097Y021392D02*
X022609Y021392D01*
X022726Y021275D02*
X023097Y021275D01*
X022593Y021742D02*
X022573Y021742D01*
X022573Y021859D02*
X022593Y021859D01*
X022329Y023142D02*
X022252Y023142D01*
X018628Y022442D02*
X017986Y022442D01*
X018019Y022325D02*
X018628Y022325D01*
X017554Y024425D02*
X014211Y024425D01*
X011979Y023547D02*
X011979Y023547D01*
X013489Y022092D02*
X013912Y022092D01*
X013795Y021975D02*
X013606Y021975D01*
X014761Y018126D02*
X015532Y018126D01*
X020249Y016609D02*
X021094Y016609D01*
X021050Y016726D02*
X020365Y016726D01*
X020482Y016843D02*
X021050Y016843D01*
X021112Y016959D02*
X020599Y016959D01*
X020715Y017076D02*
X021395Y017076D01*
X021663Y016843D02*
X021798Y016843D01*
X021798Y016726D02*
X021641Y016726D01*
X021597Y016609D02*
X021842Y016609D01*
X021959Y016493D02*
X021480Y016493D01*
X022138Y016401D02*
X022138Y016401D01*
X022228Y016493D02*
X022229Y016493D01*
X021860Y016959D02*
X021780Y016959D01*
X023112Y016913D02*
X023176Y016978D01*
X023309Y017110D01*
X023595Y017110D01*
X023674Y017110D01*
X023669Y017105D01*
X023648Y017069D01*
X023637Y017029D01*
X023637Y016953D01*
X024091Y016953D01*
X024091Y016952D01*
X023637Y016952D01*
X023637Y016913D01*
X023112Y016913D01*
X023158Y016959D02*
X023637Y016959D01*
X023652Y017076D02*
X023274Y017076D01*
X024092Y016953D02*
X024546Y016953D01*
X024546Y016972D01*
X025105Y016972D01*
X025105Y016968D01*
X025278Y016795D01*
X025523Y016795D01*
X025278Y016795D01*
X025160Y016677D01*
X024506Y016677D01*
X024506Y016792D01*
X024514Y016800D01*
X024535Y016836D01*
X024546Y016876D01*
X024546Y016952D01*
X024092Y016952D01*
X024092Y016953D01*
X024546Y016959D02*
X025114Y016959D01*
X025231Y016843D02*
X024537Y016843D01*
X024506Y016726D02*
X025209Y016726D01*
X025523Y016795D02*
X025696Y016622D01*
X025696Y016378D01*
X025523Y016205D01*
X025278Y016205D01*
X025160Y016323D01*
X024893Y016323D01*
X024948Y016268D01*
X024948Y016023D01*
X024873Y015949D01*
X024948Y015874D01*
X024948Y015677D01*
X025042Y015771D01*
X025287Y015771D01*
X025361Y015697D01*
X025436Y015771D01*
X025680Y015771D01*
X025853Y015599D01*
X025853Y015354D01*
X025829Y015329D01*
X026025Y015329D01*
X026221Y015329D01*
X026418Y015329D01*
X026615Y015329D01*
X026808Y015329D01*
X026911Y015329D01*
X026390Y015850D01*
X026390Y015850D01*
X026286Y015954D01*
X026286Y016820D01*
X026233Y016874D01*
X025760Y016874D01*
X025681Y016953D01*
X025523Y016795D01*
X025570Y016843D02*
X026264Y016843D01*
X026286Y016726D02*
X025592Y016726D01*
X025696Y016609D02*
X026286Y016609D01*
X026286Y016493D02*
X025696Y016493D01*
X025694Y016376D02*
X026286Y016376D01*
X026286Y016259D02*
X025578Y016259D01*
X025224Y016259D02*
X024948Y016259D01*
X024948Y016143D02*
X026286Y016143D01*
X026286Y016026D02*
X024948Y016026D01*
X024913Y015909D02*
X026331Y015909D01*
X026448Y015793D02*
X024948Y015793D01*
X024869Y015443D02*
X024506Y015443D01*
X024560Y015326D02*
X024444Y015326D01*
X024494Y015209D02*
X023491Y015209D01*
X023466Y015093D02*
X024127Y015093D01*
X024011Y014976D02*
X023350Y014976D01*
X023354Y014743D02*
X022926Y014743D01*
X023019Y014859D02*
X023964Y014859D01*
X024391Y015093D02*
X024494Y015093D01*
X023237Y014626D02*
X022809Y014626D01*
X022693Y014509D02*
X023120Y014509D01*
X023004Y014393D02*
X022576Y014393D01*
X022460Y014276D02*
X022887Y014276D01*
X022770Y014160D02*
X022343Y014160D01*
X022428Y014245D02*
X022428Y014245D01*
X022299Y014043D02*
X021917Y014043D01*
X021917Y013926D02*
X022183Y013926D01*
X021978Y013810D02*
X020648Y013810D01*
X020311Y013810D02*
X018634Y013810D01*
X017238Y013693D02*
X021246Y013693D01*
X021020Y014276D02*
X020680Y014276D01*
X020643Y014743D02*
X021201Y014743D01*
X023019Y014976D02*
X023042Y014976D01*
X023168Y016092D02*
X022895Y016092D01*
X022895Y016120D01*
X023186Y016120D01*
X023186Y016309D01*
X023175Y016350D01*
X023156Y016382D01*
X023418Y016382D01*
X023373Y016337D01*
X023373Y016190D01*
X023373Y016180D01*
X023359Y016165D01*
X023241Y016165D01*
X023168Y016092D01*
X023186Y016143D02*
X023218Y016143D01*
X023186Y016259D02*
X023373Y016259D01*
X023412Y016376D02*
X023160Y016376D01*
X025776Y015676D02*
X026564Y015676D01*
X026681Y015559D02*
X025853Y015559D01*
X025853Y015443D02*
X026798Y015443D01*
X027664Y015209D02*
X027966Y015209D01*
X028025Y015093D02*
X027664Y015093D01*
X028268Y015209D02*
X029987Y015209D01*
X029996Y015093D02*
X028288Y015093D01*
X028385Y015326D02*
X029987Y015326D01*
X029987Y015443D02*
X029397Y015443D01*
X029514Y015559D02*
X029987Y015559D01*
X029987Y015676D02*
X029631Y015676D01*
X028884Y015443D02*
X028412Y015443D01*
X028412Y015559D02*
X028768Y015559D01*
X029293Y016638D02*
X029450Y016795D01*
X029554Y016899D01*
X029554Y017017D01*
X029923Y017386D01*
X030045Y017386D01*
X029996Y017337D01*
X029996Y017153D01*
X029987Y017144D01*
X029874Y017031D01*
X029727Y017031D01*
X029554Y016858D01*
X029554Y016638D01*
X029293Y016638D01*
X029381Y016726D02*
X029554Y016726D01*
X029554Y016843D02*
X029498Y016843D01*
X029554Y016959D02*
X029655Y016959D01*
X029613Y017076D02*
X029919Y017076D01*
X029996Y017193D02*
X029730Y017193D01*
X029846Y017309D02*
X029996Y017309D01*
X030558Y017309D02*
X030558Y017309D01*
X030558Y017386D02*
X030558Y017071D01*
X030558Y017386D01*
X030558Y017386D01*
X030558Y017193D02*
X030558Y017193D01*
X030558Y017076D02*
X030558Y017076D01*
X030558Y017071D02*
X030558Y017071D01*
X031168Y016726D02*
X032119Y016726D01*
X032540Y016726D02*
X046311Y016726D01*
X046247Y016609D02*
X031168Y016609D01*
X031168Y016493D02*
X046247Y016493D01*
X046288Y016376D02*
X031168Y016376D01*
X031168Y016259D02*
X041026Y016259D01*
X041319Y016259D02*
X046405Y016259D01*
X046680Y016259D02*
X047093Y016259D01*
X047093Y016143D02*
X041435Y016143D01*
X041468Y016026D02*
X047093Y016026D01*
X047468Y016106D02*
X047527Y016106D01*
X047527Y015791D01*
X047487Y015752D01*
X046779Y015752D01*
X044849Y013823D01*
X044889Y013783D01*
X045184Y013810D02*
X047223Y013810D01*
X047223Y013926D02*
X045231Y013926D01*
X045608Y014859D02*
X031156Y014859D01*
X031273Y014976D02*
X045724Y014976D01*
X045841Y015093D02*
X031390Y015093D01*
X031444Y015209D02*
X045958Y015209D01*
X046074Y015326D02*
X031444Y015326D01*
X031444Y015443D02*
X046191Y015443D01*
X046308Y015559D02*
X031444Y015559D01*
X031444Y015676D02*
X046424Y015676D01*
X046541Y015793D02*
X041394Y015793D01*
X041468Y015909D02*
X046658Y015909D01*
X047573Y015559D02*
X048668Y015559D01*
X048556Y015676D02*
X047690Y015676D01*
X047791Y015443D02*
X047817Y015443D01*
X048216Y016106D02*
X048235Y016126D01*
X048235Y016382D01*
X048078Y016539D01*
X046542Y016539D01*
X046815Y016843D02*
X032625Y016843D01*
X032625Y016959D02*
X046699Y016959D01*
X046582Y017076D02*
X032604Y017076D01*
X032488Y017193D02*
X046465Y017193D01*
X046349Y017309D02*
X041982Y017309D01*
X042099Y017426D02*
X046232Y017426D01*
X046115Y017542D02*
X042113Y017542D01*
X042165Y017659D02*
X045999Y017659D01*
X046266Y017892D02*
X050283Y017892D01*
X050283Y017776D02*
X046383Y017776D01*
X046500Y017659D02*
X050283Y017659D01*
X050283Y017542D02*
X046616Y017542D01*
X046733Y017426D02*
X050283Y017426D01*
X050283Y017309D02*
X048421Y017309D01*
X048453Y017193D02*
X050283Y017193D01*
X050283Y017076D02*
X048453Y017076D01*
X048453Y016959D02*
X050283Y016959D01*
X050283Y016843D02*
X048453Y016843D01*
X048433Y016726D02*
X050283Y016726D01*
X050283Y016609D02*
X048432Y016609D01*
X047821Y016843D02*
X047783Y016843D01*
X047783Y016959D02*
X047821Y016959D01*
X047821Y017076D02*
X047783Y017076D01*
X047783Y017193D02*
X047821Y017193D01*
X047853Y017309D02*
X047752Y017309D01*
X047183Y017309D02*
X046850Y017309D01*
X046966Y017193D02*
X047152Y017193D01*
X046150Y018009D02*
X050283Y018009D01*
X050283Y018126D02*
X042444Y018126D01*
X042468Y018242D02*
X050283Y018242D01*
X050283Y018359D02*
X048190Y018359D01*
X048187Y018348D02*
X048197Y018388D01*
X048197Y018586D01*
X047861Y018586D01*
X047861Y018250D01*
X048059Y018250D01*
X048100Y018261D01*
X048136Y018282D01*
X048166Y018312D01*
X048187Y018348D01*
X048197Y018476D02*
X050283Y018476D01*
X050283Y018592D02*
X047861Y018592D01*
X047861Y018586D02*
X047861Y018704D01*
X048197Y018704D01*
X048197Y018903D01*
X048187Y018943D01*
X048166Y018979D01*
X048136Y019009D01*
X048100Y019030D01*
X048059Y019041D01*
X047861Y019041D01*
X047861Y018705D01*
X047743Y018705D01*
X047743Y019041D01*
X047545Y019041D01*
X047505Y019030D01*
X047468Y019009D01*
X047439Y018979D01*
X047418Y018943D01*
X047407Y018903D01*
X047407Y018704D01*
X047743Y018704D01*
X047743Y018586D01*
X047861Y018586D01*
X047861Y018476D02*
X047743Y018476D01*
X047743Y018586D02*
X047743Y018250D01*
X047545Y018250D01*
X047505Y018261D01*
X047468Y018282D01*
X047439Y018312D01*
X047418Y018348D01*
X047407Y018388D01*
X047407Y018586D01*
X047743Y018586D01*
X047743Y018592D02*
X042674Y018592D01*
X042743Y018709D02*
X047407Y018709D01*
X047407Y018826D02*
X042743Y018826D01*
X042706Y018942D02*
X047418Y018942D01*
X047517Y019117D02*
X048088Y019117D01*
X048157Y019187D01*
X048157Y019758D01*
X048088Y019828D01*
X047517Y019828D01*
X047447Y019758D01*
X047447Y019669D01*
X046773Y019669D01*
X046168Y020274D01*
X046168Y020298D01*
X046218Y020298D01*
X046287Y020368D01*
X046287Y020900D01*
X046218Y020969D01*
X045725Y020969D01*
X045656Y020900D01*
X045656Y020368D01*
X045725Y020298D01*
X045814Y020298D01*
X045814Y020127D01*
X045918Y020023D01*
X046626Y019315D01*
X046773Y019315D01*
X047447Y019315D01*
X047447Y019187D01*
X047517Y019117D01*
X047458Y019176D02*
X043642Y019176D01*
X043759Y019292D02*
X047447Y019292D01*
X047448Y019759D02*
X046683Y019759D01*
X046567Y019876D02*
X048370Y019876D01*
X048171Y019992D02*
X046450Y019992D01*
X046333Y020109D02*
X047972Y020109D01*
X047773Y020226D02*
X046217Y020226D01*
X046262Y020342D02*
X047541Y020342D01*
X047296Y020459D02*
X046287Y020459D01*
X046287Y020575D02*
X047050Y020575D01*
X046805Y020692D02*
X046287Y020692D01*
X046287Y020809D02*
X046559Y020809D01*
X046314Y020925D02*
X046261Y020925D01*
X046038Y021042D02*
X036271Y021042D01*
X036320Y021159D02*
X045725Y021159D01*
X045681Y020925D02*
X045592Y020925D01*
X045618Y020809D02*
X045656Y020809D01*
X045656Y020692D02*
X045618Y020692D01*
X045618Y020575D02*
X045656Y020575D01*
X045656Y020459D02*
X045618Y020459D01*
X045592Y020342D02*
X045681Y020342D01*
X045814Y020226D02*
X044692Y020226D01*
X044808Y020342D02*
X045012Y020342D01*
X044575Y020109D02*
X045832Y020109D01*
X045949Y019992D02*
X044459Y019992D01*
X044342Y019876D02*
X046066Y019876D01*
X046182Y019759D02*
X044225Y019759D01*
X044109Y019642D02*
X046299Y019642D01*
X046416Y019526D02*
X043992Y019526D01*
X043875Y019409D02*
X046532Y019409D01*
X047743Y018942D02*
X047861Y018942D01*
X047861Y018826D02*
X047743Y018826D01*
X047743Y018709D02*
X047861Y018709D01*
X048197Y018709D02*
X050157Y018709D01*
X049992Y018826D02*
X048197Y018826D01*
X048187Y018942D02*
X049827Y018942D01*
X049663Y019059D02*
X042590Y019059D01*
X042306Y019059D02*
X035031Y019059D01*
X034790Y018942D02*
X041569Y018942D01*
X041452Y018826D02*
X034758Y018826D01*
X034554Y019409D02*
X034491Y019409D01*
X034374Y019526D02*
X034662Y019526D01*
X034869Y019642D02*
X034257Y019642D01*
X034141Y019759D02*
X034869Y019759D01*
X034973Y019876D02*
X034024Y019876D01*
X033907Y019992D02*
X034987Y019992D01*
X034987Y020109D02*
X034178Y020109D01*
X034201Y020226D02*
X034987Y020226D01*
X034987Y020342D02*
X034201Y020342D01*
X034201Y020459D02*
X034987Y020459D01*
X034987Y020575D02*
X034201Y020575D01*
X034172Y020692D02*
X034974Y020692D01*
X034857Y020809D02*
X034701Y020809D01*
X034732Y020925D02*
X034740Y020925D01*
X034673Y021392D02*
X034830Y021392D01*
X034830Y021509D02*
X033866Y021509D01*
X033866Y021625D02*
X033943Y021625D01*
X034002Y021392D02*
X033866Y021392D01*
X033866Y021275D02*
X033943Y021275D01*
X033943Y021159D02*
X033811Y021159D01*
X033943Y021042D02*
X033649Y021042D01*
X033649Y020925D02*
X033943Y020925D01*
X033974Y020809D02*
X033724Y020809D01*
X033569Y020459D02*
X033531Y020459D01*
X033531Y020342D02*
X033569Y020342D01*
X033569Y020226D02*
X033531Y020226D01*
X033509Y020109D02*
X033592Y020109D01*
X032922Y020109D02*
X031855Y020109D01*
X030737Y019564D02*
X030849Y019144D01*
X030945Y019170D01*
X030981Y019191D01*
X031011Y019221D01*
X031017Y019231D01*
X031209Y019282D01*
X031456Y019349D01*
X031456Y019349D01*
X031471Y019352D01*
X031562Y019261D01*
X031562Y019014D01*
X031311Y018764D01*
X031248Y018764D01*
X031248Y019049D01*
X031178Y019119D01*
X030754Y019119D01*
X030849Y019144D01*
X030736Y019564D01*
X030737Y019564D01*
X030746Y019526D02*
X030747Y019526D01*
X030778Y019409D02*
X030778Y019409D01*
X030809Y019292D02*
X030809Y019292D01*
X030840Y019176D02*
X030841Y019176D01*
X030954Y019176D02*
X031562Y019176D01*
X031562Y019059D02*
X031238Y019059D01*
X031248Y018942D02*
X031490Y018942D01*
X031374Y018826D02*
X031248Y018826D01*
X031246Y019292D02*
X031531Y019292D01*
X029379Y021159D02*
X028897Y021159D01*
X028905Y021042D02*
X028717Y021042D01*
X029265Y021275D02*
X029816Y021275D01*
X029636Y021392D02*
X030254Y021392D01*
X030378Y021625D02*
X031129Y021625D01*
X031279Y021859D02*
X032004Y021859D01*
X031774Y021975D02*
X032437Y021975D01*
X032269Y022092D02*
X033954Y022092D01*
X033667Y022325D02*
X041409Y022325D01*
X041366Y022209D02*
X041978Y022209D01*
X041813Y022092D02*
X041532Y022092D01*
X041587Y022037D02*
X041449Y022174D01*
X041270Y022249D01*
X041075Y022249D01*
X040895Y022174D01*
X040758Y022037D01*
X040683Y021857D01*
X040683Y021662D01*
X040758Y021483D01*
X040895Y021345D01*
X041075Y021271D01*
X041270Y021271D01*
X041449Y021345D01*
X041587Y021483D01*
X041661Y021662D01*
X041661Y021857D01*
X041587Y022037D01*
X041612Y021975D02*
X041732Y021975D01*
X041684Y021859D02*
X041661Y021859D01*
X041661Y021742D02*
X041683Y021742D01*
X041699Y021625D02*
X041646Y021625D01*
X041598Y021509D02*
X041747Y021509D01*
X041848Y021392D02*
X041496Y021392D01*
X041281Y021275D02*
X042063Y021275D01*
X042281Y021275D02*
X045413Y021275D01*
X045100Y021392D02*
X042496Y021392D01*
X042598Y021509D02*
X044788Y021509D01*
X044436Y021625D02*
X042646Y021625D01*
X042661Y021742D02*
X044016Y021742D01*
X043596Y021859D02*
X042661Y021859D01*
X042612Y021975D02*
X043176Y021975D01*
X042659Y022092D02*
X042532Y022092D01*
X040978Y022209D02*
X040366Y022209D01*
X040449Y022174D02*
X040270Y022249D01*
X040075Y022249D01*
X039895Y022174D01*
X039758Y022037D01*
X039683Y021857D01*
X039683Y021662D01*
X039758Y021483D01*
X039895Y021345D01*
X040075Y021271D01*
X040270Y021271D01*
X040449Y021345D01*
X040587Y021483D01*
X040661Y021662D01*
X040661Y021857D01*
X040587Y022037D01*
X040449Y022174D01*
X040532Y022092D02*
X040813Y022092D01*
X040732Y021975D02*
X040612Y021975D01*
X040661Y021859D02*
X040684Y021859D01*
X040683Y021742D02*
X040661Y021742D01*
X040646Y021625D02*
X040699Y021625D01*
X040747Y021509D02*
X040598Y021509D01*
X040496Y021392D02*
X040848Y021392D01*
X041063Y021275D02*
X040281Y021275D01*
X040063Y021275D02*
X039281Y021275D01*
X039270Y021271D02*
X039449Y021345D01*
X039587Y021483D01*
X039661Y021662D01*
X039661Y021857D01*
X039587Y022037D01*
X039449Y022174D01*
X039270Y022249D01*
X039075Y022249D01*
X038895Y022174D01*
X038758Y022037D01*
X038690Y021873D01*
X038688Y021884D01*
X038663Y021963D01*
X038625Y022037D01*
X038576Y022104D01*
X038517Y022163D01*
X038450Y022212D01*
X038375Y022250D01*
X038296Y022276D01*
X038214Y022289D01*
X038213Y022289D01*
X038213Y021801D01*
X038131Y021801D01*
X038131Y022289D01*
X038131Y022289D01*
X038048Y022276D01*
X037969Y022250D01*
X037895Y022212D01*
X037828Y022163D01*
X037769Y022104D01*
X037720Y022037D01*
X037682Y021963D01*
X037656Y021884D01*
X037655Y021873D01*
X037587Y022037D01*
X037449Y022174D01*
X037270Y022249D01*
X037075Y022249D01*
X036895Y022174D01*
X036758Y022037D01*
X036683Y021857D01*
X036683Y021662D01*
X036758Y021483D01*
X036895Y021345D01*
X037075Y021271D01*
X037270Y021271D01*
X037449Y021345D01*
X037587Y021483D01*
X037655Y021646D01*
X037656Y021636D01*
X037682Y021557D01*
X037720Y021482D01*
X037769Y021415D01*
X037828Y021356D01*
X037895Y021307D01*
X037969Y021269D01*
X038048Y021244D01*
X038131Y021231D01*
X038131Y021718D01*
X038213Y021718D01*
X038213Y021231D01*
X038214Y021231D01*
X038296Y021244D01*
X038375Y021269D01*
X038450Y021307D01*
X038517Y021356D01*
X038576Y021415D01*
X038625Y021482D01*
X038663Y021557D01*
X038688Y021636D01*
X038690Y021646D01*
X038758Y021483D01*
X038895Y021345D01*
X039075Y021271D01*
X039270Y021271D01*
X039063Y021275D02*
X038387Y021275D01*
X038213Y021275D02*
X038131Y021275D01*
X038131Y021231D02*
X038131Y021231D01*
X038131Y021392D02*
X038213Y021392D01*
X038213Y021509D02*
X038131Y021509D01*
X038131Y021625D02*
X038213Y021625D01*
X038213Y021859D02*
X038131Y021859D01*
X038131Y021975D02*
X038213Y021975D01*
X038213Y022092D02*
X038131Y022092D01*
X038131Y022209D02*
X038213Y022209D01*
X038454Y022209D02*
X038978Y022209D01*
X038813Y022092D02*
X038585Y022092D01*
X038656Y021975D02*
X038732Y021975D01*
X038699Y021625D02*
X038685Y021625D01*
X038638Y021509D02*
X038747Y021509D01*
X038848Y021392D02*
X038553Y021392D01*
X037957Y021275D02*
X037281Y021275D01*
X037063Y021275D02*
X036365Y021275D01*
X036365Y021392D02*
X036848Y021392D01*
X036747Y021509D02*
X036365Y021509D01*
X036344Y021625D02*
X036699Y021625D01*
X036683Y021742D02*
X036296Y021742D01*
X036246Y021859D02*
X036684Y021859D01*
X036732Y021975D02*
X036129Y021975D01*
X035984Y022092D02*
X036813Y022092D01*
X036978Y022209D02*
X032934Y022209D01*
X034571Y022442D02*
X040336Y022442D01*
X039978Y022209D02*
X039366Y022209D01*
X039532Y022092D02*
X039813Y022092D01*
X039732Y021975D02*
X039612Y021975D01*
X039661Y021859D02*
X039684Y021859D01*
X039683Y021742D02*
X039661Y021742D01*
X039646Y021625D02*
X039699Y021625D01*
X039747Y021509D02*
X039598Y021509D01*
X039496Y021392D02*
X039848Y021392D01*
X037792Y021392D02*
X037496Y021392D01*
X037598Y021509D02*
X037706Y021509D01*
X037660Y021625D02*
X037646Y021625D01*
X037612Y021975D02*
X037688Y021975D01*
X037760Y022092D02*
X037532Y022092D01*
X037366Y022209D02*
X037890Y022209D01*
X038397Y022559D02*
X035951Y022559D01*
X035211Y022092D02*
X034721Y022092D01*
X034732Y021975D02*
X035066Y021975D01*
X034949Y021859D02*
X034732Y021859D01*
X034732Y021742D02*
X034899Y021742D01*
X034851Y021625D02*
X034732Y021625D01*
X036187Y020925D02*
X045012Y020925D01*
X044774Y020809D02*
X036071Y020809D01*
X035844Y020692D02*
X044657Y020692D01*
X044541Y020575D02*
X035342Y020575D01*
X035342Y020459D02*
X044424Y020459D01*
X044307Y020342D02*
X035342Y020342D01*
X035342Y020226D02*
X044191Y020226D01*
X044074Y020109D02*
X035342Y020109D01*
X035342Y019992D02*
X043957Y019992D01*
X043841Y019876D02*
X035356Y019876D01*
X035460Y019759D02*
X043724Y019759D01*
X043607Y019642D02*
X035460Y019642D01*
X035458Y019526D02*
X043491Y019526D01*
X042386Y018476D02*
X047407Y018476D01*
X047415Y018359D02*
X042468Y018359D01*
X041654Y017309D02*
X032231Y017309D01*
X031437Y015793D02*
X040950Y015793D01*
X041306Y014043D02*
X035362Y014043D01*
X035460Y013926D02*
X035608Y013926D01*
X035491Y013810D02*
X035460Y013810D01*
X034645Y014626D02*
X031156Y014626D01*
X031882Y011943D02*
X034515Y011943D01*
X034515Y011826D02*
X031765Y011826D01*
X031649Y011710D02*
X034616Y011710D01*
X032378Y011593D02*
X037045Y011593D01*
X037048Y011010D02*
X032375Y011010D01*
X032127Y011010D02*
X031338Y011010D01*
X031187Y010660D02*
X030661Y010660D01*
X030777Y010543D02*
X031303Y010543D01*
X031420Y010427D02*
X030875Y010427D01*
X031011Y010310D02*
X031483Y010310D01*
X031486Y010193D02*
X031127Y010193D01*
X031244Y010077D02*
X031603Y010077D01*
X032420Y008910D02*
X050283Y008910D01*
X050283Y008793D02*
X032303Y008793D01*
X032187Y008677D02*
X050283Y008677D01*
X050283Y008560D02*
X032070Y008560D01*
X031290Y007860D02*
X048476Y007860D01*
X048501Y007970D02*
X048501Y007970D01*
X048450Y007744D02*
X031406Y007744D01*
X031437Y007627D02*
X048448Y007627D01*
X048435Y007681D02*
X048435Y007681D01*
X048474Y007510D02*
X034414Y007510D01*
X033946Y007510D02*
X031366Y007510D01*
X031249Y007394D02*
X033885Y007394D01*
X033006Y007160D02*
X032646Y007160D01*
X031856Y007160D02*
X031016Y007160D01*
X030899Y007044D02*
X031856Y007044D01*
X031856Y006927D02*
X029042Y006927D01*
X029159Y007044D02*
X030543Y007044D01*
X030426Y007160D02*
X029275Y007160D01*
X029392Y007277D02*
X030310Y007277D01*
X030323Y007277D02*
X030490Y007277D01*
X030440Y007394D02*
X030607Y007394D01*
X030557Y007510D02*
X030724Y007510D01*
X030193Y007394D02*
X029441Y007394D01*
X029356Y007510D02*
X030083Y007510D01*
X030065Y007627D02*
X029279Y007627D01*
X028944Y007248D02*
X028933Y007237D01*
X028905Y007237D01*
X028925Y006810D02*
X029388Y006810D01*
X028727Y006344D02*
X028609Y006344D01*
X028609Y006227D02*
X028727Y006227D01*
X028194Y005760D02*
X027751Y005760D01*
X027645Y005760D02*
X027644Y005760D01*
X027539Y005760D02*
X027480Y005760D01*
X027645Y005870D02*
X027645Y005433D01*
X027645Y005099D01*
X027726Y005099D01*
X027766Y005110D01*
X027802Y005131D01*
X027815Y005144D01*
X027916Y005043D01*
X027094Y005043D01*
X027094Y005080D01*
X027153Y005139D01*
X027339Y005139D01*
X027479Y005139D01*
X027487Y005131D01*
X027523Y005110D01*
X027564Y005099D01*
X027644Y005099D01*
X027644Y005433D01*
X027645Y005433D01*
X027644Y005411D02*
X027645Y005411D01*
X027644Y005527D02*
X027645Y005527D01*
X027644Y005644D02*
X027645Y005644D01*
X027860Y005644D02*
X028256Y005644D01*
X027888Y005527D02*
X027864Y005527D01*
X027645Y005294D02*
X027644Y005294D01*
X027644Y005177D02*
X027645Y005177D01*
X027899Y005061D02*
X027094Y005061D01*
X026857Y005122D02*
X027054Y005319D01*
X027054Y005433D01*
X027074Y005760D02*
X026465Y005760D01*
X026465Y005644D02*
X026678Y005644D01*
X026247Y005411D02*
X025477Y005411D01*
X025444Y005378D02*
X025200Y005378D01*
X025027Y005551D01*
X025027Y005718D01*
X024672Y006072D01*
X024672Y006023D01*
X024499Y005850D01*
X024494Y005850D01*
X025026Y005319D01*
X025141Y005319D01*
X025200Y005378D01*
X025444Y005378D01*
X025528Y005294D02*
X026247Y005294D01*
X026247Y005177D02*
X026381Y005043D01*
X026089Y005043D01*
X025893Y005043D01*
X025539Y004689D01*
X024672Y004689D01*
X024476Y004689D01*
X022704Y002917D01*
X021543Y002917D01*
X021543Y003193D01*
X021912Y003193D01*
X021971Y003134D01*
X022216Y003134D01*
X022389Y003307D01*
X022389Y003551D01*
X022216Y003724D01*
X022015Y003724D01*
X022025Y003742D01*
X022036Y003782D01*
X022036Y003980D01*
X021720Y003980D01*
X021720Y004059D01*
X022036Y004059D01*
X022036Y004257D01*
X022025Y004297D01*
X022004Y004334D01*
X021975Y004363D01*
X021938Y004384D01*
X021898Y004395D01*
X021720Y004395D01*
X021720Y004059D01*
X021641Y004059D01*
X021641Y004395D01*
X021469Y004395D01*
X021641Y004566D01*
X021641Y004811D01*
X021625Y004827D01*
X022847Y004827D01*
X023255Y004419D01*
X023255Y004252D01*
X023428Y004079D01*
X023673Y004079D01*
X023845Y004252D01*
X023845Y004496D01*
X023673Y004669D01*
X023506Y004669D01*
X023190Y004984D01*
X023359Y004984D01*
X023506Y004984D01*
X023673Y004984D01*
X023845Y005157D01*
X023845Y005402D01*
X023673Y005575D01*
X023428Y005575D01*
X023255Y005402D01*
X023255Y005338D01*
X022664Y005338D01*
X022664Y005559D01*
X022491Y005732D01*
X022247Y005732D01*
X022089Y005575D01*
X020696Y005575D01*
X020696Y005795D01*
X020523Y005968D01*
X020278Y005968D01*
X020105Y005795D01*
X020105Y005771D01*
X014435Y005771D01*
X015694Y007031D01*
X017102Y007031D01*
X017098Y007029D01*
X017069Y006999D01*
X017048Y006963D01*
X017047Y006959D01*
X016985Y007021D01*
X016647Y007021D01*
X016577Y006951D01*
X016577Y006644D01*
X016110Y006644D01*
X015964Y006644D01*
X015878Y006559D01*
X015711Y006559D01*
X015538Y006386D01*
X015538Y006141D01*
X015711Y005968D01*
X015956Y005968D01*
X016129Y006141D01*
X016129Y006290D01*
X016577Y006290D01*
X016577Y005983D01*
X016647Y005913D01*
X016985Y005913D01*
X017047Y005974D01*
X017048Y005970D01*
X017069Y005934D01*
X017098Y005905D01*
X017135Y005884D01*
X017175Y005873D01*
X017315Y005873D01*
X017315Y006466D01*
X017317Y006466D01*
X017317Y005873D01*
X017457Y005873D01*
X017497Y005884D01*
X017534Y005905D01*
X017563Y005934D01*
X017584Y005970D01*
X017585Y005974D01*
X017647Y005913D01*
X017985Y005913D01*
X018055Y005983D01*
X018055Y006250D01*
X018077Y006250D01*
X018077Y005983D01*
X018147Y005913D01*
X018485Y005913D01*
X018555Y005983D01*
X018555Y006250D01*
X019603Y006250D01*
X019766Y006086D01*
X020011Y006086D01*
X020184Y006259D01*
X020184Y006500D01*
X021011Y006500D01*
X021542Y005969D01*
X021681Y005831D01*
X023846Y005831D01*
X024830Y004846D01*
X025026Y004846D01*
X025141Y004846D01*
X025200Y004787D01*
X025444Y004787D01*
X025617Y004960D01*
X025617Y005205D01*
X025617Y005061D02*
X026363Y005061D01*
X025794Y004944D02*
X025601Y004944D01*
X025677Y004827D02*
X025484Y004827D01*
X025561Y004711D02*
X023464Y004711D01*
X023347Y004827D02*
X025160Y004827D01*
X024733Y004944D02*
X023231Y004944D01*
X022963Y004711D02*
X021641Y004711D01*
X021641Y004594D02*
X023080Y004594D01*
X023196Y004477D02*
X021551Y004477D01*
X021641Y004361D02*
X021720Y004361D01*
X021720Y004244D02*
X021641Y004244D01*
X021641Y004127D02*
X021720Y004127D01*
X021720Y004011D02*
X023798Y004011D01*
X023721Y004127D02*
X023915Y004127D01*
X023838Y004244D02*
X024031Y004244D01*
X024148Y004361D02*
X023845Y004361D01*
X023845Y004477D02*
X024264Y004477D01*
X024381Y004594D02*
X023748Y004594D01*
X023255Y004361D02*
X021977Y004361D01*
X022036Y004244D02*
X023263Y004244D01*
X023379Y004127D02*
X022036Y004127D01*
X022036Y003894D02*
X023681Y003894D01*
X023565Y003777D02*
X022035Y003777D01*
X022279Y003661D02*
X023448Y003661D01*
X023331Y003544D02*
X022389Y003544D01*
X022389Y003427D02*
X023215Y003427D01*
X023098Y003311D02*
X022389Y003311D01*
X022276Y003194D02*
X022981Y003194D01*
X022865Y003077D02*
X021543Y003077D01*
X021543Y002961D02*
X022748Y002961D01*
X023066Y002611D02*
X023555Y002611D01*
X023804Y002727D02*
X023183Y002727D01*
X023299Y002844D02*
X024054Y002844D01*
X024303Y002961D02*
X023416Y002961D01*
X023533Y003077D02*
X024552Y003077D01*
X024797Y003194D02*
X023649Y003194D01*
X023766Y003311D02*
X024999Y003311D01*
X025201Y003427D02*
X023883Y003427D01*
X023999Y003544D02*
X025404Y003544D01*
X025606Y003661D02*
X024116Y003661D01*
X024233Y003777D02*
X025808Y003777D01*
X026010Y003894D02*
X024349Y003894D01*
X024466Y004011D02*
X026212Y004011D01*
X026387Y004127D02*
X024583Y004127D01*
X025762Y004244D02*
X026562Y004244D01*
X026737Y004361D02*
X025879Y004361D01*
X025996Y004477D02*
X026904Y004477D01*
X025167Y005411D02*
X024934Y005411D01*
X024818Y005527D02*
X025050Y005527D01*
X025027Y005644D02*
X024701Y005644D01*
X024584Y005760D02*
X024984Y005760D01*
X024867Y005877D02*
X024526Y005877D01*
X024643Y005994D02*
X024751Y005994D01*
X024149Y005527D02*
X023720Y005527D01*
X023837Y005411D02*
X024266Y005411D01*
X024383Y005294D02*
X023845Y005294D01*
X023845Y005177D02*
X024499Y005177D01*
X024616Y005061D02*
X023749Y005061D01*
X023264Y005411D02*
X022664Y005411D01*
X022664Y005527D02*
X023380Y005527D01*
X023916Y005760D02*
X020696Y005760D01*
X020696Y005644D02*
X022159Y005644D01*
X022580Y005644D02*
X024033Y005644D01*
X025932Y005644D02*
X026050Y005644D01*
X026050Y005527D02*
X025932Y005527D01*
X029183Y004594D02*
X029371Y004594D01*
X029371Y004711D02*
X029300Y004711D01*
X030953Y004711D02*
X031276Y004711D01*
X031779Y006694D02*
X031869Y006694D01*
X031856Y006810D02*
X031779Y006810D01*
X034165Y009610D02*
X039944Y009610D01*
X040306Y009610D02*
X047250Y009610D01*
X047250Y009727D02*
X040420Y009727D01*
X040420Y009843D02*
X047263Y009843D01*
X047250Y009960D02*
X040420Y009960D01*
X040312Y010077D02*
X044753Y010077D01*
X045025Y010077D02*
X047250Y010077D01*
X047250Y010193D02*
X045142Y010193D01*
X045184Y010310D02*
X047250Y010310D01*
X047220Y010427D02*
X045184Y010427D01*
X045121Y010543D02*
X047185Y010543D01*
X047580Y011092D02*
X047580Y011120D01*
X047871Y011120D01*
X047871Y011303D01*
X047957Y011303D01*
X048103Y011303D01*
X047871Y011071D01*
X047871Y011092D01*
X047580Y011092D01*
X047871Y011127D02*
X047926Y011127D01*
X047871Y011243D02*
X048043Y011243D01*
X047278Y011360D02*
X046741Y011360D01*
X048353Y011943D02*
X048354Y011943D01*
X048353Y011993D02*
X048353Y011993D01*
X048353Y012060D02*
X048354Y012060D01*
X048353Y012176D02*
X048354Y012176D01*
X048113Y012410D02*
X047852Y012410D01*
X047852Y012526D02*
X048002Y012526D01*
X047997Y012643D02*
X047852Y012643D01*
X047852Y013226D02*
X047859Y013226D01*
X049220Y012348D02*
X049220Y012327D01*
X050001Y012526D02*
X050283Y012526D01*
X050283Y012410D02*
X050067Y012410D01*
X050067Y012643D02*
X050283Y012643D01*
X049312Y010777D02*
X049284Y010777D01*
X049284Y010660D02*
X049312Y010660D01*
X049312Y010543D02*
X049284Y010543D01*
X049757Y010310D02*
X049784Y010310D01*
X049784Y010193D02*
X049757Y010193D01*
X048116Y009377D02*
X048056Y009377D01*
X048039Y009260D02*
X048116Y009260D01*
X048160Y009143D02*
X047996Y009143D01*
X049250Y008330D02*
X049250Y008330D01*
X048501Y007394D02*
X044285Y007394D01*
X044402Y007277D02*
X048593Y007277D01*
X048686Y007160D02*
X048190Y007160D01*
X048197Y007044D02*
X048928Y007044D01*
X048686Y007160D02*
X048686Y007160D01*
X048197Y006810D02*
X050157Y006810D01*
X049992Y006694D02*
X048197Y006694D01*
X048187Y006577D02*
X049827Y006577D01*
X047861Y006577D02*
X047743Y006577D01*
X047743Y006694D02*
X047861Y006694D01*
X047861Y006810D02*
X047743Y006810D01*
X047407Y007044D02*
X044635Y007044D01*
X044518Y007160D02*
X047415Y007160D01*
X047743Y007160D02*
X047861Y007160D01*
X045012Y005177D02*
X044769Y005177D01*
X045413Y004244D02*
X042281Y004244D01*
X039938Y010077D02*
X034170Y010077D01*
X033590Y010358D02*
X044889Y010358D01*
X049127Y014859D02*
X049155Y014859D01*
X049155Y014976D02*
X049127Y014976D01*
X049127Y015093D02*
X049155Y015093D01*
X049174Y015676D02*
X049287Y015676D01*
X049594Y015676D02*
X049712Y015676D01*
X049712Y015793D02*
X049594Y015793D01*
X049594Y015909D02*
X049712Y015909D01*
X049712Y016026D02*
X049594Y016026D01*
X050068Y016376D02*
X050283Y016376D01*
X050283Y016493D02*
X050051Y016493D01*
X048865Y016106D02*
X048216Y016106D01*
X047861Y018359D02*
X047743Y018359D01*
X048146Y019176D02*
X049498Y019176D01*
X049333Y019292D02*
X048157Y019292D01*
X048157Y019409D02*
X049166Y019409D01*
X048967Y019526D02*
X048157Y019526D01*
X048157Y019642D02*
X048768Y019642D01*
X048569Y019759D02*
X048156Y019759D01*
X035351Y020692D02*
X035342Y020692D01*
X031566Y021742D02*
X030784Y021742D01*
X030691Y021509D02*
X030007Y021509D01*
X027798Y019748D02*
X026183Y019748D01*
X025877Y019442D01*
X026056Y019442D01*
X026056Y019152D01*
X026084Y019152D01*
X026084Y019442D01*
X026273Y019442D01*
X026313Y019431D01*
X026350Y019411D01*
X026379Y019381D01*
X026386Y019369D01*
X026449Y019433D01*
X026449Y019433D01*
X026685Y019669D01*
X026832Y019669D01*
X027374Y019669D01*
X027521Y019669D01*
X028334Y018857D01*
X028334Y019024D01*
X028375Y019065D01*
X028333Y019108D01*
X028333Y019448D01*
X028161Y019275D01*
X027916Y019275D01*
X027743Y019448D01*
X027743Y019693D01*
X027798Y019748D01*
X027743Y019642D02*
X027548Y019642D01*
X027665Y019526D02*
X027743Y019526D01*
X027781Y019409D02*
X027783Y019409D01*
X027898Y019292D02*
X027899Y019292D01*
X028015Y019176D02*
X028333Y019176D01*
X028333Y019292D02*
X028178Y019292D01*
X028294Y019409D02*
X028333Y019409D01*
X028369Y019059D02*
X028131Y019059D01*
X028248Y018942D02*
X028334Y018942D01*
X026659Y019642D02*
X026077Y019642D01*
X025960Y019526D02*
X026542Y019526D01*
X026425Y019409D02*
X026351Y019409D01*
X026084Y019409D02*
X026056Y019409D01*
X026056Y019292D02*
X026084Y019292D01*
X026084Y019176D02*
X026056Y019176D01*
X026129Y018399D02*
X026129Y018399D01*
X026129Y017961D01*
X026129Y017961D01*
X026129Y017716D01*
X026302Y017543D01*
X026547Y017543D01*
X026621Y017618D01*
X026696Y017543D01*
X026745Y017543D01*
X026587Y017386D01*
X025986Y017386D01*
X025907Y017464D01*
X026109Y017667D01*
X026109Y017813D01*
X026109Y017945D01*
X026129Y017945D01*
X026129Y018399D01*
X026129Y018359D02*
X026129Y018359D01*
X026129Y018242D02*
X026129Y018242D01*
X026129Y018126D02*
X026129Y018126D01*
X026129Y018009D02*
X026129Y018009D01*
X026129Y017892D02*
X026109Y017892D01*
X026109Y017776D02*
X026129Y017776D01*
X026102Y017659D02*
X026186Y017659D01*
X025985Y017542D02*
X026744Y017542D01*
X026627Y017426D02*
X025946Y017426D01*
X020401Y012876D02*
X020322Y012876D01*
X020322Y012760D02*
X020401Y012760D01*
X020401Y012643D02*
X020322Y012643D01*
X020322Y012526D02*
X017239Y012526D01*
X017239Y012410D02*
X019200Y012410D01*
X019083Y012293D02*
X017239Y012293D01*
X017239Y012176D02*
X019042Y012176D01*
X019042Y012060D02*
X017239Y012060D01*
X017239Y011943D02*
X019107Y011943D01*
X019356Y011826D02*
X017239Y011826D01*
X017239Y011710D02*
X019356Y011710D01*
X019356Y011593D02*
X017239Y011593D01*
X017239Y012643D02*
X019316Y012643D01*
X019321Y012760D02*
X017239Y012760D01*
X017239Y012797D02*
X017239Y012797D01*
X017239Y012876D02*
X019443Y012876D01*
X020401Y012526D02*
X023483Y012526D01*
X023366Y012410D02*
X021406Y012410D01*
X022700Y010777D02*
X023176Y010777D01*
X020931Y009610D02*
X020205Y009610D01*
X020085Y008677D02*
X020059Y008677D01*
X019719Y008677D02*
X019074Y008677D01*
X019082Y008560D02*
X019602Y008560D01*
X019594Y008444D02*
X019082Y008444D01*
X018984Y008327D02*
X019594Y008327D01*
X018554Y008327D02*
X016147Y008327D01*
X016273Y008444D02*
X018438Y008444D01*
X018432Y008560D02*
X016398Y008560D01*
X016524Y008677D02*
X018432Y008677D01*
X018432Y008793D02*
X016639Y008793D01*
X016734Y008910D02*
X018432Y008910D01*
X018432Y009027D02*
X016830Y009027D01*
X016925Y009143D02*
X018234Y009143D01*
X018234Y009260D02*
X017006Y009260D01*
X017064Y009377D02*
X018234Y009377D01*
X018234Y009493D02*
X017112Y009493D01*
X017159Y009610D02*
X018234Y009610D01*
X018234Y009727D02*
X017199Y009727D01*
X017217Y009843D02*
X018234Y009843D01*
X018234Y009960D02*
X017234Y009960D01*
X017251Y010077D02*
X018234Y010077D01*
X018234Y010193D02*
X017253Y010193D01*
X017259Y010130D02*
X017259Y010130D01*
X017242Y010310D02*
X018275Y010310D01*
X015717Y007977D02*
X020951Y007977D01*
X020951Y007860D02*
X015550Y007860D01*
X015590Y006927D02*
X016577Y006927D01*
X016577Y006810D02*
X015473Y006810D01*
X015357Y006694D02*
X016577Y006694D01*
X015897Y006577D02*
X015240Y006577D01*
X015124Y006460D02*
X015613Y006460D01*
X015538Y006344D02*
X015007Y006344D01*
X014890Y006227D02*
X015538Y006227D01*
X015569Y006110D02*
X014774Y006110D01*
X014657Y005994D02*
X015686Y005994D01*
X015981Y005994D02*
X016577Y005994D01*
X016577Y006110D02*
X016098Y006110D01*
X016129Y006227D02*
X016577Y006227D01*
X017159Y005877D02*
X014540Y005877D01*
X012604Y006707D02*
X012604Y006707D01*
X012546Y004477D02*
X012482Y004477D01*
X012546Y004361D02*
X012366Y004361D01*
X012546Y004244D02*
X010907Y004244D01*
X010893Y004127D02*
X010947Y004127D01*
X010538Y004127D02*
X010397Y004127D01*
X010514Y004011D02*
X010538Y004011D01*
X009912Y003427D02*
X008476Y003427D01*
X008500Y003894D02*
X008507Y003894D01*
X008348Y003894D02*
X008323Y003894D01*
X008339Y004361D02*
X007836Y004361D01*
X012131Y004127D02*
X012213Y004127D01*
X012213Y004011D02*
X012131Y004011D01*
X012131Y003894D02*
X012213Y003894D01*
X012454Y004127D02*
X012554Y004127D01*
X012570Y004011D02*
X012671Y004011D01*
X015367Y004157D02*
X015591Y003933D01*
X015591Y003586D01*
X015395Y003390D01*
X016213Y003390D01*
X016639Y003815D01*
X016639Y003861D01*
X016577Y003923D01*
X016577Y004276D01*
X016562Y004261D01*
X016485Y004184D01*
X016485Y004039D01*
X016149Y004039D01*
X016149Y003960D01*
X016485Y003960D01*
X016485Y003782D01*
X016474Y003742D01*
X016453Y003705D01*
X016423Y003676D01*
X016387Y003655D01*
X016347Y003644D01*
X016149Y003644D01*
X016149Y003960D01*
X016070Y003960D01*
X016070Y003644D01*
X015872Y003644D01*
X015831Y003655D01*
X015795Y003676D01*
X015765Y003705D01*
X015745Y003742D01*
X015734Y003782D01*
X015734Y003960D01*
X016070Y003960D01*
X016070Y004039D01*
X015734Y004039D01*
X015734Y004157D01*
X015367Y004157D01*
X015397Y004127D02*
X015734Y004127D01*
X015734Y003894D02*
X015591Y003894D01*
X015591Y003777D02*
X015735Y003777D01*
X015821Y003661D02*
X015591Y003661D01*
X015549Y003544D02*
X016368Y003544D01*
X016397Y003661D02*
X016484Y003661D01*
X016484Y003777D02*
X016601Y003777D01*
X016605Y003894D02*
X016485Y003894D01*
X016577Y004011D02*
X016149Y004011D01*
X016070Y004011D02*
X015514Y004011D01*
X016070Y003894D02*
X016149Y003894D01*
X016149Y003777D02*
X016070Y003777D01*
X016070Y003661D02*
X016149Y003661D01*
X016251Y003427D02*
X015433Y003427D01*
X016485Y004127D02*
X016577Y004127D01*
X016577Y004244D02*
X016545Y004244D01*
X018032Y003427D02*
X020144Y003427D01*
X020106Y003544D02*
X020260Y003544D01*
X020184Y003661D02*
X020377Y003661D01*
X020184Y003777D02*
X020695Y003777D01*
X020695Y003894D02*
X020156Y003894D01*
X020040Y004011D02*
X020695Y004011D01*
X020695Y004127D02*
X018555Y004127D01*
X018555Y004011D02*
X019738Y004011D01*
X020027Y003311D02*
X017990Y003311D01*
X017874Y003194D02*
X018628Y003194D01*
X018628Y003077D02*
X017757Y003077D01*
X017640Y002961D02*
X018628Y002961D01*
X018628Y002844D02*
X017524Y002844D01*
X017407Y002727D02*
X018628Y002727D01*
X018628Y002611D02*
X017290Y002611D01*
X019811Y002378D02*
X020360Y002378D01*
X020360Y002494D02*
X019879Y002494D01*
X019995Y002611D02*
X020360Y002611D01*
X020360Y002727D02*
X020112Y002727D01*
X020229Y002844D02*
X020360Y002844D01*
X020345Y002961D02*
X020360Y002961D01*
X019910Y003194D02*
X019811Y003194D01*
X019811Y002261D02*
X020360Y002261D01*
X020375Y002144D02*
X019796Y002144D01*
X021543Y002261D02*
X022676Y002261D01*
X022994Y002378D02*
X021543Y002378D01*
X022949Y002494D02*
X023305Y002494D01*
X021383Y004361D02*
X018555Y004361D01*
X018555Y004244D02*
X020695Y004244D01*
X021139Y004477D02*
X018637Y004477D01*
X018555Y005994D02*
X021517Y005994D01*
X021401Y006110D02*
X020035Y006110D01*
X020152Y006227D02*
X021284Y006227D01*
X021168Y006344D02*
X020184Y006344D01*
X020184Y006460D02*
X021051Y006460D01*
X020614Y005877D02*
X021634Y005877D01*
X020187Y005877D02*
X017473Y005877D01*
X017317Y005877D02*
X017315Y005877D01*
X017315Y005994D02*
X017317Y005994D01*
X017315Y006110D02*
X017317Y006110D01*
X017315Y006227D02*
X017317Y006227D01*
X017315Y006344D02*
X017317Y006344D01*
X017315Y006460D02*
X017317Y006460D01*
X018055Y006227D02*
X018077Y006227D01*
X018077Y006110D02*
X018055Y006110D01*
X018055Y005994D02*
X018077Y005994D01*
X018555Y006110D02*
X019743Y006110D01*
X019626Y006227D02*
X018555Y006227D01*
X025735Y007977D02*
X025814Y007977D01*
X031532Y011593D02*
X032124Y011593D01*
X017554Y001094D02*
X014211Y001094D01*
D57*
X017172Y002799D02*
X011133Y002799D01*
X010172Y003760D01*
X008936Y004209D02*
X008727Y004209D01*
X008420Y003902D01*
X015172Y004760D02*
X015771Y005358D01*
X016109Y005020D01*
X016109Y004669D01*
X016109Y004000D02*
X016109Y003626D01*
X016040Y003557D01*
X016099Y003990D02*
X016109Y004000D01*
X017172Y002799D02*
X017816Y003443D01*
X017816Y003705D01*
X019849Y003705D01*
X019889Y003744D01*
X017816Y003705D02*
X017816Y004407D01*
X015771Y005358D02*
X022290Y005358D01*
X022369Y005437D01*
X019889Y006382D02*
X019804Y006467D01*
X018316Y006467D01*
X017816Y006467D01*
X019889Y008429D02*
X020440Y008429D01*
X020479Y008468D01*
X020499Y008842D02*
X021346Y008842D01*
X021798Y008842D01*
X022409Y009453D01*
X023590Y009453D01*
X023905Y009768D01*
X024101Y009768D01*
X024338Y009768D01*
X024613Y009492D01*
X024928Y009492D01*
X025283Y009846D01*
X026306Y009846D01*
X026542Y009846D01*
X026542Y010043D01*
X027251Y010043D01*
X027251Y009649D01*
X027566Y009334D01*
X027566Y008429D01*
X028494Y008800D02*
X028494Y009874D01*
X028494Y009886D01*
X028432Y009886D01*
X027802Y010516D01*
X027251Y010516D01*
X026385Y010516D01*
X026385Y010634D01*
X026306Y010634D01*
X026070Y010634D01*
X026070Y010791D01*
X025716Y011146D01*
X025113Y010358D02*
X024849Y010094D01*
X024849Y009886D01*
X024849Y009138D02*
X025814Y009138D01*
X025775Y009177D01*
X025775Y008350D02*
X024987Y008350D01*
X025775Y008350D02*
X025775Y008212D01*
X026109Y007878D01*
X026444Y007543D01*
X026444Y007445D01*
X028117Y007242D02*
X028117Y007090D01*
X028550Y006657D01*
X028668Y006539D01*
X028668Y006027D01*
X028609Y005299D02*
X028078Y005299D01*
X028609Y005299D02*
X028668Y005240D01*
X028747Y005240D01*
X029849Y006342D01*
X030873Y006342D01*
X031011Y006205D01*
X032251Y006205D01*
X032271Y006224D01*
X034495Y006224D01*
X033196Y006933D02*
X032271Y006933D01*
X032251Y006953D01*
X032251Y006972D01*
X030716Y007602D02*
X030086Y006972D01*
X029259Y006972D01*
X028944Y006657D01*
X028550Y006657D01*
X028117Y007242D02*
X028508Y007633D01*
X028786Y007912D01*
X028786Y007912D01*
X028786Y008508D01*
X028494Y008800D01*
X029495Y011067D02*
X028629Y011933D01*
X028314Y011933D01*
X027881Y012366D01*
X024574Y012366D01*
X024416Y012523D01*
X023786Y012523D01*
X023393Y012130D01*
X019338Y012130D01*
X019377Y012090D01*
X018905Y012287D02*
X018905Y011815D01*
X021031Y009689D01*
X021306Y010338D02*
X021306Y011086D01*
X021995Y011027D02*
X022113Y010909D01*
X022527Y010909D01*
X022920Y011303D01*
X023826Y011303D01*
X022172Y010476D02*
X022133Y010437D01*
X022172Y010397D01*
X022212Y009964D02*
X022172Y009925D01*
X022172Y009846D01*
X021857Y009531D01*
X021621Y009295D01*
X019849Y009295D01*
X019771Y009374D01*
X019771Y009689D01*
X020361Y008980D02*
X020499Y008842D01*
X022133Y008193D02*
X022133Y007957D01*
X022527Y007563D01*
X023334Y007937D02*
X023393Y007937D01*
X023334Y007937D02*
X022881Y008390D01*
X022881Y008842D01*
X022901Y008862D01*
X022861Y008823D01*
X022290Y008823D01*
X018905Y012287D02*
X019259Y012642D01*
X019377Y012523D01*
X020361Y012523D01*
X019259Y012642D02*
X019023Y012878D01*
X019023Y013705D01*
X019692Y014374D01*
X020912Y014374D01*
X021129Y014590D01*
X021385Y014846D01*
X021542Y014846D01*
X021129Y014590D02*
X021090Y014590D01*
X020794Y014886D01*
X021582Y014157D02*
X021759Y014334D01*
X022212Y014334D01*
X022802Y014925D01*
X022802Y015555D01*
X022881Y015634D01*
X021582Y015791D02*
X021542Y015831D01*
X020873Y015831D01*
X021208Y014157D02*
X021109Y014059D01*
X020479Y014059D01*
X021208Y014157D02*
X021582Y014157D01*
X023471Y012917D02*
X023550Y012996D01*
X024574Y012996D01*
X024692Y012878D01*
X029928Y012878D01*
X030243Y013193D01*
X039172Y013193D01*
X038275Y012878D02*
X040322Y012878D01*
X040912Y013468D01*
X044180Y013468D01*
X045964Y013468D01*
X047096Y014600D01*
X047496Y014600D01*
X047820Y013468D02*
X045964Y013468D01*
X046503Y011027D02*
X044151Y011027D01*
X044141Y011037D01*
X046503Y011027D02*
X046857Y010673D01*
X047527Y010673D01*
X037172Y011303D02*
X032251Y011303D01*
X030164Y011303D01*
X029928Y011067D01*
X029495Y011067D01*
X023471Y012917D02*
X022920Y012917D01*
X019220Y018783D02*
X018609Y018783D01*
X018609Y019689D01*
X020637Y020043D02*
X018944Y021736D01*
X015952Y021736D01*
X015700Y022287D02*
X015172Y021760D01*
X015700Y022287D02*
X017723Y022287D01*
X017881Y022642D02*
X017290Y022642D01*
X014054Y022642D01*
X013172Y021760D01*
X012369Y022563D01*
X009731Y022563D01*
X009298Y022130D01*
X008933Y022130D01*
X008420Y021617D01*
X017881Y022642D02*
X018393Y022130D01*
X019889Y022130D01*
X022979Y020397D02*
X022979Y019945D01*
X022566Y019531D01*
X022487Y019453D01*
X021739Y019453D01*
X021149Y020043D01*
X020637Y020043D01*
X022979Y020397D02*
X023471Y020397D01*
X023708Y020634D01*
X024141Y020634D01*
X024633Y021126D01*
X024653Y021126D01*
X024653Y021106D01*
X030736Y019564D02*
X030736Y019314D01*
X030873Y019177D01*
X031346Y019177D01*
X031424Y019098D01*
X031725Y019829D02*
X033764Y019829D01*
X034495Y019098D01*
X034495Y018980D01*
X048137Y017012D02*
X048216Y016933D01*
X048216Y016106D01*
X022113Y003409D02*
X022094Y003429D01*
D58*
X023550Y004374D02*
X022920Y005004D01*
X016975Y005004D01*
X016816Y004844D01*
X016816Y004407D01*
X016816Y003746D01*
X016818Y003744D01*
X016286Y003212D01*
X011720Y003212D01*
X011172Y003760D01*
X010716Y003586D02*
X011267Y003035D01*
X016700Y003035D01*
X017310Y003646D01*
X017310Y004401D01*
X017316Y004407D01*
X018316Y004407D02*
X018598Y004689D01*
X021346Y004689D01*
X020401Y005673D02*
X020322Y005594D01*
X014259Y005594D01*
X013747Y005083D01*
X013747Y004185D01*
X014172Y003760D01*
X014597Y004334D02*
X016385Y004334D01*
X016464Y004413D01*
X016464Y004925D01*
X016700Y005161D01*
X023432Y005161D01*
X023550Y005279D01*
X024377Y006146D02*
X024220Y006303D01*
X021857Y006303D01*
X021188Y006972D01*
X020204Y006972D01*
X019968Y007209D01*
X015621Y007209D01*
X013172Y004760D01*
X012723Y005004D02*
X012723Y004209D01*
X013172Y003760D01*
X014172Y004760D02*
X014597Y004334D01*
X013471Y005358D02*
X013078Y005358D01*
X012723Y005004D01*
X012928Y005516D02*
X012172Y004760D01*
X011172Y004760D02*
X010716Y004303D01*
X010716Y003586D01*
X010873Y002484D02*
X010369Y002484D01*
X010873Y002484D02*
X011070Y002287D01*
X009700Y002484D02*
X009692Y002484D01*
X013471Y005358D02*
X015479Y007366D01*
X020046Y007366D01*
X020283Y007130D01*
X021267Y007130D01*
X021936Y006460D01*
X024534Y006460D01*
X025322Y005673D01*
X025637Y006303D02*
X025558Y006382D01*
X025558Y006874D01*
X024987Y007445D01*
X024653Y007878D02*
X025342Y007878D01*
X025775Y007445D01*
X024771Y006894D02*
X024653Y006775D01*
X022094Y006775D01*
X021188Y007681D01*
X020086Y007681D01*
X019928Y007523D01*
X015401Y007523D01*
X013393Y005516D01*
X012928Y005516D01*
X015834Y006264D02*
X016037Y006467D01*
X016816Y006467D01*
X020401Y007405D02*
X021227Y007405D01*
X022015Y006618D01*
X024613Y006618D01*
X024849Y006382D01*
X025046Y006382D01*
X025637Y006303D02*
X026464Y006303D01*
X026818Y006657D01*
X027054Y006657D01*
X027251Y006854D01*
X027251Y007094D01*
X027645Y007094D02*
X027645Y007563D01*
X026857Y008350D01*
X026444Y008350D01*
X025794Y008350D02*
X025775Y008350D01*
X026149Y008823D02*
X024574Y008823D01*
X024318Y008567D01*
X024318Y008350D01*
X023944Y008783D02*
X024101Y008941D01*
X024101Y009020D01*
X023944Y008783D02*
X023865Y008862D01*
X023570Y008862D01*
X023629Y008862D01*
X023944Y008783D02*
X023944Y007642D01*
X023491Y007189D01*
X023393Y007189D01*
X023393Y007209D01*
X023393Y007189D02*
X023255Y007051D01*
X022054Y007051D01*
X021346Y007760D01*
X021346Y008094D01*
X022881Y008862D02*
X022881Y008901D01*
X022881Y008862D02*
X022901Y008862D01*
X024338Y007563D02*
X024653Y007878D01*
X024338Y007563D02*
X024338Y007445D01*
X024318Y007445D01*
X026149Y008823D02*
X026444Y009118D01*
X026444Y009177D01*
X026483Y009138D01*
X026975Y009138D01*
X028117Y008783D02*
X028117Y008036D01*
X028111Y008030D01*
X028905Y007237D02*
X029101Y007433D01*
X029101Y008626D01*
X029968Y009256D02*
X028196Y011027D01*
X026346Y011027D01*
X026227Y011146D01*
X026346Y011421D02*
X026582Y011185D01*
X028275Y011185D01*
X029810Y009649D01*
X030558Y009649D01*
X030735Y009826D01*
X030735Y009860D01*
X030338Y010138D02*
X030338Y010257D01*
X030338Y010138D02*
X030204Y010004D01*
X029692Y010004D01*
X028235Y011460D01*
X026739Y011460D01*
X026346Y011421D02*
X024495Y011421D01*
X024377Y011303D01*
X024220Y011736D02*
X028511Y011736D01*
X029377Y010870D01*
X031227Y010870D01*
X031779Y010319D01*
X031132Y009464D02*
X030924Y009256D01*
X029968Y009256D01*
X033983Y009846D02*
X040125Y009846D01*
X042763Y012051D02*
X042920Y012209D01*
X046975Y012209D01*
X047094Y012090D01*
X047920Y012090D01*
X047960Y012051D01*
X047960Y011912D01*
X047566Y011579D02*
X047645Y011500D01*
X047566Y011106D02*
X047527Y011067D01*
X047527Y010673D01*
X047999Y010673D02*
X047999Y010949D01*
X048550Y011500D01*
X048550Y011912D01*
X048747Y011912D02*
X048747Y011224D01*
X048826Y011146D01*
X048826Y011067D01*
X048708Y011067D01*
X048471Y010831D01*
X048471Y010181D01*
X048511Y010142D01*
X048078Y010594D02*
X048078Y009649D01*
X047940Y009512D01*
X047684Y009512D01*
X047645Y009472D01*
X048078Y010594D02*
X047999Y010673D01*
X047999Y010634D01*
X048353Y012344D02*
X048322Y012376D01*
X048002Y012376D02*
X048002Y012408D01*
X048353Y012760D01*
X048005Y013144D02*
X047995Y013153D01*
X047991Y013144D02*
X047955Y013179D01*
X047505Y013153D02*
X042448Y013153D01*
X042645Y012957D02*
X042566Y012878D01*
X041818Y012878D01*
X042566Y012563D02*
X042763Y012760D01*
X047505Y012760D01*
X047505Y012957D02*
X042645Y012957D01*
X042566Y012563D02*
X031779Y012563D01*
X031267Y012051D01*
X029574Y012051D01*
X029298Y011775D01*
X029849Y011775D02*
X029968Y011894D01*
X031346Y011894D01*
X031818Y012366D01*
X042605Y012366D01*
X042802Y012563D01*
X047505Y012563D01*
X047505Y012366D02*
X042842Y012366D01*
X042684Y012209D01*
X031897Y012209D01*
X031424Y011736D01*
X030283Y011736D01*
X030007Y011460D01*
X029771Y011460D01*
X029692Y011382D01*
X029810Y013075D02*
X026267Y013075D01*
X025873Y013468D01*
X024534Y013468D01*
X024338Y013665D01*
X023432Y013665D01*
X023235Y013468D01*
X023078Y013232D02*
X023157Y013153D01*
X023393Y013153D01*
X023432Y013193D01*
X024849Y013193D01*
X024653Y013626D02*
X026149Y013626D01*
X026424Y013350D01*
X026424Y013232D01*
X029731Y013232D01*
X030046Y013547D01*
X035479Y013547D01*
X035755Y013823D01*
X041503Y013823D01*
X040125Y013468D02*
X035676Y013468D01*
X035597Y013390D01*
X030125Y013390D01*
X029810Y013075D01*
X029456Y013508D02*
X029338Y013390D01*
X026857Y013390D01*
X025932Y014315D01*
X025932Y014915D01*
X025735Y014915D02*
X025735Y014394D01*
X025243Y013901D01*
X024849Y013901D01*
X024653Y013626D02*
X024377Y013901D01*
X023235Y013901D01*
X022842Y013508D01*
X022842Y013468D01*
X022645Y013271D01*
X021798Y013271D01*
X021582Y013488D01*
X021286Y013094D02*
X021070Y013311D01*
X020361Y013311D01*
X021267Y013075D02*
X021286Y013094D01*
X021306Y013075D01*
X021267Y013075D02*
X022684Y013075D01*
X022842Y013232D01*
X023078Y013232D01*
X022645Y013547D02*
X023157Y014059D01*
X024534Y014059D01*
X024653Y014177D01*
X025204Y014177D01*
X025538Y014512D01*
X025538Y014915D01*
X025342Y014915D02*
X025342Y015260D01*
X025558Y015476D01*
X025164Y015476D02*
X025145Y015457D01*
X025145Y014915D01*
X025161Y014899D01*
X025161Y014492D01*
X025003Y014334D01*
X023668Y014334D01*
X023471Y014610D02*
X024062Y014610D01*
X024180Y014492D01*
X024849Y014492D01*
X024948Y014590D01*
X024948Y014915D01*
X025145Y014915D02*
X025145Y014945D01*
X024712Y014915D02*
X024603Y014807D01*
X024259Y014807D01*
X023471Y014610D02*
X022842Y013980D01*
X022487Y013980D01*
X022133Y013626D01*
X022133Y013547D01*
X022527Y013547D02*
X022645Y013547D01*
X022094Y014846D02*
X022015Y014846D01*
X022015Y015004D01*
X021503Y015516D01*
X019613Y015516D01*
X019180Y015083D01*
X018432Y015083D01*
X020164Y016027D02*
X020322Y016027D01*
X020519Y016224D01*
X022212Y016224D01*
X022054Y016067D01*
X022054Y015791D01*
X022212Y016224D02*
X022723Y016736D01*
X024072Y016736D01*
X024092Y016756D01*
X024092Y016953D02*
X023412Y016953D01*
X023353Y017012D01*
X023235Y016894D01*
X022645Y016894D01*
X022251Y016500D01*
X020873Y016500D01*
X021346Y016775D02*
X021818Y017248D01*
X022920Y017248D01*
X023117Y017445D01*
X023590Y017445D01*
X023688Y017543D01*
X024092Y017543D01*
X024092Y017346D02*
X023727Y017346D01*
X023668Y017287D01*
X023235Y017287D01*
X022999Y017051D01*
X022566Y017051D01*
X022290Y016775D01*
X022094Y016775D01*
X022605Y016342D02*
X022822Y016559D01*
X024092Y016559D01*
X024092Y016362D02*
X023649Y016362D01*
X023550Y016264D01*
X023550Y016106D01*
X023432Y015988D01*
X023314Y015988D01*
X022999Y015673D01*
X022920Y015673D01*
X022881Y015634D01*
X023196Y015634D02*
X023393Y015831D01*
X023511Y015831D01*
X023649Y015968D01*
X024092Y015968D01*
X024092Y015771D02*
X024633Y015771D01*
X024653Y015752D01*
X024653Y016146D02*
X024633Y016165D01*
X024092Y016165D01*
X024092Y016362D02*
X024436Y016362D01*
X024574Y016500D01*
X025401Y016500D01*
X026070Y016775D02*
X024613Y016775D01*
X024436Y016953D01*
X024092Y016953D01*
X024092Y017149D02*
X025342Y017149D01*
X025401Y017090D01*
X025479Y017405D02*
X024810Y017405D01*
X024416Y017799D01*
X024101Y017799D01*
X024101Y017789D01*
X024092Y017779D01*
X023944Y018114D02*
X023668Y018114D01*
X023550Y017996D01*
X021818Y017996D01*
X021424Y017602D01*
X020519Y017602D01*
X020164Y017248D01*
X017763Y017248D01*
X017172Y016972D02*
X014574Y019571D01*
X013361Y019571D01*
X012172Y020760D01*
X012369Y021185D02*
X012723Y020831D01*
X012723Y020437D01*
X013432Y019728D01*
X014653Y019728D01*
X016857Y017523D01*
X020204Y017523D01*
X020440Y017760D01*
X021346Y017760D01*
X021739Y018153D01*
X023471Y018153D01*
X023747Y018429D01*
X024220Y018429D01*
X024495Y018665D02*
X024495Y017957D01*
X024889Y017563D01*
X025519Y017563D01*
X025716Y017760D01*
X025716Y018380D01*
X025735Y018399D01*
X025538Y018399D02*
X025538Y017976D01*
X025401Y017838D01*
X025007Y017838D02*
X024849Y017838D01*
X024731Y017957D01*
X024731Y018350D01*
X024712Y018350D01*
X024712Y018399D01*
X024771Y018340D01*
X024948Y018399D02*
X024948Y018764D01*
X024771Y018941D01*
X024771Y019925D01*
X024928Y020083D01*
X025755Y020083D01*
X025991Y020319D01*
X027369Y020319D01*
X027684Y020634D01*
X028038Y020634D01*
X028550Y020752D02*
X028550Y020791D01*
X028550Y020752D02*
X027881Y020083D01*
X025991Y020083D01*
X025834Y019925D01*
X025007Y019925D01*
X024928Y019846D01*
X024928Y019020D01*
X025145Y018803D01*
X025145Y018399D01*
X025342Y018399D02*
X025342Y018842D01*
X025086Y019098D01*
X025086Y019334D01*
X025204Y019453D01*
X025597Y019413D02*
X025597Y019138D01*
X025538Y019079D01*
X025538Y018399D01*
X025932Y018399D02*
X025932Y017740D01*
X025716Y017523D01*
X025716Y017405D01*
X025912Y017209D01*
X026660Y017209D01*
X027094Y017642D01*
X027094Y017917D01*
X027566Y018390D01*
X027842Y018390D01*
X028668Y017563D01*
X029141Y017563D01*
X029613Y018035D01*
X031818Y018035D01*
X032605Y018823D01*
X033786Y018823D01*
X033905Y018705D01*
X034023Y018980D02*
X034416Y018586D01*
X041464Y018586D01*
X041739Y018862D01*
X042369Y018862D01*
X042448Y018783D01*
X041857Y018547D02*
X041818Y018508D01*
X041818Y018429D01*
X032448Y018429D01*
X031897Y017878D01*
X029692Y017878D01*
X029220Y017405D01*
X028471Y017405D01*
X028334Y017543D01*
X027576Y017543D01*
X027576Y017346D02*
X028294Y017346D01*
X028393Y017248D01*
X029298Y017248D01*
X029771Y017720D01*
X031975Y017720D01*
X032527Y018271D01*
X042172Y018271D01*
X042133Y017878D02*
X041818Y017563D01*
X029849Y017563D01*
X029377Y017090D01*
X029377Y016972D01*
X028964Y016559D01*
X027576Y016559D01*
X027576Y016756D02*
X028767Y016756D01*
X028905Y016894D01*
X028157Y017051D02*
X028058Y016953D01*
X027576Y016953D01*
X027576Y017149D02*
X027034Y017149D01*
X027015Y017130D01*
X026464Y016894D02*
X026306Y017051D01*
X025834Y017051D01*
X025479Y017405D01*
X026070Y017484D02*
X026129Y017543D01*
X026129Y018399D01*
X026129Y019079D01*
X026070Y019138D01*
X026523Y019256D02*
X026759Y019492D01*
X027448Y019492D01*
X028590Y018350D01*
X031660Y018350D01*
X032566Y019256D01*
X033432Y019256D01*
X034023Y018980D02*
X032527Y018980D01*
X031739Y018193D01*
X028511Y018193D01*
X027566Y019138D01*
X027409Y019138D01*
X026975Y019216D02*
X026975Y018419D01*
X026956Y018399D01*
X026720Y018399D02*
X026720Y017937D01*
X026818Y017838D01*
X026424Y017838D02*
X026326Y017937D01*
X026326Y018399D01*
X026523Y018399D02*
X026523Y019256D01*
X026109Y019925D02*
X025597Y019413D01*
X024613Y019177D02*
X024613Y019649D01*
X024456Y019807D01*
X024180Y019807D01*
X023590Y019216D01*
X023590Y019020D01*
X023196Y018626D01*
X021503Y018626D01*
X021109Y018232D01*
X018550Y018232D01*
X018275Y018508D01*
X018275Y019059D01*
X017940Y019394D01*
X017940Y019689D01*
X017546Y020083D01*
X014220Y020083D01*
X013747Y020555D01*
X013747Y020791D01*
X013353Y021185D01*
X012747Y021185D01*
X012172Y021760D01*
X012369Y021185D02*
X011597Y021185D01*
X011172Y020760D01*
X010716Y020594D02*
X011011Y020299D01*
X012409Y020299D01*
X013294Y019413D01*
X014495Y019413D01*
X017605Y016303D01*
X017802Y016303D01*
X018275Y016775D01*
X020164Y016775D01*
X020676Y017287D01*
X021621Y017287D01*
X021857Y017523D01*
X022763Y017523D01*
X023157Y017838D02*
X021897Y017838D01*
X021503Y017445D01*
X020597Y017445D01*
X020125Y016972D01*
X017172Y016972D01*
X016818Y017799D02*
X020086Y017799D01*
X020204Y017917D01*
X021267Y017917D01*
X021660Y018311D01*
X023393Y018311D01*
X023865Y018783D01*
X024377Y018783D01*
X024495Y018665D01*
X024495Y019059D02*
X024613Y019177D01*
X024495Y019059D02*
X024298Y019059D01*
X024298Y019453D02*
X024259Y019453D01*
X023275Y018468D01*
X021582Y018468D01*
X021188Y018075D01*
X018432Y018075D01*
X017940Y018567D01*
X017940Y018783D01*
X017861Y018862D01*
X016385Y018862D01*
X017940Y019689D02*
X017960Y019689D01*
X017763Y020279D02*
X014653Y020279D01*
X014172Y020760D01*
X014747Y021185D02*
X014172Y021760D01*
X014747Y021185D02*
X018432Y021185D01*
X018629Y020988D01*
X019338Y020988D01*
X021227Y019098D01*
X022960Y019098D01*
X023117Y019256D01*
X023117Y019492D01*
X023905Y020279D01*
X024338Y020279D01*
X024692Y020634D01*
X025125Y020634D01*
X025479Y020988D01*
X026070Y020988D01*
X026188Y020870D01*
X026385Y021146D02*
X025401Y021146D01*
X025046Y020791D01*
X024613Y020791D01*
X024259Y020437D01*
X023826Y020437D01*
X022960Y019571D01*
X022960Y019334D01*
X022881Y019256D01*
X021464Y019256D01*
X021070Y019649D01*
X021306Y020201D02*
X021306Y020358D01*
X021306Y020811D01*
X021326Y020831D01*
X021857Y020988D02*
X021857Y020555D01*
X022310Y020397D02*
X022330Y020397D01*
X022330Y020161D01*
X022094Y019925D01*
X022212Y019649D02*
X021857Y019649D01*
X021306Y020201D01*
X020657Y020831D02*
X020597Y020831D01*
X020657Y020831D02*
X019889Y021598D01*
X019889Y022130D01*
X020243Y022287D02*
X020243Y021657D01*
X020322Y021579D01*
X020873Y021579D01*
X020873Y022012D01*
X021306Y022012D02*
X022180Y022012D01*
X022209Y021983D01*
X022583Y021983D02*
X022583Y021719D01*
X022664Y021638D01*
X021405Y021638D01*
X021346Y021579D01*
X021346Y021520D01*
X020657Y020831D01*
X021857Y020988D02*
X022180Y020988D01*
X022209Y020959D01*
X022583Y020959D02*
X022583Y021168D01*
X022448Y021303D01*
X021857Y021303D01*
X021818Y021342D01*
X021424Y021500D02*
X021346Y021579D01*
X022664Y021638D02*
X022842Y021460D01*
X022957Y021983D02*
X022957Y022290D01*
X022920Y022327D01*
X022094Y022327D01*
X021975Y022445D01*
X021975Y022838D01*
X021995Y022838D01*
X021975Y022838D02*
X020952Y022838D01*
X020243Y022287D02*
X019692Y022838D01*
X019220Y022838D01*
X022605Y022838D02*
X022684Y022760D01*
X022684Y022484D01*
X023078Y022484D01*
X023275Y022287D01*
X023275Y021146D01*
X023216Y021086D01*
X023235Y021067D01*
X023747Y021067D01*
X024220Y021067D01*
X024259Y021106D01*
X024259Y021382D01*
X024338Y021460D01*
X025125Y021460D01*
X025164Y021500D01*
X025519Y021500D01*
X024653Y021874D02*
X024653Y021894D01*
X024495Y021894D01*
X023708Y022681D01*
X023235Y022681D01*
X023157Y022760D01*
X023550Y022366D02*
X023550Y021854D01*
X023747Y021854D01*
X023216Y021086D02*
X023088Y020959D01*
X022957Y020959D01*
X023983Y020122D02*
X023275Y019413D01*
X023275Y019177D01*
X023038Y018941D01*
X021149Y018941D01*
X019416Y020673D01*
X016936Y020673D01*
X016897Y020712D01*
X016849Y020760D01*
X015172Y020760D01*
X014731Y019886D02*
X014046Y019886D01*
X013172Y020760D01*
X014731Y019886D02*
X016818Y017799D01*
X020519Y019177D02*
X020912Y018783D01*
X023117Y018783D01*
X023432Y019098D01*
X023432Y019334D01*
X024062Y019964D01*
X024495Y019964D01*
X024810Y020279D01*
X025479Y020279D01*
X025558Y020358D01*
X025440Y020712D02*
X025164Y020437D01*
X024731Y020437D01*
X024416Y020122D01*
X023983Y020122D01*
X022487Y019925D02*
X022212Y019649D01*
X025440Y020712D02*
X025794Y020712D01*
X026385Y021146D02*
X026582Y020949D01*
X026109Y019925D02*
X028393Y019925D01*
X028826Y020358D01*
X028826Y020712D01*
X028983Y020870D01*
X032527Y021815D01*
X034318Y021815D01*
X034338Y021834D01*
X033471Y021460D02*
X033471Y020811D01*
X033885Y020397D01*
X033216Y020397D02*
X033137Y020319D01*
X031424Y020319D01*
X031188Y020083D01*
X030676Y020083D01*
X030440Y019846D01*
X030440Y019531D01*
X030125Y019216D01*
X029475Y019216D01*
X029318Y019374D01*
X028649Y019374D02*
X028649Y018980D01*
X028668Y018980D01*
X028668Y018941D01*
X028629Y018901D01*
X027881Y018586D02*
X028550Y017917D01*
X028905Y017917D01*
X029849Y017209D02*
X030046Y017405D01*
X030479Y017405D01*
X030558Y017327D01*
X030558Y017071D01*
X030361Y017071D02*
X030164Y017071D01*
X029849Y016756D01*
X029849Y016736D01*
X029810Y016460D02*
X029101Y016460D01*
X029003Y016362D01*
X027576Y016362D01*
X027783Y016362D01*
X027576Y016165D02*
X029672Y016165D01*
X029692Y016185D01*
X029968Y016185D02*
X029968Y016303D01*
X029810Y016460D01*
X029968Y016185D02*
X030086Y016067D01*
X041094Y016067D01*
X041172Y015988D01*
X042133Y017878D02*
X046031Y017878D01*
X046897Y017012D01*
X047468Y017012D01*
X048117Y015161D02*
X048550Y015161D01*
X048629Y014610D02*
X048747Y014610D01*
X048629Y014610D02*
X048629Y014531D01*
X048983Y014374D02*
X049023Y014374D01*
X049101Y014295D01*
X049141Y014295D01*
X048747Y014138D02*
X048747Y013608D01*
X048157Y013608D02*
X048157Y013920D01*
X048057Y014020D01*
X047587Y014020D01*
X047487Y013920D01*
X047487Y014020D01*
X047942Y013608D02*
X047955Y013608D01*
X047960Y013608D01*
X047487Y014492D02*
X047496Y014501D01*
X047496Y014600D01*
X048038Y014600D01*
X048048Y014610D01*
X048157Y014610D01*
X049259Y013211D02*
X049201Y013153D01*
X048002Y012376D02*
X047991Y012376D01*
X049201Y012366D02*
X049377Y012366D01*
X049220Y012348D02*
X049201Y012366D01*
X042763Y012051D02*
X034928Y012051D01*
X034810Y011933D01*
X035086Y013705D02*
X029928Y013705D01*
X029692Y013941D01*
X027566Y013941D01*
X027212Y014295D01*
X026700Y014295D01*
X026523Y014472D01*
X026523Y014915D01*
X026720Y014915D02*
X026720Y014551D01*
X026818Y014453D01*
X028314Y014453D01*
X028668Y014098D01*
X029771Y014098D01*
X030007Y013862D01*
X032369Y013862D01*
X032881Y014374D01*
X034810Y014374D01*
X035164Y013823D02*
X035164Y013783D01*
X035086Y013705D01*
X031267Y015220D02*
X031267Y015712D01*
X031070Y015909D01*
X029613Y015909D01*
X029298Y015594D01*
X028983Y015594D01*
X028806Y015771D01*
X027576Y015771D01*
X027576Y015968D02*
X029003Y015968D01*
X029101Y015870D01*
X028117Y015476D02*
X028038Y015555D01*
X027605Y015555D01*
X027586Y015535D01*
X027576Y015535D01*
X027369Y015122D02*
X026464Y016027D01*
X026464Y016894D01*
X027576Y017779D02*
X027684Y017888D01*
X027684Y018114D01*
X027881Y018586D02*
X027369Y018586D01*
X028038Y019571D02*
X028196Y019728D01*
X030086Y019728D01*
X031149Y019886D02*
X031231Y019804D01*
X031231Y019697D01*
X031231Y019696D02*
X031220Y019697D01*
X031210Y019702D01*
X031201Y019709D01*
X031194Y019717D01*
X031189Y019728D01*
X031188Y019739D01*
X031188Y020083D01*
X031478Y019763D02*
X031478Y019596D01*
X031739Y019334D01*
X031739Y018941D01*
X031385Y018586D01*
X030952Y018586D01*
X030952Y018783D01*
X030932Y018783D01*
X030263Y018783D02*
X029810Y018783D01*
X030834Y017405D02*
X031818Y017405D01*
X031936Y017287D01*
X032330Y016933D02*
X031090Y016933D01*
X030952Y017071D01*
X030755Y017071D02*
X030755Y017327D01*
X030834Y017405D01*
X030755Y017071D02*
X030755Y016933D01*
X029849Y017169D02*
X029849Y017209D01*
X031267Y015220D02*
X030952Y014905D01*
X030755Y014905D02*
X030755Y014610D01*
X030952Y014413D01*
X030558Y014413D02*
X030558Y014905D01*
X030361Y014905D02*
X030361Y014610D01*
X030243Y014492D01*
X029889Y014492D01*
X029771Y014610D01*
X030164Y014905D02*
X029200Y014905D01*
X028905Y014610D01*
X028157Y014807D02*
X026966Y014807D01*
X026956Y014817D01*
X026956Y014915D01*
X026326Y014915D02*
X026326Y014394D01*
X026897Y013823D01*
X027094Y013823D01*
X026936Y013547D02*
X028511Y013547D01*
X028629Y013665D01*
X026936Y013547D02*
X026129Y014354D01*
X026129Y014915D01*
X024092Y015535D02*
X024072Y015516D01*
X023511Y015516D01*
X023196Y015634D02*
X023196Y015240D01*
X022605Y015358D02*
X022094Y014846D01*
X022605Y015358D02*
X022605Y016342D01*
X022881Y016106D02*
X023117Y016106D01*
X023275Y016264D01*
X023314Y016972D02*
X023353Y017012D01*
X023275Y017720D02*
X023157Y017838D01*
X034338Y021086D02*
X034338Y021106D01*
X034810Y021106D01*
X035164Y020752D01*
X035164Y019649D01*
X034849Y019295D02*
X043511Y019295D01*
X044849Y020634D01*
X045302Y020634D01*
X045322Y020634D01*
X045971Y020634D02*
X045991Y020634D01*
X045991Y020201D01*
X046700Y019492D01*
X047802Y019492D01*
X047802Y019472D01*
X024220Y011736D02*
X024101Y011854D01*
X022448Y011303D02*
X022330Y011421D01*
X021385Y011421D01*
X021346Y011382D01*
X021346Y011126D01*
X021306Y011086D01*
X021326Y011086D01*
X021326Y011027D01*
X027251Y005949D02*
X027251Y005433D01*
X027251Y005949D02*
X027290Y005988D01*
X034180Y007327D02*
X044101Y007327D01*
X044495Y006933D01*
X044495Y005201D01*
X044810Y004886D01*
X045302Y004886D01*
X045971Y004886D02*
X045991Y004886D01*
X045991Y005319D01*
X046739Y006067D01*
X047802Y006067D01*
X047802Y006047D01*
X010716Y020594D02*
X010716Y021216D01*
X010172Y021760D01*
X009200Y022523D02*
X008159Y022523D01*
X007806Y022170D01*
X009200Y022523D02*
X009672Y022996D01*
X010342Y022996D02*
X010873Y022996D01*
X010912Y022957D01*
D59*
X023511Y009964D02*
X023905Y010358D01*
X024101Y010358D01*
X025113Y010358D01*
X023511Y009964D02*
X023235Y009964D01*
D60*
X023196Y009925D01*
X022172Y009925D01*
X049771Y011874D02*
X049771Y012268D01*
X049771Y012779D02*
X049771Y013173D01*
X049771Y013685D02*
X049771Y014059D01*
X049731Y014098D01*
X050204Y014098D02*
X050204Y014492D01*
X050204Y014098D02*
X050932Y014098D01*
M02*
