%
M48
M72
T01C0.0157
T02C0.0295
T03C0.0354
T04C0.0400
T05C0.0413
T06C0.1260
%
T01
X8936Y4209
X11070Y2287
X16040Y3557
X17310Y3646
X19889Y3744
X21346Y4689
X22369Y5437
X23550Y5279
X24377Y6146
X25046Y6382
X24771Y6894
X24653Y7878
X26109Y7878
X27212Y7543
X27566Y8429
X28117Y8783
X29101Y8626
X29653Y8744
X29692Y8035
X31857Y8075
X33629Y8823
X33983Y9846
X35991Y8823
X38353Y8823
X40125Y9846
X40716Y8823
X43078Y8823
X44653Y8823
X44653Y9610
X44889Y10358
X44141Y11037
X46542Y11579
X47015Y11185
X47034Y10279
X47034Y9492
X47034Y8705
X47822Y8705
X48609Y8705
X49397Y8705
X50184Y8705
X50184Y9492
X49397Y9492
X50184Y10279
X50184Y11067
X50184Y11854
X50184Y12642
X48716Y12376
X47991Y12376
X47991Y13144
X48716Y13144
X50184Y13429
X48747Y14138
X47015Y14334
X47015Y13547
X44889Y13783
X44180Y13468
X42448Y13153
X41818Y12878
X40125Y13468
X39172Y13193
X38275Y12878
X36188Y12878
X34810Y11933
X33235Y12878
X35164Y13823
X34810Y14374
X30952Y14413
X30558Y14413
X29771Y14610
X28905Y14610
X28157Y14807
X27369Y15122
X28117Y15476
X29101Y15870
X29692Y16185
X29849Y16736
X29849Y17169
X28905Y16894
X28157Y17051
X27015Y17130
X26818Y17838
X26424Y17838
X26070Y17484
X25401Y17838
X25007Y17838
X25401Y17090
X26070Y16775
X25401Y16500
X24653Y16146
X24653Y15752
X25164Y15476
X25558Y15476
X24259Y14807
X23668Y14334
X24849Y13901
X24849Y13193
X26424Y13350
X27094Y13823
X28629Y13665
X29456Y13508
X28550Y12248
X27723Y12012
X26739Y11460
X26227Y11146
X25716Y11146
X24377Y11303
X23826Y11303
X24101Y11854
X22920Y12917
X23235Y13468
X22527Y13547
X22133Y13547
X20479Y14059
X20794Y14886
X20873Y15831
X20873Y16500
X21346Y16775
X22094Y16775
X22763Y17523
X23275Y17720
X23944Y18114
X24220Y18429
X24298Y19059
X24298Y19453
X25204Y19453
X26975Y19216
X27409Y19138
X27369Y18586
X27684Y18114
X28905Y17917
X28629Y18901
X29810Y18783
X30086Y19728
X31424Y19098
X33432Y19256
X33905Y18705
X34495Y18980
X34849Y19295
X35164Y19649
X31936Y17287
X32330Y16933
X33629Y16697
X35991Y16697
X38353Y16697
X40716Y16697
X41172Y15988
X40716Y15122
X41503Y13823
X44653Y15122
X47015Y15122
X48550Y15161
X49397Y15397
X50184Y15397
X50184Y16185
X50184Y16972
X49397Y16972
X48609Y16972
X48609Y17760
X47822Y17760
X46542Y16539
X44653Y16697
X43078Y16697
X41818Y17563
X42172Y18271
X41857Y18547
X42448Y18783
X42409Y19649
X50184Y18547
X50184Y17760
X40361Y11775
X41660Y10988
X37172Y11303
X32251Y11303
X30558Y12327
X29849Y11775
X29692Y11382
X29298Y11775
X31779Y10319
X26975Y9138
X24849Y9138
X24101Y9020
X24849Y9886
X22290Y8823
X21857Y9531
X20361Y8980
X19889Y8429
X18786Y8547
X20401Y7405
X19889Y6382
X18786Y6815
X20401Y5673
X23550Y4374
X22094Y3429
X25322Y5083
X25322Y5673
X26542Y5299
X27290Y5988
X27763Y5988
X27763Y6539
X28078Y5299
X29692Y5634
X29613Y6618
X33196Y6933
X34180Y7327
X34495Y6224
X33157Y5831
X22133Y8193
X16385Y5909
X15834Y6264
X22448Y11303
X19338Y12130
X23196Y15240
X23511Y15516
X23275Y16264
X23353Y17012
X20086Y17799
X19220Y18783
X20519Y19177
X21070Y19649
X22094Y19925
X22487Y19925
X22566Y19531
X21857Y20555
X21306Y20358
X21818Y21342
X22842Y21460
X21306Y22012
X20873Y22012
X19889Y22130
X18629Y20988
X17763Y20279
X16897Y20712
X15952Y21736
X17290Y22642
X17723Y22287
X23157Y22760
X23550Y22366
X26582Y20949
X26188Y20870
X25794Y20712
X25558Y20358
X28038Y20634
X28550Y20791
X28038Y19571
X17763Y17248
X17802Y16303
X16385Y18862
X10912Y22957
X50184Y7917
X50184Y7130
T02
X30151Y8218
T03
X29686Y4649
X32272Y3956
T04
X37172Y3760
X38172Y3760
X39172Y3760
X40172Y3760
X41172Y3760
X42172Y3760
X15172Y3760
X14172Y3760
X13172Y3760
X12172Y3760
X11172Y3760
X10172Y3760
X10172Y4760
X11172Y4760
X12172Y4760
X13172Y4760
X14172Y4760
X15172Y4760
X15172Y20760
X14172Y20760
X13172Y20760
X12172Y20760
X11172Y20760
X10172Y20760
X10172Y21760
X11172Y21760
X12172Y21760
X13172Y21760
X14172Y21760
X15172Y21760
X37172Y21760
X38172Y21760
X39172Y21760
X40172Y21760
X41172Y21760
X42172Y21760
T05
X29093Y9276
T06
X35597Y4098
X53944Y12760
X35597Y21421
M30
