G75*
G70*
%OFA0B0*%
%FSLAX24Y24*%
%IPPOS*%
%LPD*%
%AMOC8*
5,1,8,0,0,1.08239X$1,22.5*
%
%ADD10C,0.0000*%
D10*
X006464Y003311D02*
X010401Y006854D01*
X011243Y006827D01*
X006464Y022208D02*
X007297Y022645D01*
X008151Y023042D01*
X009022Y023396D01*
X009910Y023708D01*
X010812Y023976D01*
X011726Y024200D01*
X012650Y024380D01*
X013581Y024515D01*
X014518Y024604D01*
X015458Y024647D01*
X016399Y024645D01*
X017339Y024597D01*
X018275Y024504D01*
X019206Y024365D01*
X020129Y024182D01*
X021042Y023953D01*
X021943Y023681D01*
X022829Y023365D01*
X023699Y023007D01*
X024551Y022606D01*
X025382Y022165D01*
X026191Y021684D01*
X026975Y021165D01*
X027928Y020937D02*
X028011Y020972D01*
X027928Y020938D02*
X027870Y020921D01*
X027811Y020908D01*
X027751Y020899D01*
X027690Y020894D01*
X027630Y020893D01*
X027569Y020896D01*
X027509Y020902D01*
X027450Y020913D01*
X027391Y020927D01*
X027333Y020944D01*
X027276Y020966D01*
X027221Y020991D01*
X027168Y021020D01*
X027116Y021051D01*
X027067Y021087D01*
X027020Y021125D01*
X026976Y021166D01*
X034967Y021421D02*
X034969Y021471D01*
X034975Y021521D01*
X034985Y021570D01*
X034999Y021618D01*
X035016Y021665D01*
X035037Y021710D01*
X035062Y021754D01*
X035090Y021795D01*
X035122Y021834D01*
X035156Y021871D01*
X035193Y021905D01*
X035233Y021935D01*
X035275Y021962D01*
X035319Y021986D01*
X035365Y022007D01*
X035412Y022023D01*
X035460Y022036D01*
X035510Y022045D01*
X035559Y022050D01*
X035610Y022051D01*
X035660Y022048D01*
X035709Y022041D01*
X035758Y022030D01*
X035806Y022015D01*
X035852Y021997D01*
X035897Y021975D01*
X035940Y021949D01*
X035981Y021920D01*
X036020Y021888D01*
X036056Y021853D01*
X036088Y021815D01*
X036118Y021775D01*
X036145Y021732D01*
X036168Y021688D01*
X036187Y021642D01*
X036203Y021594D01*
X036215Y021545D01*
X036223Y021496D01*
X036227Y021446D01*
X036227Y021396D01*
X036223Y021346D01*
X036215Y021297D01*
X036203Y021248D01*
X036187Y021200D01*
X036168Y021154D01*
X036145Y021110D01*
X036118Y021067D01*
X036088Y021027D01*
X036056Y020989D01*
X036020Y020954D01*
X035981Y020922D01*
X035940Y020893D01*
X035897Y020867D01*
X035852Y020845D01*
X035806Y020827D01*
X035758Y020812D01*
X035709Y020801D01*
X035660Y020794D01*
X035610Y020791D01*
X035559Y020792D01*
X035510Y020797D01*
X035460Y020806D01*
X035412Y020819D01*
X035365Y020835D01*
X035319Y020856D01*
X035275Y020880D01*
X035233Y020907D01*
X035193Y020937D01*
X035156Y020971D01*
X035122Y021008D01*
X035090Y021047D01*
X035062Y021088D01*
X035037Y021132D01*
X035016Y021177D01*
X034999Y021224D01*
X034985Y021272D01*
X034975Y021321D01*
X034969Y021371D01*
X034967Y021421D01*
X038747Y002838D02*
X039680Y002871D01*
X040610Y002948D01*
X041535Y003069D01*
X042453Y003233D01*
X043363Y003440D01*
X044262Y003689D01*
X045149Y003981D01*
X046020Y004314D01*
X046875Y004688D01*
X047711Y005102D01*
X048527Y005555D01*
X049321Y006045D01*
X050091Y006573D01*
X050835Y007136D01*
X051551Y007733D01*
X052239Y008364D01*
X052896Y009026D01*
X053521Y009719D01*
X054113Y010440D01*
X054671Y011188D01*
X055192Y011962D01*
X055677Y012760D01*
X053314Y012760D02*
X053316Y012810D01*
X053322Y012860D01*
X053332Y012909D01*
X053346Y012957D01*
X053363Y013004D01*
X053384Y013049D01*
X053409Y013093D01*
X053437Y013134D01*
X053469Y013173D01*
X053503Y013210D01*
X053540Y013244D01*
X053580Y013274D01*
X053622Y013301D01*
X053666Y013325D01*
X053712Y013346D01*
X053759Y013362D01*
X053807Y013375D01*
X053857Y013384D01*
X053906Y013389D01*
X053957Y013390D01*
X054007Y013387D01*
X054056Y013380D01*
X054105Y013369D01*
X054153Y013354D01*
X054199Y013336D01*
X054244Y013314D01*
X054287Y013288D01*
X054328Y013259D01*
X054367Y013227D01*
X054403Y013192D01*
X054435Y013154D01*
X054465Y013114D01*
X054492Y013071D01*
X054515Y013027D01*
X054534Y012981D01*
X054550Y012933D01*
X054562Y012884D01*
X054570Y012835D01*
X054574Y012785D01*
X054574Y012735D01*
X054570Y012685D01*
X054562Y012636D01*
X054550Y012587D01*
X054534Y012539D01*
X054515Y012493D01*
X054492Y012449D01*
X054465Y012406D01*
X054435Y012366D01*
X054403Y012328D01*
X054367Y012293D01*
X054328Y012261D01*
X054287Y012232D01*
X054244Y012206D01*
X054199Y012184D01*
X054153Y012166D01*
X054105Y012151D01*
X054056Y012140D01*
X054007Y012133D01*
X053957Y012130D01*
X053906Y012131D01*
X053857Y012136D01*
X053807Y012145D01*
X053759Y012158D01*
X053712Y012174D01*
X053666Y012195D01*
X053622Y012219D01*
X053580Y012246D01*
X053540Y012276D01*
X053503Y012310D01*
X053469Y012347D01*
X053437Y012386D01*
X053409Y012427D01*
X053384Y012471D01*
X053363Y012516D01*
X053346Y012563D01*
X053332Y012611D01*
X053322Y012660D01*
X053316Y012710D01*
X053314Y012760D01*
X034967Y004098D02*
X034969Y004148D01*
X034975Y004198D01*
X034985Y004247D01*
X034999Y004295D01*
X035016Y004342D01*
X035037Y004387D01*
X035062Y004431D01*
X035090Y004472D01*
X035122Y004511D01*
X035156Y004548D01*
X035193Y004582D01*
X035233Y004612D01*
X035275Y004639D01*
X035319Y004663D01*
X035365Y004684D01*
X035412Y004700D01*
X035460Y004713D01*
X035510Y004722D01*
X035559Y004727D01*
X035610Y004728D01*
X035660Y004725D01*
X035709Y004718D01*
X035758Y004707D01*
X035806Y004692D01*
X035852Y004674D01*
X035897Y004652D01*
X035940Y004626D01*
X035981Y004597D01*
X036020Y004565D01*
X036056Y004530D01*
X036088Y004492D01*
X036118Y004452D01*
X036145Y004409D01*
X036168Y004365D01*
X036187Y004319D01*
X036203Y004271D01*
X036215Y004222D01*
X036223Y004173D01*
X036227Y004123D01*
X036227Y004073D01*
X036223Y004023D01*
X036215Y003974D01*
X036203Y003925D01*
X036187Y003877D01*
X036168Y003831D01*
X036145Y003787D01*
X036118Y003744D01*
X036088Y003704D01*
X036056Y003666D01*
X036020Y003631D01*
X035981Y003599D01*
X035940Y003570D01*
X035897Y003544D01*
X035852Y003522D01*
X035806Y003504D01*
X035758Y003489D01*
X035709Y003478D01*
X035660Y003471D01*
X035610Y003468D01*
X035559Y003469D01*
X035510Y003474D01*
X035460Y003483D01*
X035412Y003496D01*
X035365Y003512D01*
X035319Y003533D01*
X035275Y003557D01*
X035233Y003584D01*
X035193Y003614D01*
X035156Y003648D01*
X035122Y003685D01*
X035090Y003724D01*
X035062Y003765D01*
X035037Y003809D01*
X035016Y003854D01*
X034999Y003901D01*
X034985Y003949D01*
X034975Y003998D01*
X034969Y004048D01*
X034967Y004098D01*
X032095Y003956D02*
X032097Y003982D01*
X032103Y004008D01*
X032113Y004033D01*
X032126Y004056D01*
X032142Y004076D01*
X032162Y004094D01*
X032184Y004109D01*
X032207Y004121D01*
X032233Y004129D01*
X032259Y004133D01*
X032285Y004133D01*
X032311Y004129D01*
X032337Y004121D01*
X032361Y004109D01*
X032382Y004094D01*
X032402Y004076D01*
X032418Y004056D01*
X032431Y004033D01*
X032441Y004008D01*
X032447Y003982D01*
X032449Y003956D01*
X032447Y003930D01*
X032441Y003904D01*
X032431Y003879D01*
X032418Y003856D01*
X032402Y003836D01*
X032382Y003818D01*
X032360Y003803D01*
X032337Y003791D01*
X032311Y003783D01*
X032285Y003779D01*
X032259Y003779D01*
X032233Y003783D01*
X032207Y003791D01*
X032183Y003803D01*
X032162Y003818D01*
X032142Y003836D01*
X032126Y003856D01*
X032113Y003879D01*
X032103Y003904D01*
X032097Y003930D01*
X032095Y003956D01*
X029509Y004649D02*
X029511Y004675D01*
X029517Y004701D01*
X029527Y004726D01*
X029540Y004749D01*
X029556Y004769D01*
X029576Y004787D01*
X029598Y004802D01*
X029621Y004814D01*
X029647Y004822D01*
X029673Y004826D01*
X029699Y004826D01*
X029725Y004822D01*
X029751Y004814D01*
X029775Y004802D01*
X029796Y004787D01*
X029816Y004769D01*
X029832Y004749D01*
X029845Y004726D01*
X029855Y004701D01*
X029861Y004675D01*
X029863Y004649D01*
X029861Y004623D01*
X029855Y004597D01*
X029845Y004572D01*
X029832Y004549D01*
X029816Y004529D01*
X029796Y004511D01*
X029774Y004496D01*
X029751Y004484D01*
X029725Y004476D01*
X029699Y004472D01*
X029673Y004472D01*
X029647Y004476D01*
X029621Y004484D01*
X029597Y004496D01*
X029576Y004511D01*
X029556Y004529D01*
X029540Y004549D01*
X029527Y004572D01*
X029517Y004597D01*
X029511Y004623D01*
X029509Y004649D01*
X028011Y004547D02*
X027928Y004583D01*
X027928Y004582D02*
X027870Y004599D01*
X027811Y004612D01*
X027751Y004621D01*
X027690Y004626D01*
X027630Y004627D01*
X027569Y004624D01*
X027509Y004618D01*
X027450Y004607D01*
X027391Y004593D01*
X027333Y004576D01*
X027276Y004554D01*
X027221Y004529D01*
X027168Y004500D01*
X027116Y004469D01*
X027067Y004433D01*
X027020Y004395D01*
X026976Y004354D01*
X030003Y008218D02*
X030005Y008242D01*
X030011Y008265D01*
X030020Y008287D01*
X030033Y008307D01*
X030048Y008325D01*
X030067Y008340D01*
X030088Y008352D01*
X030110Y008360D01*
X030133Y008365D01*
X030157Y008366D01*
X030181Y008363D01*
X030203Y008356D01*
X030225Y008346D01*
X030245Y008333D01*
X030262Y008316D01*
X030276Y008297D01*
X030287Y008276D01*
X030295Y008253D01*
X030299Y008230D01*
X030299Y008206D01*
X030295Y008183D01*
X030287Y008160D01*
X030276Y008139D01*
X030262Y008120D01*
X030245Y008103D01*
X030225Y008090D01*
X030203Y008080D01*
X030181Y008073D01*
X030157Y008070D01*
X030133Y008071D01*
X030110Y008076D01*
X030088Y008084D01*
X030067Y008096D01*
X030048Y008111D01*
X030033Y008129D01*
X030020Y008149D01*
X030011Y008171D01*
X030005Y008194D01*
X030003Y008218D01*
X028886Y009276D02*
X028888Y009304D01*
X028894Y009332D01*
X028903Y009358D01*
X028916Y009384D01*
X028932Y009407D01*
X028952Y009427D01*
X028974Y009445D01*
X028998Y009460D01*
X029024Y009471D01*
X029051Y009479D01*
X029079Y009483D01*
X029107Y009483D01*
X029135Y009479D01*
X029162Y009471D01*
X029188Y009460D01*
X029212Y009445D01*
X029234Y009427D01*
X029254Y009407D01*
X029270Y009384D01*
X029283Y009358D01*
X029292Y009332D01*
X029298Y009304D01*
X029300Y009276D01*
X029298Y009248D01*
X029292Y009220D01*
X029283Y009194D01*
X029270Y009168D01*
X029254Y009145D01*
X029234Y009125D01*
X029212Y009107D01*
X029188Y009092D01*
X029162Y009081D01*
X029135Y009073D01*
X029107Y009069D01*
X029079Y009069D01*
X029051Y009073D01*
X029024Y009081D01*
X028998Y009092D01*
X028974Y009107D01*
X028952Y009125D01*
X028932Y009145D01*
X028916Y009168D01*
X028903Y009194D01*
X028894Y009220D01*
X028888Y009248D01*
X028886Y009276D01*
X017101Y010334D02*
X017101Y012740D01*
X017097Y015181D01*
X017098Y015181D02*
X017103Y015261D01*
X017105Y015342D01*
X017103Y015422D01*
X017097Y015502D01*
X017087Y015582D01*
X017073Y015661D01*
X017056Y015740D01*
X017035Y015817D01*
X017010Y015893D01*
X016981Y015969D01*
X016949Y016042D01*
X016914Y016114D01*
X016875Y016185D01*
X016832Y016253D01*
X016787Y016319D01*
X011239Y018689D02*
X010401Y018665D01*
X006464Y022209D01*
X006464Y003311D02*
X007297Y002874D01*
X008151Y002477D01*
X009022Y002123D01*
X009910Y001811D01*
X010812Y001543D01*
X011726Y001319D01*
X012650Y001139D01*
X013581Y001004D01*
X014518Y000915D01*
X015458Y000872D01*
X016399Y000874D01*
X017339Y000922D01*
X018275Y001015D01*
X019206Y001154D01*
X020129Y001337D01*
X021042Y001566D01*
X021943Y001838D01*
X022829Y002154D01*
X023699Y002512D01*
X024551Y002913D01*
X025382Y003354D01*
X026191Y003835D01*
X026975Y004354D01*
X028011Y020972D02*
X029154Y021393D01*
X030315Y021759D01*
X031493Y022067D01*
X032685Y022317D01*
X033887Y022508D01*
X035098Y022641D01*
X036313Y022713D01*
X037531Y022727D01*
X038747Y022680D01*
X038747Y002839D02*
X037531Y002792D01*
X036313Y002806D01*
X035098Y002878D01*
X033887Y003011D01*
X032685Y003202D01*
X031493Y003452D01*
X030315Y003760D01*
X029154Y004126D01*
X028011Y004547D01*
X038747Y022681D02*
X039680Y022648D01*
X040610Y022571D01*
X041535Y022450D01*
X042453Y022286D01*
X043363Y022079D01*
X044262Y021830D01*
X045149Y021538D01*
X046020Y021205D01*
X046875Y020831D01*
X047711Y020417D01*
X048527Y019964D01*
X049321Y019474D01*
X050091Y018946D01*
X050835Y018383D01*
X051551Y017786D01*
X052239Y017155D01*
X052896Y016493D01*
X053521Y015800D01*
X054113Y015079D01*
X054671Y014331D01*
X055192Y013557D01*
X055677Y012759D01*
X017102Y010335D02*
X017107Y010255D01*
X017109Y010174D01*
X017107Y010094D01*
X017101Y010014D01*
X017091Y009934D01*
X017077Y009855D01*
X017060Y009776D01*
X017039Y009699D01*
X017014Y009623D01*
X016985Y009547D01*
X016953Y009474D01*
X016918Y009402D01*
X016879Y009331D01*
X016836Y009263D01*
X016791Y009197D01*
X016786Y016319D02*
X016582Y016557D01*
X016367Y016785D01*
X016141Y017002D01*
X015904Y017209D01*
X015659Y017403D01*
X015404Y017586D01*
X015140Y017756D01*
X014869Y017913D01*
X014590Y018057D01*
X014304Y018187D01*
X014013Y018303D01*
X013717Y018405D01*
X013415Y018493D01*
X013110Y018566D01*
X012802Y018624D01*
X012492Y018667D01*
X012179Y018695D01*
X011866Y018708D01*
X011552Y018706D01*
X011239Y018689D01*
X016790Y009197D02*
X016586Y008959D01*
X016371Y008731D01*
X016145Y008514D01*
X015909Y008307D01*
X015663Y008113D01*
X015408Y007930D01*
X015144Y007760D01*
X014873Y007603D01*
X014594Y007459D01*
X014308Y007329D01*
X014017Y007213D01*
X013721Y007111D01*
X013419Y007023D01*
X013114Y006950D01*
X012806Y006892D01*
X012496Y006849D01*
X012183Y006821D01*
X011870Y006808D01*
X011556Y006810D01*
X011243Y006827D01*
M02*
